<svg width="512" height="513" viewBox="0 0 512 513" fill="none" xmlns="http://www.w3.org/2000/svg">
<path d="M87.9062 49C65.7969 49 48 66.8438 48 89V433.125C48 455.297 65.7969 473.125 87.9062 473.125H424.078C446.203 473.125 464 455.297 464 433.125V144.781C464 118.266 442.562 96.7812 416.109 96.7812H232C222.188 96.7812 213.219 91.2344 208.812 82.4531L202.797 70.4844C196.172 57.3125 182.719 49 168 49H87.9062Z" fill="#438DE6"/>
<path d="M263.906 145C252.922 145 243 149.406 235.797 156.562C226.703 165.578 214.266 177 201.266 177H87.9062C65.7969 177 48 194.844 48 217V433.125C48 455.297 65.7969 473.125 87.9062 473.125H424.078C446.203 473.125 464 455.297 464 433.125V185C464 162.844 446.203 145 424.078 145H263.906Z" fill="url(#paint0_linear_5_20)"/>
<path d="M263.906 129C252.922 129 243 133.406 235.797 140.562C226.703 149.578 214.266 161 201.266 161H87.9062C65.7969 161 48 178.844 48 201V424.906C48 447.062 65.7969 464.906 87.9062 464.906H424.078C446.203 464.906 464 447.062 464 424.906V169C464 146.844 446.203 129 424.078 129H263.906Z" fill="#A4CAEE"/>
<path fill-rule="evenodd" clip-rule="evenodd" d="M254.489 383.228C254.071 382.74 252.898 380.948 251.883 379.247C249.407 375.099 248.574 375.113 244.591 379.371C241.633 382.534 240.305 383.193 239.361 381.969C239.098 381.629 238.278 379.685 237.536 377.649C235.559 372.216 234.931 372.05 230.121 375.692C225.108 379.486 224.467 379.124 223.361 371.885C222.624 367.056 221.993 366.807 216.723 369.264C213.257 370.881 212.62 371.036 211.757 370.471C210.872 369.891 210.781 369.359 210.9 365.403C211.014 361.585 210.902 360.866 210.091 360.131C209.199 359.324 208.94 359.333 205.175 360.294C200.266 361.548 199.798 361.551 199.147 360.334C198.754 359.6 198.9 358.323 199.734 355.174C200.809 351.116 200.815 350.959 199.939 349.991C199.124 349.091 198.629 349.021 194.895 349.285C188.629 349.727 188.051 348.802 190.971 343.004C192.441 340.085 192.618 339.389 192.151 338.364C191.673 337.316 191.076 337.081 187.585 336.571C180.839 335.584 180.547 335.005 184.293 330.029C187.943 325.182 187.751 324.446 182.331 322.498C176.176 320.286 176.01 319.63 180.582 315.591C185.036 311.655 185.009 310.689 180.361 307.881C178.471 306.739 176.671 305.499 176.362 305.126C175.345 303.901 176.318 302.676 180.085 300.443C184.97 297.547 185.017 296.793 180.582 292.598C178.813 290.925 177.365 289.227 177.365 288.825C177.365 287.849 179.032 286.81 182.534 285.606C187.681 283.835 187.877 283.008 184.293 278.173C180.586 273.172 180.848 272.616 187.346 271.707C193.053 270.908 193.383 270.3 190.917 265.109C189.953 263.078 189.237 260.9 189.326 260.269C189.482 259.172 189.715 259.111 194.633 258.874C201.117 258.562 201.152 258.52 199.694 252.705C198.16 246.589 198.65 246.181 205.419 247.939C208.614 248.769 209.086 248.788 210.042 248.118C211.033 247.424 211.084 247.104 210.766 243.518C210.177 236.865 210.975 236.232 216.645 238.852C222.108 241.376 222.911 240.916 223.649 234.842C224.323 229.284 225.429 228.929 230.408 232.669C234.846 236.002 235.789 235.806 237.274 231.239C239.441 224.575 240.363 224.303 244.825 229.013C248.83 233.24 249.507 233.151 252.475 228.003C253.64 225.982 254.895 224.213 255.263 224.071C256.371 223.647 257.756 224.986 259.767 228.425C262.527 233.144 263.359 233.21 267.161 229.015C270.12 225.752 271.803 224.937 272.719 226.327C272.939 226.661 273.69 228.596 274.388 230.626C275.422 233.637 275.897 234.398 276.963 234.753C278.094 235.13 278.715 234.852 281.583 232.681C284.65 230.359 286.801 229.586 287.417 230.583C287.557 230.809 287.906 232.535 288.193 234.418C288.48 236.302 288.827 238.341 288.966 238.949C289.397 240.849 291.182 240.808 295.577 238.799C299.326 237.085 299.667 237.014 300.494 237.763C301.255 238.451 301.354 239.193 301.177 242.906C300.998 246.669 301.093 247.355 301.89 248.075C302.753 248.853 303.076 248.84 307.063 247.869C313.378 246.33 313.683 246.66 312.12 253.343C310.94 258.384 311.105 258.565 317.161 258.874C323.518 259.199 323.675 259.432 321.152 264.807C318.526 270.403 318.781 270.887 324.792 271.708C328.345 272.194 329.405 272.526 329.809 273.28C330.401 274.386 330.392 274.403 327.223 278.735C324.034 283.095 324.251 283.695 329.764 285.772C335.678 288 335.771 288.391 331.371 292.536C326.842 296.803 326.874 297.505 331.722 300.386C333.556 301.475 335.332 302.698 335.669 303.104C336.647 304.284 335.616 305.539 331.81 307.8C326.919 310.706 326.876 311.237 331.202 315.395C333.141 317.259 334.728 318.957 334.728 319.168C334.728 320.228 333.126 321.272 329.613 322.501C324.216 324.39 324.043 325.016 327.568 329.929C329.056 332.004 330.274 333.884 330.274 334.108C330.274 335.224 328.427 336.02 324.566 336.569C318.855 337.379 318.611 337.874 321.166 343.465C323.678 348.959 323.518 349.185 317.114 349.185C312.299 349.185 312.236 349.199 311.781 350.487C311.458 351.4 311.564 352.761 312.137 355.042C313.735 361.403 313.249 361.91 307.063 360.331C301.404 358.886 300.991 359.193 301.095 364.772C301.198 370.265 301.224 370.103 300.152 370.677C299.433 371.062 298.352 370.751 295.323 369.285C292.15 367.751 291.21 367.491 290.3 367.898C289.099 368.433 288.972 368.785 288.236 373.606C287.73 376.916 287.092 378.133 285.861 378.133C285.452 378.133 283.566 376.984 281.671 375.579C277.157 372.233 276.178 372.456 274.583 377.191C272.364 383.777 271.806 383.944 267.369 379.348C263.249 375.081 262.608 375.143 259.541 380.113C257.121 384.034 255.851 384.818 254.489 383.228ZM265.286 362.548C270.147 361.76 276.954 359.781 279.832 358.319L281.597 357.423L282.444 351.835C283.784 342.999 284.371 342.565 293.022 344.008L298.851 344.98L300.749 342.889C304.5 338.755 305.228 339.041 290.935 339.041C276.888 339.041 275.875 338.862 273.745 336C272.136 333.838 271.142 331.012 269.854 324.937C268.468 318.394 267.172 315.06 265.142 312.813C262.777 310.195 260.755 309.775 251.345 309.947L243.428 310.091V315.535V320.978L250.232 321.115L257.036 321.252V330.146V339.039H232.789C219.452 339.039 208.541 339.219 208.541 339.44C208.541 339.66 209.599 340.991 210.891 342.397L213.242 344.953L219.037 343.98C227.68 342.531 228.193 342.913 229.589 351.848L230.469 357.481L233.484 358.822C242.359 362.771 254.872 364.236 265.286 362.547V362.548ZM223.424 356.893C224.495 355.822 224.871 354.977 224.871 353.639C224.871 351.075 222.688 348.938 220.071 348.938C217.77 348.938 216.312 349.872 215.481 351.877C213.481 356.705 219.692 360.626 223.424 356.893ZM295.32 357.035C297.117 355.238 297.161 351.903 295.41 350.152C292.559 347.301 287.222 349.574 287.222 353.638C287.222 357.755 292.42 359.935 295.32 357.035ZM217.943 301.679V282.132H212.747C209.48 282.132 207.551 282.323 207.551 282.647C207.551 282.93 208.001 284.043 208.55 285.12C210.387 288.72 209.44 290.004 202.185 293.761L197.407 296.236L197.013 298.71C196.32 303.071 197.169 313.504 198.694 319.37L199.177 321.226H208.56H217.943V301.679ZM305.619 319.415C307.279 317.913 308.054 315.892 308.357 312.281L308.644 308.854H311.804H314.963L314.825 302.607L314.687 296.36L309.28 293.488C304.121 290.748 302.621 289.409 302.58 287.507C302.57 287.061 303.808 284.278 305.331 281.322L308.099 275.948L307.186 274.23C305.444 270.948 300.701 265.039 296.818 261.309C289.933 254.696 281.634 249.87 272.69 247.278C270.279 246.58 267.937 246.008 267.484 246.008C267.032 246.008 264.997 247.695 262.962 249.756C258.718 254.056 257.046 255.105 255.115 254.681C254.318 254.506 252.047 252.66 249.595 250.196C247.304 247.893 245.06 246.008 244.608 246.008C242.878 246.008 234.842 248.632 230.868 250.494C225.431 253.042 219.467 257.096 215.469 260.961L212.252 264.07L245.655 264.333C278.767 264.594 279.083 264.606 282.026 265.709C293.223 269.908 299.242 281.036 295.593 290.791C294.475 293.78 290.361 298.655 287.428 300.467L285.729 301.517L287.768 303.825C290.523 306.944 292.477 310.43 293.65 314.32C294.251 316.314 295.157 318.067 296.007 318.882C298.451 321.222 303.323 321.493 305.619 319.415ZM267.621 292.826C270.025 291.822 271.387 290.146 271.387 288.192C271.387 285.843 270.678 284.775 268.278 283.51C266.299 282.466 265.601 282.409 254.809 282.395L243.428 282.38L243.288 287.947L243.148 293.514H254.562C263.185 293.514 266.378 293.346 267.621 292.826ZM200.057 289.345C203.632 287.496 203.239 281.919 199.444 280.667C196.016 279.536 192.975 281.657 192.975 285.18C192.975 286.813 193.271 287.446 194.58 288.616C196.351 290.198 197.986 290.416 200.057 289.345ZM317.446 288.604C319.99 286.06 319.23 282.017 315.953 280.66C311.126 278.661 307.204 284.871 310.937 288.604C312.008 289.674 312.853 290.05 314.192 290.05C315.53 290.05 316.375 289.674 317.446 288.604ZM259.569 246.203C261.593 244.371 260.994 239.909 258.548 238.6C255.376 236.902 251.098 239.266 251.098 242.716C251.098 244.736 253.013 247.333 254.703 247.604C256.21 247.846 258.474 247.194 259.569 246.203Z" fill="#428CE6" stroke="#428CE6" stroke-width="1.09116"/>
<defs>
<linearGradient id="paint0_linear_5_20" x1="47.9992" y1="448.998" x2="463.999" y2="448.998" gradientUnits="userSpaceOnUse">
<stop stop-color="#62A0EA"/>
<stop offset="0.0576991" stop-color="#AFD4FF"/>
<stop offset="0.122204" stop-color="#62A0EA"/>
<stop offset="0.873306" stop-color="#62A0EA"/>
<stop offset="0.955997" stop-color="#C0D5EA"/>
<stop offset="1" stop-color="#62A0EA"/>
</linearGradient>
</defs>
</svg>
