<svg width="600" height="600" viewBox="0 0 600 600" fill="none" xmlns="http://www.w3.org/2000/svg">
<path d="M93.9062 105C71.7969 105 54 122.844 54 145V489.125C54 511.297 71.7969 529.125 93.9062 529.125H430.078C452.203 529.125 470 511.297 470 489.125V200.781C470 174.266 448.562 152.781 422.109 152.781H238C228.188 152.781 219.219 147.234 214.812 138.453L208.797 126.484C202.172 113.312 188.719 105 174 105H93.9062Z" fill="#438DE6"/>
<path d="M269.906 201C258.922 201 249 205.406 241.797 212.562C232.703 221.578 220.266 233 207.266 233H93.9062C71.7969 233 54 250.844 54 273V489.125C54 511.297 71.7969 529.125 93.9062 529.125H430.078C452.203 529.125 470 511.297 470 489.125V241C470 218.844 452.203 201 430.078 201H269.906Z" fill="url(#paint0_linear_2_583)"/>
<path d="M269.906 185C258.922 185 249 189.406 241.797 196.562C232.703 205.578 220.266 217 207.266 217H93.9062C71.7969 217 54 234.844 54 257V480.906C54 503.063 71.7969 520.906 93.9062 520.906H430.078C452.203 520.906 470 503.063 470 480.906V225C470 202.844 452.203 185 430.078 185H269.906Z" fill="#A4CAEE"/>
<path d="M558.241 93C556.168 93 554.5 94.6729 554.5 96.75V129.012C554.5 131.09 556.168 132.762 558.241 132.762H589.757C591.832 132.762 593.5 131.09 593.5 129.012V101.979C593.5 99.4937 591.49 97.4795 589.01 97.4795H571.75C570.83 97.4795 569.989 96.9595 569.576 96.1362L569.012 95.0142C568.391 93.7793 567.13 93 565.75 93H558.241Z" fill="#438DE6"/>
<path d="M574.741 101C573.711 101 572.781 101.413 572.106 102.084C571.253 102.929 570.087 104 568.869 104H558.241C556.168 104 554.5 105.673 554.5 107.75V128.741C554.5 130.818 556.168 132.491 558.241 132.491H589.757C591.832 132.491 593.5 130.818 593.5 128.741V104.75C593.5 102.673 591.832 101 589.757 101H574.741Z" fill="#A4CAEE"/>
<path fill-rule="evenodd" clip-rule="evenodd" d="M260.489 439.228C260.071 438.74 258.898 436.948 257.883 435.247C255.407 431.099 254.574 431.113 250.591 435.371C247.633 438.534 246.305 439.193 245.361 437.969C245.098 437.629 244.278 435.685 243.536 433.649C241.559 428.216 240.931 428.05 236.121 431.692C231.108 435.486 230.467 435.124 229.361 427.885C228.624 423.056 227.993 422.807 222.723 425.264C219.257 426.881 218.62 427.036 217.757 426.471C216.872 425.891 216.781 425.359 216.9 421.403C217.014 417.585 216.902 416.866 216.091 416.131C215.199 415.324 214.94 415.333 211.175 416.294C206.266 417.548 205.798 417.551 205.147 416.334C204.754 415.6 204.9 414.323 205.734 411.174C206.809 407.116 206.815 406.959 205.939 405.991C205.124 405.091 204.629 405.021 200.895 405.285C194.629 405.727 194.051 404.802 196.971 399.004C198.441 396.085 198.618 395.389 198.151 394.364C197.673 393.316 197.076 393.081 193.585 392.571C186.839 391.584 186.547 391.005 190.293 386.029C193.943 381.182 193.751 380.446 188.331 378.498C182.176 376.286 182.01 375.63 186.582 371.591C191.036 367.655 191.009 366.689 186.361 363.881C184.471 362.739 182.671 361.499 182.362 361.126C181.345 359.901 182.318 358.676 186.085 356.443C190.97 353.547 191.017 352.793 186.582 348.598C184.813 346.925 183.365 345.227 183.365 344.825C183.365 343.849 185.032 342.81 188.534 341.606C193.681 339.835 193.877 339.008 190.293 334.173C186.586 329.172 186.848 328.616 193.346 327.707C199.053 326.908 199.383 326.3 196.917 321.109C195.953 319.078 195.237 316.9 195.326 316.269C195.482 315.172 195.715 315.111 200.633 314.874C207.117 314.562 207.152 314.52 205.694 308.705C204.16 302.589 204.65 302.181 211.419 303.939C214.614 304.769 215.086 304.788 216.042 304.118C217.033 303.424 217.084 303.104 216.766 299.518C216.177 292.865 216.975 292.232 222.645 294.852C228.108 297.376 228.911 296.916 229.649 290.842C230.323 285.284 231.429 284.929 236.408 288.669C240.846 292.002 241.789 291.806 243.274 287.239C245.441 280.575 246.363 280.303 250.825 285.013C254.83 289.24 255.507 289.151 258.475 284.003C259.64 281.982 260.895 280.213 261.263 280.071C262.371 279.647 263.756 280.986 265.767 284.425C268.527 289.144 269.359 289.21 273.161 285.015C276.12 281.752 277.803 280.937 278.719 282.327C278.939 282.661 279.69 284.596 280.388 286.626C281.422 289.637 281.897 290.398 282.963 290.753C284.094 291.13 284.715 290.852 287.583 288.681C290.65 286.359 292.801 285.586 293.417 286.583C293.557 286.809 293.906 288.535 294.193 290.418C294.48 292.302 294.827 294.341 294.966 294.949C295.397 296.849 297.182 296.808 301.577 294.799C305.326 293.085 305.667 293.014 306.494 293.763C307.255 294.451 307.354 295.193 307.177 298.906C306.998 302.669 307.093 303.355 307.89 304.075C308.753 304.853 309.076 304.84 313.063 303.869C319.378 302.33 319.683 302.66 318.12 309.343C316.94 314.384 317.105 314.565 323.161 314.874C329.518 315.199 329.675 315.432 327.152 320.807C324.526 326.403 324.781 326.887 330.792 327.708C334.345 328.194 335.405 328.526 335.809 329.28C336.401 330.386 336.392 330.403 333.223 334.735C330.034 339.095 330.251 339.695 335.764 341.772C341.678 344 341.771 344.391 337.371 348.536C332.842 352.803 332.874 353.505 337.722 356.386C339.556 357.475 341.332 358.698 341.669 359.104C342.647 360.284 341.616 361.539 337.81 363.8C332.919 366.706 332.876 367.237 337.202 371.395C339.141 373.259 340.728 374.957 340.728 375.168C340.728 376.228 339.126 377.272 335.613 378.501C330.216 380.39 330.043 381.016 333.568 385.929C335.056 388.004 336.274 389.884 336.274 390.108C336.274 391.224 334.427 392.02 330.566 392.569C324.855 393.379 324.611 393.874 327.166 399.465C329.678 404.959 329.518 405.185 323.114 405.185C318.299 405.185 318.236 405.199 317.781 406.487C317.458 407.4 317.564 408.761 318.137 411.042C319.735 417.403 319.249 417.91 313.063 416.331C307.404 414.886 306.991 415.193 307.095 420.772C307.198 426.265 307.224 426.103 306.152 426.677C305.433 427.062 304.352 426.751 301.323 425.285C298.15 423.751 297.21 423.491 296.3 423.898C295.099 424.433 294.972 424.785 294.236 429.606C293.731 432.916 293.092 434.133 291.861 434.133C291.452 434.133 289.566 432.984 287.671 431.579C283.157 428.233 282.178 428.456 280.583 433.191C278.364 439.777 277.806 439.944 273.369 435.348C269.249 431.081 268.608 431.143 265.541 436.113C263.121 440.034 261.851 440.818 260.489 439.228ZM271.286 418.548C276.147 417.76 282.954 415.781 285.832 414.319L287.597 413.423L288.444 407.835C289.784 398.999 290.371 398.565 299.022 400.008L304.851 400.98L306.749 398.889C310.5 394.755 311.228 395.041 296.935 395.041C282.888 395.041 281.875 394.862 279.745 392C278.136 389.838 277.142 387.012 275.854 380.937C274.468 374.394 273.172 371.06 271.142 368.813C268.777 366.195 266.755 365.775 257.345 365.947L249.428 366.091V371.535V376.978L256.232 377.115L263.036 377.252V386.146V395.039H238.789C225.452 395.039 214.541 395.219 214.541 395.44C214.541 395.66 215.599 396.991 216.891 398.397L219.242 400.953L225.037 399.98C233.68 398.531 234.193 398.913 235.589 407.848L236.469 413.481L239.484 414.822C248.359 418.771 260.872 420.236 271.286 418.547V418.548ZM229.424 412.893C230.495 411.822 230.871 410.977 230.871 409.639C230.871 407.075 228.688 404.938 226.071 404.938C223.77 404.938 222.312 405.872 221.481 407.877C219.481 412.705 225.692 416.626 229.424 412.893ZM301.32 413.035C303.117 411.238 303.161 407.903 301.41 406.152C298.559 403.301 293.222 405.574 293.222 409.638C293.222 413.755 298.42 415.935 301.32 413.035ZM223.943 357.679V338.132H218.747C215.48 338.132 213.551 338.323 213.551 338.647C213.551 338.93 214.001 340.043 214.55 341.12C216.387 344.72 215.441 346.004 208.185 349.761L203.407 352.236L203.013 354.71C202.32 359.071 203.169 369.504 204.694 375.37L205.177 377.226H214.56H223.943V357.679ZM311.619 375.415C313.279 373.913 314.054 371.892 314.357 368.281L314.644 364.854H317.804H320.963L320.825 358.607L320.687 352.36L315.28 349.488C310.121 346.748 308.621 345.409 308.58 343.507C308.57 343.061 309.808 340.278 311.331 337.322L314.099 331.948L313.186 330.23C311.444 326.948 306.701 321.039 302.818 317.309C295.933 310.696 287.634 305.87 278.69 303.278C276.279 302.58 273.937 302.008 273.484 302.008C273.032 302.008 270.997 303.695 268.962 305.756C264.718 310.056 263.046 311.105 261.115 310.681C260.318 310.506 258.047 308.66 255.595 306.196C253.304 303.893 251.06 302.008 250.608 302.008C248.878 302.008 240.842 304.632 236.868 306.494C231.431 309.042 225.467 313.096 221.469 316.961L218.252 320.07L251.655 320.333C284.767 320.594 285.083 320.606 288.026 321.709C299.223 325.908 305.242 337.036 301.593 346.791C300.475 349.78 296.361 354.655 293.428 356.467L291.729 357.517L293.768 359.825C296.523 362.944 298.477 366.43 299.65 370.32C300.251 372.314 301.157 374.067 302.007 374.882C304.451 377.222 309.323 377.493 311.619 375.415ZM273.621 348.826C276.025 347.822 277.387 346.146 277.387 344.192C277.387 341.843 276.678 340.775 274.278 339.51C272.299 338.466 271.601 338.409 260.809 338.395L249.428 338.38L249.288 343.947L249.148 349.514H260.562C269.185 349.514 272.378 349.346 273.621 348.826ZM206.057 345.345C209.632 343.496 209.239 337.919 205.444 336.667C202.016 335.536 198.975 337.657 198.975 341.18C198.975 342.813 199.271 343.446 200.58 344.616C202.351 346.198 203.986 346.416 206.057 345.345ZM323.446 344.604C325.99 342.06 325.23 338.017 321.953 336.66C317.126 334.661 313.204 340.871 316.937 344.604C318.008 345.674 318.853 346.05 320.192 346.05C321.53 346.05 322.375 345.674 323.446 344.604ZM265.569 302.203C267.593 300.371 266.994 295.909 264.548 294.6C261.376 292.902 257.098 295.266 257.098 298.716C257.098 300.736 259.013 303.333 260.703 303.604C262.21 303.845 264.474 303.194 265.569 302.203Z" fill="#428CE6" stroke="#428CE6" stroke-width="1.09116"/>
<path fill-rule="evenodd" clip-rule="evenodd" d="M573.848 126.072C573.806 126.023 573.688 125.843 573.586 125.672C573.337 125.256 573.254 125.257 572.853 125.685C572.556 126.003 572.423 126.069 572.328 125.946C572.301 125.912 572.219 125.717 572.144 125.512C571.946 124.966 571.883 124.949 571.399 125.315C570.896 125.697 570.831 125.66 570.72 124.933C570.646 124.447 570.582 124.422 570.053 124.669C569.705 124.832 569.641 124.847 569.554 124.791C569.465 124.732 569.456 124.679 569.468 124.281C569.479 123.898 569.468 123.825 569.386 123.752C569.297 123.671 569.271 123.671 568.892 123.768C568.399 123.894 568.352 123.894 568.287 123.772C568.247 123.698 568.262 123.57 568.345 123.253C568.453 122.846 568.454 122.83 568.366 122.733C568.284 122.642 568.235 122.635 567.859 122.662C567.23 122.706 567.172 122.613 567.465 122.03C567.613 121.737 567.63 121.667 567.584 121.564C567.536 121.459 567.476 121.435 567.125 121.384C566.447 121.285 566.417 121.227 566.794 120.727C567.161 120.239 567.141 120.165 566.597 119.97C565.978 119.747 565.961 119.681 566.421 119.276C566.869 118.88 566.866 118.783 566.399 118.501C566.209 118.386 566.028 118.261 565.997 118.224C565.895 118.101 565.993 117.978 566.371 117.753C566.862 117.462 566.867 117.387 566.421 116.965C566.243 116.797 566.098 116.626 566.098 116.586C566.098 116.488 566.265 116.383 566.617 116.262C567.135 116.084 567.154 116.001 566.794 115.515C566.422 115.013 566.448 114.957 567.101 114.866C567.674 114.785 567.707 114.724 567.46 114.203C567.363 113.998 567.291 113.78 567.3 113.716C567.315 113.606 567.339 113.6 567.833 113.576C568.485 113.545 568.488 113.541 568.342 112.956C568.188 112.341 568.237 112.3 568.917 112.477C569.238 112.561 569.286 112.562 569.382 112.495C569.481 112.425 569.486 112.393 569.454 112.033C569.395 111.364 569.475 111.301 570.045 111.564C570.594 111.818 570.675 111.771 570.749 111.161C570.817 110.602 570.928 110.567 571.428 110.943C571.874 111.278 571.969 111.258 572.118 110.799C572.336 110.129 572.429 110.102 572.877 110.575C573.28 111 573.348 110.991 573.646 110.474C573.763 110.271 573.889 110.093 573.926 110.079C574.037 110.036 574.177 110.17 574.379 110.516C574.656 110.99 574.74 110.997 575.122 110.575C575.419 110.247 575.588 110.166 575.68 110.305C575.702 110.339 575.778 110.533 575.848 110.737C575.952 111.04 576 111.116 576.107 111.152C576.22 111.19 576.283 111.162 576.571 110.944C576.879 110.71 577.095 110.633 577.157 110.733C577.171 110.756 577.206 110.929 577.235 111.118C577.264 111.308 577.299 111.512 577.313 111.574C577.356 111.765 577.536 111.76 577.977 111.559C578.354 111.386 578.388 111.379 578.471 111.454C578.548 111.524 578.558 111.598 578.54 111.971C578.522 112.349 578.532 112.418 578.612 112.491C578.698 112.569 578.731 112.568 579.131 112.47C579.766 112.315 579.797 112.348 579.639 113.02C579.521 113.527 579.538 113.545 580.146 113.576C580.785 113.608 580.801 113.632 580.547 114.172C580.283 114.734 580.309 114.783 580.913 114.866C581.27 114.914 581.377 114.948 581.417 115.023C581.477 115.135 581.476 115.136 581.157 115.572C580.837 116.01 580.859 116.07 581.413 116.279C582.007 116.503 582.016 116.542 581.574 116.959C581.119 117.387 581.122 117.458 581.609 117.747C581.794 117.857 581.972 117.98 582.006 118.021C582.104 118.139 582.001 118.265 581.618 118.492C581.127 118.784 581.122 118.838 581.557 119.256C581.752 119.443 581.911 119.614 581.911 119.635C581.911 119.741 581.75 119.846 581.397 119.97C580.855 120.16 580.838 120.223 581.192 120.716C581.341 120.925 581.464 121.114 581.464 121.136C581.464 121.248 581.278 121.328 580.89 121.383C580.316 121.465 580.292 121.515 580.549 122.077C580.801 122.629 580.785 122.651 580.141 122.651C579.657 122.651 579.651 122.653 579.605 122.782C579.573 122.874 579.584 123.011 579.641 123.24C579.802 123.879 579.753 123.93 579.131 123.771C578.563 123.626 578.521 123.657 578.532 124.218C578.542 124.77 578.544 124.753 578.437 124.811C578.364 124.85 578.256 124.818 577.952 124.671C577.633 124.517 577.538 124.491 577.447 124.532C577.326 124.586 577.313 124.621 577.239 125.105C577.189 125.438 577.124 125.56 577.001 125.56C576.96 125.56 576.77 125.445 576.58 125.304C576.126 124.967 576.028 124.99 575.867 125.466C575.644 126.128 575.588 126.144 575.142 125.683C574.728 125.254 574.664 125.26 574.356 125.759C574.113 126.153 573.985 126.232 573.848 126.072ZM574.933 123.994C575.422 123.915 576.106 123.716 576.395 123.569L576.572 123.479L576.657 122.918C576.792 122.03 576.851 121.986 577.72 122.131L578.306 122.229L578.497 122.019C578.874 121.603 578.947 121.632 577.511 121.632C576.099 121.632 575.997 121.614 575.783 121.326C575.621 121.109 575.521 120.825 575.392 120.215C575.253 119.557 575.122 119.222 574.919 118.996C574.681 118.733 574.478 118.691 573.532 118.708L572.736 118.723V119.27V119.817L573.42 119.831L574.104 119.844V120.738V121.632H571.667C570.327 121.632 569.231 121.65 569.231 121.672C569.231 121.694 569.337 121.828 569.467 121.969L569.703 122.226L570.285 122.128C571.154 121.983 571.205 122.021 571.346 122.919L571.434 123.485L571.737 123.62C572.629 124.017 573.886 124.164 574.933 123.994ZM570.726 123.426C570.834 123.318 570.872 123.234 570.872 123.099C570.872 122.841 570.652 122.627 570.389 122.627C570.158 122.627 570.011 122.721 569.928 122.922C569.727 123.407 570.351 123.801 570.726 123.426ZM577.951 123.44C578.132 123.26 578.136 122.925 577.96 122.749C577.674 122.462 577.137 122.691 577.137 123.099C577.137 123.513 577.66 123.732 577.951 123.44ZM570.175 117.878V115.913H569.653C569.325 115.913 569.131 115.932 569.131 115.965C569.131 115.993 569.176 116.105 569.232 116.214C569.416 116.575 569.321 116.704 568.592 117.082L568.112 117.331L568.072 117.579C568.003 118.017 568.088 119.066 568.241 119.655L568.29 119.842H569.232H570.175V117.878ZM578.986 119.66C579.153 119.509 579.231 119.306 579.261 118.943L579.29 118.599H579.608H579.925L579.911 117.971L579.897 117.343L579.354 117.054C578.835 116.779 578.685 116.644 578.681 116.453C578.68 116.409 578.804 116.129 578.957 115.832L579.235 115.292L579.144 115.119C578.968 114.789 578.492 114.195 578.102 113.821C577.41 113.156 576.576 112.671 575.677 112.411C575.435 112.34 575.199 112.283 575.154 112.283C575.108 112.283 574.904 112.452 574.699 112.66C574.273 113.092 574.105 113.197 573.911 113.155C573.831 113.137 573.602 112.952 573.356 112.704C573.126 112.472 572.9 112.283 572.855 112.283C572.681 112.283 571.873 112.547 571.474 112.734C570.928 112.99 570.328 113.397 569.927 113.786L569.603 114.098L572.96 114.125C576.288 114.151 576.319 114.152 576.615 114.263C577.74 114.685 578.345 115.803 577.978 116.783C577.866 117.084 577.453 117.574 577.158 117.756L576.987 117.861L577.192 118.093C577.469 118.407 577.665 118.757 577.783 119.148C577.844 119.348 577.935 119.524 578.02 119.606C578.266 119.841 578.755 119.869 578.986 119.66ZM575.168 116.988C575.409 116.887 575.546 116.718 575.546 116.522C575.546 116.286 575.475 116.179 575.234 116.052C575.035 115.947 574.965 115.941 573.88 115.94L572.736 115.938L572.722 116.497L572.708 117.056H573.855C574.722 117.056 575.043 117.04 575.168 116.988ZM568.378 116.638C568.737 116.452 568.698 115.892 568.317 115.766C567.972 115.652 567.667 115.865 567.667 116.219C567.667 116.384 567.696 116.447 567.828 116.565C568.006 116.724 568.17 116.746 568.378 116.638ZM580.175 116.564C580.43 116.308 580.354 115.902 580.025 115.765C579.54 115.564 579.145 116.188 579.521 116.564C579.628 116.671 579.713 116.709 579.848 116.709C579.982 116.709 580.067 116.671 580.175 116.564ZM574.359 112.303C574.562 112.118 574.502 111.67 574.256 111.539C573.937 111.368 573.507 111.606 573.507 111.952C573.507 112.155 573.7 112.416 573.869 112.443C574.021 112.468 574.248 112.402 574.359 112.303Z" fill="#428CE6" stroke="#428CE6" stroke-width="0.109654"/>
<defs>
<linearGradient id="paint0_linear_2_583" x1="53.9992" y1="504.998" x2="469.999" y2="504.998" gradientUnits="userSpaceOnUse">
<stop stop-color="#62A0EA"/>
<stop offset="0.0576991" stop-color="#AFD4FF"/>
<stop offset="0.122204" stop-color="#62A0EA"/>
<stop offset="0.873306" stop-color="#62A0EA"/>
<stop offset="0.955997" stop-color="#C0D5EA"/>
<stop offset="1" stop-color="#62A0EA"/>
</linearGradient>
</defs>
</svg>
