<svg width="512" height="513" viewBox="0 0 512 513" fill="none" xmlns="http://www.w3.org/2000/svg">
<path d="M87.9062 49C65.7969 49 48 66.8438 48 89V433.125C48 455.297 65.7969 473.125 87.9062 473.125H424.078C446.203 473.125 464 455.297 464 433.125V144.781C464 118.266 442.562 96.7812 416.109 96.7812H232C222.188 96.7812 213.219 91.2344 208.812 82.4531L202.797 70.4844C196.172 57.3125 182.719 49 168 49H87.9062Z" fill="#438DE6"/>
<path d="M263.906 145C252.922 145 243 149.406 235.797 156.562C226.703 165.578 214.266 177 201.266 177H87.9062C65.7969 177 48 194.844 48 217V433.125C48 455.297 65.7969 473.125 87.9062 473.125H424.078C446.203 473.125 464 455.297 464 433.125V185C464 162.844 446.203 145 424.078 145H263.906Z" fill="url(#paint0_linear_5_20)"/>
<path d="M263.906 129C252.922 129 243 133.406 235.797 140.562C226.703 149.578 214.266 161 201.266 161H87.9062C65.7969 161 48 178.844 48 201V424.906C48 447.062 65.7969 464.906 87.9062 464.906H424.078C446.203 464.906 464 447.062 464 424.906V169C464 146.844 446.203 129 424.078 129H263.906Z" fill="#A4CAEE"/>
<path fill-rule="evenodd" clip-rule="evenodd" d="M254.952 364.46C254.659 364.118 253.838 362.864 253.127 361.673C251.394 358.77 250.811 358.779 248.023 361.76C245.953 363.974 245.023 364.435 244.362 363.578C244.179 363.34 243.604 361.979 243.085 360.554C241.701 356.752 241.261 356.635 237.894 359.184C234.386 361.84 233.937 361.587 233.163 356.52C232.646 353.14 232.205 352.965 228.516 354.685C226.09 355.817 225.644 355.925 225.04 355.53C224.42 355.124 224.357 354.752 224.44 351.982C224.52 349.31 224.441 348.807 223.874 348.292C223.25 347.728 223.068 347.734 220.433 348.406C216.996 349.284 216.669 349.286 216.213 348.434C215.938 347.921 216.04 347.027 216.624 344.823C217.376 341.982 217.381 341.872 216.768 341.194C216.197 340.564 215.851 340.516 213.237 340.7C208.851 341.01 208.446 340.362 210.49 336.304C211.519 334.261 211.643 333.774 211.316 333.056C210.982 332.322 210.564 332.158 208.12 331.801C203.398 331.11 203.194 330.704 205.816 327.222C208.37 323.829 208.236 323.313 204.442 321.95C200.134 320.401 200.018 319.942 203.218 317.115C206.336 314.36 206.317 313.684 203.064 311.718C201.741 310.919 200.481 310.051 200.264 309.79C199.552 308.932 200.234 308.075 202.87 306.512C206.289 304.485 206.323 303.957 203.218 301.021C201.98 299.85 200.967 298.661 200.967 298.379C200.967 297.696 202.133 296.969 204.584 296.126C208.187 294.886 208.324 294.308 205.816 290.924C203.221 287.423 203.405 287.034 207.953 286.397C211.948 285.838 212.178 285.412 210.453 281.779C209.778 280.357 209.277 278.833 209.339 278.391C209.448 277.623 209.611 277.58 213.054 277.415C217.593 277.196 217.617 277.167 216.596 273.097C215.522 268.815 215.865 268.529 220.604 269.76C222.84 270.341 223.171 270.354 223.84 269.885C224.533 269.4 224.569 269.175 224.347 266.666C223.934 262.009 224.493 261.566 228.462 263.4C232.286 265.166 232.848 264.844 233.364 260.592C233.836 256.702 234.61 256.454 238.095 259.071C241.202 261.405 241.862 261.267 242.901 258.07C244.418 253.406 245.064 253.216 248.187 256.512C250.99 259.471 251.464 259.409 253.542 255.806C254.358 254.391 255.236 253.152 255.494 253.053C256.269 252.756 257.238 253.693 258.646 256.101C260.578 259.404 261.16 259.45 263.822 256.514C265.893 254.23 267.071 253.66 267.712 254.632C267.866 254.866 268.392 256.22 268.88 257.641C269.605 259.749 269.937 260.282 270.683 260.53C271.475 260.794 271.909 260.6 273.916 259.08C276.063 257.455 277.569 256.913 278.001 257.612C278.098 257.77 278.343 258.978 278.543 260.296C278.744 261.614 278.988 263.042 279.084 263.467C279.386 264.797 280.636 264.769 283.712 263.362C286.337 262.163 286.575 262.113 287.154 262.637C287.687 263.119 287.756 263.638 287.632 266.237C287.507 268.871 287.573 269.352 288.131 269.856C288.735 270.4 288.961 270.391 291.752 269.711C296.173 268.634 296.386 268.865 295.292 273.543C294.466 277.072 294.582 277.198 298.82 277.415C303.271 277.642 303.38 277.805 301.614 281.568C299.776 285.485 299.955 285.823 304.162 286.398C306.649 286.738 307.391 286.97 307.674 287.498C308.088 288.272 308.082 288.285 305.864 291.317C303.632 294.369 303.783 294.789 307.643 296.243C311.782 297.802 311.847 298.076 308.768 300.977C305.597 303.964 305.619 304.456 309.013 306.472C310.297 307.234 311.54 308.091 311.776 308.375C312.461 309.2 311.739 310.079 309.075 311.662C305.651 313.695 305.621 314.068 308.649 316.978C310.006 318.283 311.117 319.471 311.117 319.619C311.117 320.361 309.996 321.092 307.537 321.952C303.759 323.274 303.638 323.713 306.105 327.151C307.147 328.604 308 329.92 308 330.077C308 330.858 306.707 331.415 304.004 331.799C300.006 332.366 299.836 332.713 301.624 336.626C303.382 340.472 303.27 340.63 298.788 340.63C295.417 340.63 295.373 340.64 295.055 341.541C294.829 342.181 294.903 343.134 295.304 344.73C296.423 349.183 296.082 349.538 291.752 348.432C287.791 347.421 287.502 347.636 287.575 351.541C287.647 355.386 287.665 355.272 286.914 355.674C286.411 355.943 285.655 355.726 283.534 354.7C281.313 353.626 280.656 353.444 280.018 353.729C279.178 354.104 279.089 354.35 278.574 357.724C278.22 360.041 277.773 360.894 276.912 360.894C276.625 360.894 275.305 360.089 273.978 359.106C270.819 356.763 270.133 356.919 269.017 360.234C267.463 364.844 267.073 364.961 263.967 361.744C261.083 358.757 260.635 358.801 258.488 362.279C256.794 365.024 255.905 365.572 254.952 364.46ZM262.509 349.984C265.912 349.432 270.677 348.047 272.691 347.024L273.927 346.397L274.52 342.485C275.458 336.3 275.868 335.996 281.924 337.006L286.004 337.687L287.332 336.223C289.958 333.33 290.468 333.529 280.463 333.529C270.63 333.529 269.921 333.404 268.43 331.401C267.304 329.888 266.608 327.909 265.707 323.657C264.736 319.077 263.829 316.743 262.409 315.171C260.753 313.338 259.338 313.044 252.751 313.164L247.209 313.266V317.076V320.886L251.972 320.982L256.735 321.078V327.303V333.528H239.762C230.427 333.528 222.789 333.655 222.789 333.809C222.789 333.963 223.529 334.894 224.434 335.878L226.079 337.668L230.136 336.987C236.186 335.972 236.545 336.24 237.522 342.494L238.138 346.437L240.249 347.376C246.461 350.14 255.219 351.166 262.509 349.983V349.984ZM233.207 346.026C233.957 345.276 234.22 344.685 234.22 343.748C234.22 341.953 232.692 340.457 230.859 340.457C229.249 340.457 228.228 341.111 227.647 342.515C226.247 345.894 230.594 348.639 233.207 346.026ZM283.532 346.125C284.79 344.867 284.821 342.533 283.595 341.307C281.6 339.312 277.864 340.903 277.864 343.748C277.864 346.629 281.502 348.155 283.532 346.125ZM229.37 307.377V293.695H225.733C223.446 293.695 222.096 293.829 222.096 294.055C222.096 294.253 222.411 295.032 222.796 295.786C224.081 298.306 223.419 299.205 218.34 301.835L214.995 303.567L214.72 305.299C214.235 308.352 214.829 315.654 215.896 319.76L216.234 321.059H222.802H229.37V307.377ZM290.741 319.792C291.903 318.74 292.446 317.326 292.658 314.798L292.859 312.4H295.071H297.282L297.185 308.027L297.089 303.654L293.304 301.643C289.693 299.726 288.643 298.789 288.614 297.457C288.607 297.145 289.474 295.197 290.54 293.128L292.477 289.366L291.839 288.164C290.619 285.866 287.299 281.73 284.581 279.119C279.762 274.49 273.952 271.112 267.692 269.298C266.005 268.809 264.365 268.409 264.048 268.409C263.731 268.409 262.307 269.589 260.883 271.032C257.912 274.042 256.742 274.776 255.39 274.479C254.832 274.357 253.242 273.065 251.526 271.34C249.922 269.728 248.351 268.409 248.035 268.409C246.824 268.409 241.199 270.246 238.417 271.549C234.611 273.332 230.437 276.17 227.638 278.875L225.387 281.052L248.768 281.236C271.946 281.418 272.167 281.426 274.227 282.199C282.065 285.138 286.278 292.928 283.723 299.756C282.941 301.848 280.061 305.26 278.008 306.529L276.819 307.264L278.246 308.879C280.175 311.062 281.542 313.503 282.363 316.225C282.784 317.621 283.419 318.849 284.013 319.419C285.724 321.057 289.134 321.246 290.741 319.792ZM264.144 301.18C265.826 300.477 266.78 299.304 266.78 297.937C266.78 296.292 266.284 295.545 264.603 294.659C263.218 293.929 262.73 293.888 255.176 293.878L247.209 293.868L247.111 297.765L247.013 301.662H255.002C261.039 301.662 263.273 301.544 264.144 301.18ZM216.85 298.743C219.353 297.449 219.077 293.546 216.422 292.669C214.022 291.877 211.893 293.362 211.893 295.828C211.893 296.971 212.1 297.414 213.017 298.233C214.256 299.341 215.401 299.493 216.85 298.743ZM299.02 298.225C300.801 296.444 300.269 293.614 297.975 292.664C294.596 291.265 291.851 295.612 294.464 298.225C295.214 298.974 295.805 299.237 296.742 299.237C297.679 299.237 298.271 298.974 299.02 298.225ZM258.507 268.545C259.924 267.263 259.505 264.139 257.793 263.223C255.573 262.035 252.578 263.689 252.578 266.104C252.578 267.518 253.919 269.336 255.101 269.526C256.157 269.695 257.741 269.239 258.507 268.545Z" fill="#428CE6" stroke="#428CE6" stroke-width="1.09116"/>
<defs>
<linearGradient id="paint0_linear_5_20" x1="47.9992" y1="448.998" x2="463.999" y2="448.998" gradientUnits="userSpaceOnUse">
<stop stop-color="#62A0EA"/>
<stop offset="0.0576991" stop-color="#AFD4FF"/>
<stop offset="0.122204" stop-color="#62A0EA"/>
<stop offset="0.873306" stop-color="#62A0EA"/>
<stop offset="0.955997" stop-color="#C0D5EA"/>
<stop offset="1" stop-color="#62A0EA"/>
</linearGradient>
</defs>
</svg>
