<svg width="512" height="513" viewBox="0 0 512 513" fill="none" xmlns="http://www.w3.org/2000/svg">
<path d="M87.9062 49C65.7969 49 48 66.8438 48 89V433.125C48 455.297 65.7969 473.125 87.9062 473.125H424.078C446.203 473.125 464 455.297 464 433.125V144.781C464 118.266 442.562 96.7812 416.109 96.7812H232C222.188 96.7812 213.219 91.2344 208.812 82.4531L202.797 70.4844C196.172 57.3125 182.719 49 168 49H87.9062Z" fill="#438DE6"/>
<path d="M263.906 145C252.922 145 243 149.406 235.797 156.562C226.703 165.578 214.266 177 201.266 177H87.9062C65.7969 177 48 194.844 48 217V433.125C48 455.297 65.7969 473.125 87.9062 473.125H424.078C446.203 473.125 464 455.297 464 433.125V185C464 162.844 446.203 145 424.078 145H263.906Z" fill="url(#paint0_linear_5_20)"/>
<path d="M263.906 129C252.922 129 243 133.406 235.797 140.562C226.703 149.578 214.266 161 201.266 161H87.9062C65.7969 161 48 178.844 48 201V424.906C48 447.062 65.7969 464.906 87.9062 464.906H424.078C446.203 464.906 464 447.062 464 424.906V169C464 146.844 446.203 129 424.078 129H263.906Z" fill="#A4CAEE"/>
<path fill-rule="evenodd" clip-rule="evenodd" d="M254.952 352.46C254.659 352.118 253.838 350.864 253.127 349.673C251.394 346.77 250.811 346.779 248.023 349.76C245.953 351.974 245.023 352.435 244.362 351.578C244.179 351.34 243.604 349.979 243.085 348.554C241.701 344.752 241.261 344.635 237.894 347.184C234.386 349.84 233.937 349.587 233.163 344.52C232.646 341.14 232.205 340.965 228.516 342.685C226.09 343.817 225.644 343.925 225.04 343.53C224.42 343.124 224.357 342.752 224.44 339.982C224.52 337.31 224.441 336.807 223.874 336.292C223.25 335.728 223.068 335.734 220.433 336.406C216.996 337.284 216.669 337.286 216.213 336.434C215.938 335.921 216.04 335.027 216.624 332.823C217.376 329.982 217.381 329.872 216.768 329.194C216.197 328.564 215.851 328.516 213.237 328.7C208.851 329.01 208.446 328.362 210.49 324.304C211.519 322.261 211.643 321.774 211.316 321.056C210.982 320.322 210.564 320.158 208.12 319.801C203.398 319.11 203.194 318.704 205.816 315.222C208.37 311.829 208.236 311.313 204.442 309.95C200.134 308.401 200.018 307.942 203.218 305.115C206.336 302.36 206.317 301.684 203.064 299.718C201.741 298.919 200.481 298.051 200.264 297.79C199.552 296.932 200.234 296.075 202.87 294.512C206.289 292.485 206.323 291.957 203.218 289.021C201.98 287.85 200.967 286.661 200.967 286.379C200.967 285.696 202.133 284.969 204.584 284.126C208.187 282.886 208.324 282.308 205.816 278.924C203.221 275.423 203.405 275.034 207.953 274.397C211.948 273.838 212.178 273.412 210.453 269.779C209.778 268.357 209.277 266.833 209.339 266.391C209.448 265.623 209.611 265.58 213.054 265.415C217.593 265.196 217.617 265.167 216.596 261.097C215.522 256.815 215.865 256.529 220.604 257.76C222.84 258.341 223.171 258.354 223.84 257.885C224.533 257.4 224.569 257.175 224.347 254.666C223.934 250.009 224.493 249.566 228.462 251.4C232.286 253.166 232.848 252.844 233.364 248.592C233.836 244.702 234.61 244.454 238.095 247.071C241.202 249.405 241.862 249.267 242.901 246.07C244.418 241.406 245.064 241.216 248.187 244.512C250.99 247.471 251.464 247.409 253.542 243.806C254.358 242.391 255.236 241.152 255.494 241.053C256.269 240.756 257.238 241.693 258.646 244.101C260.578 247.404 261.16 247.45 263.822 244.514C265.893 242.23 267.071 241.66 267.712 242.632C267.866 242.866 268.392 244.22 268.88 245.641C269.605 247.749 269.937 248.282 270.683 248.53C271.475 248.794 271.909 248.6 273.916 247.08C276.063 245.455 277.569 244.913 278.001 245.612C278.098 245.77 278.343 246.978 278.543 248.296C278.744 249.614 278.988 251.042 279.084 251.467C279.386 252.797 280.636 252.769 283.712 251.362C286.337 250.163 286.575 250.113 287.154 250.637C287.687 251.119 287.756 251.638 287.632 254.237C287.507 256.871 287.573 257.352 288.131 257.856C288.735 258.4 288.961 258.391 291.752 257.711C296.173 256.634 296.386 256.865 295.292 261.543C294.466 265.072 294.582 265.198 298.82 265.415C303.27 265.642 303.38 265.805 301.614 269.568C299.776 273.485 299.955 273.823 304.162 274.398C306.649 274.738 307.391 274.97 307.674 275.498C308.088 276.272 308.082 276.285 305.864 279.317C303.632 282.369 303.783 282.789 307.643 284.243C311.782 285.802 311.847 286.076 308.768 288.977C305.597 291.964 305.619 292.456 309.013 294.472C310.297 295.234 311.54 296.091 311.776 296.375C312.461 297.2 311.739 298.079 309.075 299.662C305.651 301.695 305.621 302.068 308.649 304.978C310.006 306.283 311.117 307.471 311.117 307.619C311.117 308.361 309.996 309.092 307.537 309.952C303.759 311.274 303.638 311.713 306.105 315.151C307.147 316.604 308 317.92 308 318.077C308 318.858 306.707 319.415 304.004 319.799C300.006 320.366 299.836 320.713 301.624 324.626C303.382 328.472 303.27 328.63 298.788 328.63C295.417 328.63 295.373 328.64 295.055 329.541C294.829 330.181 294.903 331.134 295.304 332.73C296.423 337.183 296.082 337.538 291.752 336.432C287.791 335.421 287.502 335.636 287.575 339.541C287.647 343.386 287.665 343.272 286.914 343.674C286.411 343.943 285.655 343.726 283.534 342.7C281.313 341.626 280.656 341.444 280.018 341.729C279.178 342.104 279.089 342.35 278.574 345.724C278.22 348.041 277.773 348.894 276.912 348.894C276.625 348.894 275.305 348.089 273.978 347.106C270.819 344.763 270.133 344.919 269.017 348.234C267.463 352.844 267.073 352.961 263.967 349.744C261.083 346.757 260.635 346.801 258.488 350.279C256.794 353.024 255.905 353.572 254.952 352.46ZM262.509 337.984C265.912 337.432 270.677 336.047 272.691 335.024L273.927 334.397L274.52 330.485C275.458 324.3 275.868 323.996 281.924 325.006L286.004 325.687L287.332 324.223C289.958 321.33 290.468 321.529 280.463 321.529C270.63 321.529 269.921 321.404 268.43 319.401C267.304 317.888 266.608 315.909 265.707 311.657C264.736 307.077 263.829 304.743 262.409 303.171C260.753 301.338 259.338 301.044 252.751 301.164L247.209 301.266V305.076V308.886L251.972 308.982L256.735 309.078V315.303V321.528H239.762C230.427 321.528 222.789 321.655 222.789 321.809C222.789 321.963 223.529 322.894 224.434 323.878L226.079 325.668L230.136 324.987C236.186 323.972 236.545 324.24 237.522 330.494L238.138 334.437L240.249 335.376C246.461 338.14 255.219 339.166 262.509 337.983V337.984ZM233.207 334.026C233.957 333.276 234.22 332.685 234.22 331.748C234.22 329.953 232.692 328.457 230.859 328.457C229.249 328.457 228.228 329.111 227.647 330.515C226.247 333.894 230.594 336.639 233.207 334.026ZM283.532 334.125C284.79 332.867 284.821 330.533 283.595 329.307C281.6 327.312 277.864 328.903 277.864 331.748C277.864 334.629 281.502 336.155 283.532 334.125ZM229.37 295.377V281.695H225.733C223.446 281.695 222.096 281.829 222.096 282.055C222.096 282.253 222.411 283.032 222.796 283.786C224.081 286.306 223.419 287.205 218.34 289.835L214.995 291.567L214.72 293.299C214.235 296.352 214.829 303.654 215.896 307.76L216.234 309.059H222.802H229.37V295.377ZM290.741 307.792C291.903 306.74 292.446 305.326 292.658 302.798L292.859 300.4H295.071H297.282L297.185 296.027L297.089 291.654L293.304 289.643C289.693 287.726 288.643 286.789 288.614 285.457C288.607 285.145 289.474 283.197 290.54 281.128L292.477 277.366L291.839 276.164C290.619 273.866 287.299 269.73 284.581 267.119C279.762 262.49 273.952 259.112 267.692 257.298C266.005 256.809 264.365 256.409 264.048 256.409C263.731 256.409 262.307 257.589 260.883 259.032C257.912 262.042 256.742 262.776 255.39 262.479C254.832 262.357 253.242 261.065 251.526 259.34C249.922 257.728 248.351 256.409 248.035 256.409C246.824 256.409 241.199 258.246 238.417 259.549C234.611 261.332 230.437 264.17 227.638 266.875L225.387 269.052L248.768 269.236C271.946 269.418 272.167 269.426 274.227 270.199C282.065 273.138 286.278 280.928 283.723 287.756C282.941 289.848 280.061 293.26 278.008 294.529L276.819 295.264L278.246 296.879C280.175 299.062 281.542 301.503 282.363 304.225C282.784 305.621 283.419 306.849 284.013 307.419C285.724 309.057 289.134 309.246 290.741 307.792ZM264.144 289.18C265.826 288.477 266.78 287.304 266.78 285.937C266.78 284.292 266.284 283.545 264.603 282.659C263.218 281.929 262.73 281.888 255.176 281.878L247.209 281.868L247.111 285.765L247.013 289.662H255.002C261.039 289.662 263.273 289.544 264.144 289.18ZM216.85 286.743C219.353 285.449 219.077 281.546 216.422 280.669C214.022 279.877 211.893 281.362 211.893 283.828C211.893 284.971 212.1 285.414 213.017 286.233C214.256 287.341 215.401 287.493 216.85 286.743ZM299.02 286.225C300.801 284.444 300.269 281.614 297.975 280.664C294.596 279.265 291.851 283.612 294.464 286.225C295.214 286.974 295.805 287.237 296.742 287.237C297.679 287.237 298.271 286.974 299.02 286.225ZM258.507 256.545C259.924 255.263 259.505 252.139 257.793 251.223C255.573 250.035 252.578 251.689 252.578 254.104C252.578 255.518 253.919 257.336 255.101 257.526C256.157 257.695 257.741 257.239 258.507 256.545Z" fill="#428CE6" stroke="#428CE6" stroke-width="1.09116"/>
<defs>
<linearGradient id="paint0_linear_5_20" x1="47.9992" y1="448.998" x2="463.999" y2="448.998" gradientUnits="userSpaceOnUse">
<stop stop-color="#62A0EA"/>
<stop offset="0.0576991" stop-color="#AFD4FF"/>
<stop offset="0.122204" stop-color="#62A0EA"/>
<stop offset="0.873306" stop-color="#62A0EA"/>
<stop offset="0.955997" stop-color="#C0D5EA"/>
<stop offset="1" stop-color="#62A0EA"/>
</linearGradient>
</defs>
</svg>
