<svg width="512" height="513" viewBox="0 0 512 513" fill="none" xmlns="http://www.w3.org/2000/svg">
<path d="M87.9061 49C65.7968 49 47.9999 66.8438 47.9999 89V433.125C47.9999 455.297 65.7968 473.125 87.9061 473.125H424.078C446.203 473.125 464 455.297 464 433.125V144.781C464 118.266 442.562 96.7812 416.109 96.7812H232C222.187 96.7812 213.219 91.2344 208.812 82.4531L202.797 70.4844C196.172 57.3125 182.719 49 168 49H87.9061Z" fill="#438DE6"/>
<path d="M263.906 145C252.922 145 243 149.406 235.797 156.562C226.703 165.578 214.266 177 201.266 177H87.9061C65.7968 177 47.9999 194.844 47.9999 217V433.125C47.9999 455.297 65.7968 473.125 87.9061 473.125H424.078C446.203 473.125 464 455.297 464 433.125V185C464 162.844 446.203 145 424.078 145H263.906Z" fill="url(#paint0_linear_5_21)"/>
<path d="M263.906 129C252.922 129 243 133.406 235.797 140.562C226.703 149.578 214.266 161 201.266 161H87.9061C65.7968 161 47.9999 178.844 47.9999 201V424.906C47.9999 447.062 65.7968 464.906 87.9061 464.906H424.078C446.203 464.906 464 447.062 464 424.906V169C464 146.844 446.203 129 424.078 129H263.906Z" fill="#A4CAEE"/>
<path d="M187.824 224C186.351 224 185.253 225.201 185.384 226.668L197.804 365.98C197.935 367.447 199.203 368.97 200.623 369.364L253.328 383.998C254.747 384.392 257.07 384.392 258.49 383.999L311.355 369.341C312.775 368.948 314.044 367.425 314.175 365.958L326.615 226.668C326.747 225.201 325.649 224 324.175 224H187.824ZM300.165 255.951C300.048 257.26 299.845 259.532 299.714 260.999L299.387 264.654C299.255 266.121 299.068 268.219 298.969 269.315C298.87 270.412 298.776 271.31 298.759 271.31C298.743 271.31 297.523 271.31 296.05 271.31H258.678C257.205 271.31 255.987 271.31 255.971 271.31C255.955 271.31 254.737 271.31 253.263 271.31H233.581C232.108 271.31 231.01 272.51 231.141 273.978L232.289 286.811C232.42 288.278 233.733 289.479 235.206 289.479H253.264C254.737 289.479 255.956 289.479 255.972 289.479C255.988 289.479 257.206 289.479 258.679 289.479H289.718C291.191 289.479 293.471 289.479 294.784 289.479C296.096 289.479 297.073 290.55 296.954 291.858C296.835 293.167 296.631 295.44 296.5 296.906L292.808 338.279C292.677 339.746 292.51 341.621 292.438 342.445C292.365 343.268 291.144 344.264 289.724 344.658L258.581 353.293C257.162 353.686 255.982 354.012 255.96 354.017C255.938 354.021 254.759 353.703 253.339 353.309L222.163 344.658C220.743 344.264 219.475 342.741 219.344 341.274L217.337 318.75C217.206 317.282 218.305 316.082 219.778 316.082H222.624C224.097 316.082 226.507 316.082 227.981 316.082H232.224C233.697 316.082 235.009 317.282 235.141 318.75L235.928 327.567C236.058 329.035 237.328 330.549 238.751 330.933L253.334 334.871C254.756 335.255 255.925 335.57 255.931 335.57C255.938 335.57 257.106 335.255 258.528 334.871L273.137 330.923C274.559 330.539 275.83 329.024 275.962 327.557L277.546 309.891C277.678 308.424 276.58 307.223 275.107 307.223H258.679C257.206 307.223 255.988 307.223 255.972 307.223C255.956 307.223 254.737 307.223 253.264 307.223H218.984C217.511 307.223 216.199 306.022 216.068 304.555L212.181 260.998C212.05 259.531 211.847 257.26 211.73 255.95C211.613 254.641 212.723 253.571 214.196 253.571H253.264C254.737 253.571 255.956 253.571 255.972 253.571C255.988 253.571 257.206 253.571 258.679 253.571H297.7C299.172 253.571 300.282 254.641 300.165 255.951Z" fill="#428CE6"/>
<defs>
<linearGradient id="paint0_linear_5_21" x1="47.999" y1="448.998" x2="463.999" y2="448.998" gradientUnits="userSpaceOnUse">
<stop stop-color="#62A0EA"/>
<stop offset="0.0576991" stop-color="#AFD4FF"/>
<stop offset="0.122204" stop-color="#62A0EA"/>
<stop offset="0.873306" stop-color="#62A0EA"/>
<stop offset="0.955997" stop-color="#C0D5EA"/>
<stop offset="1" stop-color="#62A0EA"/>
</linearGradient>
</defs>
</svg>
