<svg width="512" height="513" viewBox="0 0 512 513" fill="none" xmlns="http://www.w3.org/2000/svg">
<path d="M87.9061 49C65.7968 49 47.9999 66.8438 47.9999 89V433.125C47.9999 455.297 65.7968 473.125 87.9061 473.125H424.078C446.203 473.125 464 455.297 464 433.125V144.781C464 118.266 442.562 96.7812 416.109 96.7812H232C222.187 96.7812 213.219 91.2344 208.812 82.4531L202.797 70.4844C196.172 57.3125 182.719 49 168 49H87.9061Z" fill="#438DE6"/>
<path d="M263.906 145C252.922 145 243 149.406 235.797 156.562C226.703 165.578 214.266 177 201.266 177H87.9061C65.7968 177 47.9999 194.844 47.9999 217V433.125C47.9999 455.297 65.7968 473.125 87.9061 473.125H424.078C446.203 473.125 464 455.297 464 433.125V185C464 162.844 446.203 145 424.078 145H263.906Z" fill="url(#paint0_linear_5_21)"/>
<path d="M263.906 129C252.922 129 243 133.406 235.797 140.562C226.703 149.578 214.266 161 201.266 161H87.9061C65.7968 161 47.9999 178.844 47.9999 201V424.906C47.9999 447.062 65.7968 464.906 87.9061 464.906H424.078C446.203 464.906 464 447.062 464 424.906V169C464 146.844 446.203 129 424.078 129H263.906Z" fill="#A4CAEE"/>
<path d="M201.943 233C200.775 233 199.905 233.952 200.008 235.115L209.856 345.577C209.96 346.74 210.965 347.948 212.091 348.26L253.881 359.863C255.007 360.176 256.849 360.176 257.975 359.864L299.891 348.242C301.017 347.93 302.024 346.722 302.127 345.559L311.991 235.115C312.096 233.952 311.225 233 310.057 233H201.943ZM291.019 258.334C290.926 259.372 290.765 261.173 290.661 262.337L290.402 265.235C290.297 266.398 290.149 268.061 290.07 268.931C289.992 269.801 289.918 270.512 289.904 270.512C289.891 270.512 288.924 270.512 287.756 270.512H258.124C256.956 270.512 255.99 270.512 255.977 270.512C255.965 270.512 254.998 270.512 253.83 270.512H238.224C237.056 270.512 236.186 271.464 236.289 272.628L237.199 282.803C237.303 283.966 238.344 284.918 239.512 284.918H253.831C254.999 284.918 255.965 284.918 255.978 284.918C255.991 284.918 256.956 284.918 258.124 284.918H282.735C283.903 284.918 285.711 284.918 286.752 284.918C287.793 284.918 288.567 285.768 288.473 286.805C288.378 287.843 288.216 289.645 288.113 290.808L285.186 323.612C285.081 324.776 284.949 326.262 284.892 326.915C284.834 327.568 283.866 328.358 282.74 328.67L258.047 335.517C256.921 335.829 255.986 336.087 255.969 336.091C255.951 336.095 255.016 335.842 253.89 335.53L229.17 328.671C228.045 328.358 227.039 327.151 226.935 325.987L225.344 308.128C225.24 306.964 226.112 306.012 227.28 306.012H229.536C230.704 306.012 232.615 306.012 233.783 306.012H237.148C238.316 306.012 239.356 306.964 239.461 308.128L240.085 315.119C240.188 316.282 241.195 317.483 242.323 317.788L253.886 320.91C255.014 321.215 255.94 321.464 255.946 321.464C255.951 321.464 256.877 321.214 258.005 320.91L269.588 317.78C270.716 317.475 271.724 316.274 271.828 315.111L273.084 301.104C273.189 299.94 272.318 298.988 271.15 298.988H258.124C256.956 298.988 255.991 298.988 255.978 298.988C255.965 298.988 254.999 298.988 253.831 298.988H226.65C225.482 298.988 224.441 298.036 224.338 296.873L221.256 262.336C221.152 261.173 220.991 259.372 220.898 258.334C220.806 257.296 221.685 256.447 222.854 256.447H253.831C254.999 256.447 255.965 256.447 255.978 256.447C255.991 256.447 256.956 256.447 258.124 256.447H289.064C290.232 256.447 291.112 257.296 291.019 258.334Z" fill="#428CE6"/>
<defs>
<linearGradient id="paint0_linear_5_21" x1="47.999" y1="448.998" x2="463.999" y2="448.998" gradientUnits="userSpaceOnUse">
<stop stop-color="#62A0EA"/>
<stop offset="0.0576991" stop-color="#AFD4FF"/>
<stop offset="0.122204" stop-color="#62A0EA"/>
<stop offset="0.873306" stop-color="#62A0EA"/>
<stop offset="0.955997" stop-color="#C0D5EA"/>
<stop offset="1" stop-color="#62A0EA"/>
</linearGradient>
</defs>
</svg>
