<svg width="600" height="600" viewBox="0 0 600 600" fill="none" xmlns="http://www.w3.org/2000/svg">
<path d="M93.9061 105C71.7968 105 53.9999 122.844 53.9999 145V489.125C53.9999 511.297 71.7968 529.125 93.9061 529.125H430.078C452.203 529.125 470 511.297 470 489.125V200.781C470 174.266 448.562 152.781 422.109 152.781H238C228.187 152.781 219.219 147.234 214.812 138.453L208.797 126.484C202.172 113.312 188.719 105 174 105H93.9061Z" fill="#438DE6"/>
<path d="M269.906 201C258.922 201 249 205.406 241.797 212.562C232.703 221.578 220.266 233 207.266 233H93.9061C71.7968 233 53.9999 250.844 53.9999 273V489.125C53.9999 511.297 71.7968 529.125 93.9061 529.125H430.078C452.203 529.125 470 511.297 470 489.125V241C470 218.844 452.203 201 430.078 201H269.906Z" fill="url(#paint0_linear_2_602)"/>
<path d="M269.906 185C258.922 185 249 189.406 241.797 196.562C232.703 205.578 220.266 217 207.266 217H93.9061C71.7968 217 53.9999 234.844 53.9999 257V480.906C53.9999 503.063 71.7968 520.906 93.9061 520.906H430.078C452.203 520.906 470 503.063 470 480.906V225C470 202.844 452.203 185 430.078 185H269.906Z" fill="#A4CAEE"/>
<path d="M558.241 93C556.168 93 554.5 94.6729 554.5 96.75V129.012C554.5 131.09 556.168 132.762 558.241 132.762H589.757C591.832 132.762 593.5 131.09 593.5 129.012V101.979C593.5 99.4937 591.49 97.4795 589.01 97.4795H571.75C570.83 97.4795 569.989 96.9595 569.576 96.1362L569.012 95.0142C568.391 93.7793 567.13 93 565.75 93H558.241Z" fill="#438DE6"/>
<path d="M574.741 101C573.711 101 572.781 101.413 572.106 102.084C571.253 102.929 570.087 104 568.869 104H558.241C556.168 104 554.5 105.673 554.5 107.75V128.741C554.5 130.818 556.168 132.491 558.241 132.491H589.757C591.832 132.491 593.5 130.818 593.5 128.741V104.75C593.5 102.673 591.832 101 589.757 101H574.741Z" fill="#A4CAEE"/>
<path d="M251.58 292.854L165.948 339.187L251.994 393.379L328.784 346.633H331.524V384.64C331.471 385.053 331.418 385.519 331.418 385.984C331.418 386.449 331.471 386.915 331.524 387.381V399.481C331.886 408.685 337.368 415.511 342.125 420.061C346.882 424.56 351.588 427.146 351.588 427.146L358.052 415.563C358.052 415.563 354.691 413.701 351.226 410.443C347.865 407.237 345.124 403.152 344.814 399.274C352.105 399.221 358 393.276 358 385.984C357.947 378.642 352.053 372.695 344.762 372.695V333.395H327.336L251.58 292.854ZM251.993 332.981C259.285 332.981 265.231 335.929 265.231 339.6C265.231 343.272 259.285 346.219 251.993 346.219C244.702 346.219 238.756 343.272 238.756 339.6C238.756 335.929 244.702 332.981 251.993 332.981ZM199.456 378.28C199.301 379.468 199.043 380.658 199.043 381.899C199.043 406.048 222.726 425.646 251.994 425.646C281.262 425.646 304.945 406.048 304.945 381.899C304.945 380.969 304.584 380.089 304.532 379.159L251.995 412.408L199.456 378.28Z" fill="#428CE6"/>
<path d="M572.918 110.995L564.005 115.817L572.961 121.457L580.954 116.592H581.239V120.548C581.234 120.591 581.228 120.639 581.228 120.688C581.228 120.736 581.233 120.785 581.239 120.833V122.092C581.277 123.05 581.847 123.761 582.342 124.235C582.837 124.703 583.327 124.972 583.327 124.972L584 123.766C584 123.766 583.65 123.573 583.29 123.233C582.94 122.9 582.654 122.475 582.622 122.071C583.381 122.066 583.995 121.447 583.995 120.688C583.99 119.923 583.376 119.305 582.617 119.305V115.214H580.803L572.918 110.995ZM572.961 115.171C573.72 115.171 574.339 115.478 574.339 115.86C574.339 116.242 573.72 116.549 572.961 116.549C572.202 116.549 571.583 116.242 571.583 115.86C571.583 115.478 572.202 115.171 572.961 115.171ZM567.493 119.886C567.477 120.01 567.45 120.133 567.45 120.263C567.45 122.776 569.915 124.816 572.961 124.816C576.008 124.816 578.473 122.776 578.473 120.263C578.473 120.166 578.435 120.074 578.43 119.977L572.961 123.438L567.493 119.886Z" fill="#428CE6"/>
<defs>
<linearGradient id="paint0_linear_2_602" x1="53.999" y1="504.998" x2="469.999" y2="504.998" gradientUnits="userSpaceOnUse">
<stop stop-color="#62A0EA"/>
<stop offset="0.0576991" stop-color="#AFD4FF"/>
<stop offset="0.122204" stop-color="#62A0EA"/>
<stop offset="0.873306" stop-color="#62A0EA"/>
<stop offset="0.955997" stop-color="#C0D5EA"/>
<stop offset="1" stop-color="#62A0EA"/>
</linearGradient>
</defs>
</svg>
