<svg width="512" height="513" viewBox="0 0 512 513" fill="none" xmlns="http://www.w3.org/2000/svg">
<path d="M87.9061 49C65.7968 49 47.9999 66.8438 47.9999 89V433.125C47.9999 455.297 65.7968 473.125 87.9061 473.125H424.078C446.203 473.125 464 455.297 464 433.125V144.781C464 118.266 442.562 96.7812 416.109 96.7812H232C222.187 96.7812 213.219 91.2344 208.812 82.4531L202.797 70.4844C196.172 57.3125 182.719 49 168 49H87.9061Z" fill="#438DE6"/>
<path d="M263.906 145C252.922 145 243 149.406 235.797 156.562C226.703 165.578 214.266 177 201.266 177H87.9061C65.7968 177 47.9999 194.844 47.9999 217V433.125C47.9999 455.297 65.7968 473.125 87.9061 473.125H424.078C446.203 473.125 464 455.297 464 433.125V185C464 162.844 446.203 145 424.078 145H263.906Z" fill="url(#paint0_linear_5_14)"/>
<path d="M263.906 129C252.922 129 243 133.406 235.797 140.562C226.703 149.578 214.266 161 201.266 161H87.9061C65.7968 161 47.9999 178.844 47.9999 201V424.906C47.9999 447.062 65.7968 464.906 87.9061 464.906H424.078C446.203 464.906 464 447.062 464 424.906V169C464 146.844 446.203 129 424.078 129H263.906Z" fill="#A4CAEE"/>
<path d="M247.418 241L176 279.642L247.763 324.838L311.806 285.852H314.092V317.55C314.048 317.894 314.003 318.283 314.003 318.671C314.003 319.059 314.048 319.447 314.092 319.836V329.927C314.393 337.604 318.965 343.297 322.933 347.092C326.9 350.844 330.825 353 330.825 353L336.216 343.34C336.216 343.34 333.413 341.787 330.523 339.07C327.72 336.396 325.434 332.989 325.175 329.755C331.256 329.71 336.173 324.752 336.173 318.671C336.128 312.547 331.213 307.588 325.132 307.588V274.811H310.598L247.418 241ZM247.762 274.466C253.843 274.466 258.803 276.925 258.803 279.987C258.803 283.048 253.843 285.507 247.762 285.507C241.681 285.507 236.722 283.048 236.722 279.987C236.722 276.925 241.681 274.466 247.762 274.466ZM203.946 312.245C203.816 313.237 203.601 314.229 203.601 315.264C203.601 335.404 223.353 351.749 247.763 351.749C272.173 351.749 291.925 335.404 291.925 315.264C291.925 314.488 291.623 313.755 291.58 312.978L247.763 340.709L203.946 312.245Z" fill="#428CE6"/>
<defs>
<linearGradient id="paint0_linear_5_14" x1="47.999" y1="448.998" x2="463.999" y2="448.998" gradientUnits="userSpaceOnUse">
<stop stop-color="#62A0EA"/>
<stop offset="0.0576991" stop-color="#AFD4FF"/>
<stop offset="0.122204" stop-color="#62A0EA"/>
<stop offset="0.873306" stop-color="#62A0EA"/>
<stop offset="0.955997" stop-color="#C0D5EA"/>
<stop offset="1" stop-color="#62A0EA"/>
</linearGradient>
</defs>
</svg>
