<svg width="512" height="513" viewBox="0 0 512 513" fill="none" xmlns="http://www.w3.org/2000/svg">
<path d="M87.9061 49C65.7968 49 47.9999 66.8438 47.9999 89V433.125C47.9999 455.297 65.7968 473.125 87.9061 473.125H424.078C446.203 473.125 464 455.297 464 433.125V144.781C464 118.266 442.562 96.7812 416.109 96.7812H232C222.187 96.7812 213.219 91.2344 208.812 82.4531L202.797 70.4844C196.172 57.3125 182.719 49 168 49H87.9061Z" fill="#438DE6"/>
<path d="M263.906 145C252.922 145 243 149.406 235.797 156.562C226.703 165.578 214.266 177 201.266 177H87.9061C65.7968 177 47.9999 194.844 47.9999 217V433.125C47.9999 455.297 65.7968 473.125 87.9061 473.125H424.078C446.203 473.125 464 455.297 464 433.125V185C464 162.844 446.203 145 424.078 145H263.906Z" fill="url(#paint0_linear_5_14)"/>
<path d="M263.906 129C252.922 129 243 133.406 235.797 140.562C226.703 149.578 214.266 161 201.266 161H87.9061C65.7968 161 47.9999 178.844 47.9999 201V424.906C47.9999 447.062 65.7968 464.906 87.9061 464.906H424.078C446.203 464.906 464 447.062 464 424.906V169C464 146.844 446.203 129 424.078 129H263.906Z" fill="#A4CAEE"/>
<path d="M245.58 236.854L159.948 283.187L245.994 337.379L322.784 290.633H325.524V328.64C325.471 329.053 325.418 329.519 325.418 329.984C325.418 330.449 325.471 330.915 325.524 331.381V343.481C325.886 352.685 331.368 359.511 336.125 364.061C340.882 368.56 345.588 371.146 345.588 371.146L352.052 359.563C352.052 359.563 348.691 357.701 345.226 354.443C341.865 351.237 339.124 347.152 338.814 343.274C346.105 343.221 352 337.276 352 329.984C351.947 322.642 346.053 316.695 338.762 316.695V277.395H321.336L245.58 236.854ZM245.993 276.981C253.285 276.981 259.231 279.929 259.231 283.6C259.231 287.272 253.285 290.219 245.993 290.219C238.702 290.219 232.756 287.272 232.756 283.6C232.756 279.929 238.702 276.981 245.993 276.981ZM193.456 322.28C193.301 323.468 193.043 324.658 193.043 325.899C193.043 350.048 216.726 369.646 245.994 369.646C275.262 369.646 298.945 350.048 298.945 325.899C298.945 324.969 298.584 324.089 298.532 323.159L245.995 356.408L193.456 322.28Z" fill="#428CE6"/>
<defs>
<linearGradient id="paint0_linear_5_14" x1="47.999" y1="448.998" x2="463.999" y2="448.998" gradientUnits="userSpaceOnUse">
<stop stop-color="#62A0EA"/>
<stop offset="0.0576991" stop-color="#AFD4FF"/>
<stop offset="0.122204" stop-color="#62A0EA"/>
<stop offset="0.873306" stop-color="#62A0EA"/>
<stop offset="0.955997" stop-color="#C0D5EA"/>
<stop offset="1" stop-color="#62A0EA"/>
</linearGradient>
</defs>
</svg>
