<svg width="600" height="600" viewBox="0 0 600 600" fill="none" xmlns="http://www.w3.org/2000/svg">
<path d="M93.9061 105C71.7968 105 53.9999 122.844 53.9999 145V489.125C53.9999 511.297 71.7968 529.125 93.9061 529.125H430.078C452.203 529.125 470 511.297 470 489.125V200.781C470 174.266 448.562 152.781 422.109 152.781H238C228.187 152.781 219.219 147.234 214.812 138.453L208.797 126.484C202.172 113.312 188.719 105 174 105H93.9061Z" fill="#438DE6"/>
<path d="M269.906 201C258.922 201 249 205.406 241.797 212.562C232.703 221.578 220.266 233 207.266 233H93.9061C71.7968 233 53.9999 250.844 53.9999 273V489.125C53.9999 511.297 71.7968 529.125 93.9061 529.125H430.078C452.203 529.125 470 511.297 470 489.125V241C470 218.844 452.203 201 430.078 201H269.906Z" fill="url(#paint0_linear_2_882)"/>
<path d="M269.906 185C258.922 185 249 189.406 241.797 196.562C232.703 205.578 220.266 217 207.266 217H93.9061C71.7968 217 53.9999 234.844 53.9999 257V480.906C53.9999 503.063 71.7968 520.906 93.9061 520.906H430.078C452.203 520.906 470 503.063 470 480.906V225C470 202.844 452.203 185 430.078 185H269.906Z" fill="#A4CAEE"/>
<path d="M558.241 93C556.168 93 554.5 94.6729 554.5 96.75V129.012C554.5 131.09 556.168 132.762 558.241 132.762H589.757C591.831 132.762 593.5 131.09 593.5 129.012V101.979C593.5 99.4937 591.49 97.4795 589.01 97.4795H571.75C570.83 97.4795 569.989 96.9595 569.576 96.1362L569.012 95.0142C568.391 93.7793 567.13 93 565.75 93H558.241Z" fill="#438DE6"/>
<path d="M574.741 101C573.711 101 572.781 101.413 572.106 102.084C571.253 102.929 570.087 104 568.869 104H558.241C556.168 104 554.5 105.673 554.5 107.75V128.741C554.5 130.818 556.168 132.491 558.241 132.491H589.757C591.831 132.491 593.5 130.818 593.5 128.741V104.75C593.5 102.673 591.831 101 589.757 101H574.741Z" fill="#A4CAEE"/>
<path d="M332.843 280H191.157C186.1 280 181.999 284.1 181.999 289.158V430.842C181.999 435.9 186.1 440 191.157 440H332.843C337.9 440 342 435.9 342 430.842V289.158C342 284.1 337.9 280 332.843 280Z" fill="#428CE6" stroke="#428CE6" stroke-width="4.10256" stroke-linecap="round" stroke-linejoin="round"/>
<path opacity="0.05" d="M249.692 286.159C248.595 286.151 247.508 286.361 246.493 286.777C245.479 287.193 244.557 287.807 243.781 288.582C243.006 289.357 242.392 290.279 241.976 291.294C241.56 292.309 241.35 293.396 241.358 294.492V310.774H236.615C235.008 310.767 233.433 311.227 232.084 312.1C230.734 312.972 229.668 314.219 229.015 315.687C228.362 317.156 228.151 318.783 228.408 320.369C228.665 321.956 229.378 323.433 230.461 324.621L251.23 348.21C250.971 348.665 250.497 349.22 250.333 349.621C249.529 351.583 249.307 353.053 249.307 354.621V355.134L248.923 354.749C247.781 353.608 246.464 352.596 244.435 351.8C243.421 351.402 242.247 351.074 240.461 351.159C238.675 351.244 236.137 352.022 234.435 353.723L228.153 360.005C226.452 361.707 225.674 364.245 225.589 366.031C225.504 367.817 225.832 368.991 226.23 370.005C227.026 372.034 228.038 373.351 229.179 374.493L229.564 374.877H229.051C227.483 374.877 226.013 375.099 224.051 375.903C223.07 376.305 221.842 376.785 220.589 378.082C219.336 379.38 218.025 381.835 218.025 384.364V393.339C218.025 395.868 219.336 398.323 220.589 399.621C221.842 400.918 223.07 401.398 224.051 401.8C226.013 402.604 227.483 402.826 229.051 402.826H229.564L229.179 403.21C228.038 404.352 227.026 405.669 226.23 407.697C225.832 408.712 225.504 409.885 225.589 411.672C225.674 413.458 226.452 415.996 228.153 417.697L234.435 423.98C236.137 425.681 238.675 426.459 240.461 426.544C242.247 426.629 243.421 426.3 244.435 425.903C246.464 425.107 247.781 424.095 248.923 422.954L249.307 422.569V423.082C249.307 424.65 249.529 426.12 250.333 428.082C250.735 429.063 251.215 430.291 252.512 431.544C253.81 432.797 256.265 434.108 258.794 434.108H267.769C270.298 434.108 272.753 432.797 274.051 431.544C275.348 430.291 275.828 429.063 276.23 428.082C277.034 426.12 277.256 424.65 277.256 423.082V422.569L277.64 422.954C278.782 424.095 280.099 425.107 282.128 425.903C283.142 426.3 284.316 426.629 286.102 426.544C287.888 426.458 290.426 425.681 292.128 423.98L298.41 417.697C300.111 415.996 300.889 413.458 300.974 411.672C301.059 409.885 300.731 408.712 300.333 407.697C299.537 405.669 298.525 404.352 297.384 403.21L296.999 402.826H297.512C299.08 402.826 300.55 402.604 302.512 401.8C303.493 401.398 304.721 400.918 305.974 399.621C307.227 398.323 308.538 395.868 308.538 393.339V384.364C308.538 381.835 307.227 379.38 305.974 378.082C304.721 376.785 303.493 376.305 302.512 375.903C300.55 375.099 299.08 374.877 297.512 374.877H296.999L297.384 374.493C298.525 373.351 299.537 372.034 300.333 370.005C300.731 368.991 301.059 367.817 300.974 366.031C300.889 364.245 300.111 361.707 298.41 360.005L292.128 353.723C290.426 352.022 287.888 351.244 286.102 351.159C284.315 351.074 283.142 351.402 282.128 351.8C280.099 352.596 278.782 353.608 277.64 354.749L277.256 355.134V354.621C277.256 353.053 277.034 351.583 276.23 349.621C275.856 348.708 275.294 347.569 274.179 346.416L293.538 324.621C294.621 323.433 295.334 321.956 295.591 320.369C295.848 318.783 295.637 317.156 294.984 315.687C294.331 314.219 293.265 312.972 291.915 312.1C290.566 311.227 288.991 310.767 287.384 310.774H282.64V294.492C282.649 293.396 282.438 292.309 282.023 291.294C281.607 290.279 280.993 289.357 280.218 288.582C279.442 287.807 278.52 287.193 277.506 286.777C276.491 286.361 275.404 286.151 274.307 286.159H249.692ZM263.281 385.775C265.034 385.775 266.358 387.099 266.358 388.851C266.358 390.604 265.034 391.928 263.281 391.928C261.529 391.928 260.205 390.604 260.205 388.851C260.205 387.099 261.529 385.775 263.281 385.775Z" fill="black"/>
<path opacity="0.05" d="M249.307 290.518C248.319 290.61 247.402 291.069 246.737 291.805C246.072 292.541 245.708 293.501 245.717 294.493V315.134H236.615C235.861 315.142 235.126 315.366 234.495 315.778C233.864 316.191 233.364 316.775 233.054 317.462C232.744 318.149 232.637 318.91 232.746 319.656C232.854 320.402 233.174 321.102 233.666 321.672L257.384 348.467C256.733 348.72 255.982 348.857 255.589 349.236C254.895 349.906 254.551 350.563 254.307 351.159C253.819 352.352 253.666 353.484 253.666 354.621V361.416C252.638 361.784 251.685 362.225 250.717 362.698L245.846 357.826C245.027 357.007 244.117 356.381 242.897 355.903C242.287 355.663 241.544 355.473 240.589 355.518C239.634 355.564 238.391 355.922 237.512 356.8L231.23 363.082C230.352 363.961 229.994 365.204 229.948 366.159C229.903 367.115 230.094 367.857 230.333 368.467C230.811 369.687 231.437 370.597 232.256 371.416L237.128 376.287C236.655 377.255 236.214 378.208 235.846 379.236H229.051C227.914 379.236 226.782 379.389 225.589 379.877C224.993 380.122 224.336 380.465 223.666 381.159C222.996 381.853 222.384 383.063 222.384 384.364V393.339C222.384 394.64 222.996 395.85 223.666 396.544C224.336 397.238 224.993 397.582 225.589 397.826C226.782 398.314 227.914 398.467 229.051 398.467H235.846C236.214 399.495 236.655 400.448 237.128 401.416L232.256 406.287C231.437 407.107 230.811 408.016 230.333 409.236C230.093 409.846 229.903 410.589 229.948 411.544C229.994 412.499 230.352 413.742 231.23 414.621L237.512 420.903C238.391 421.782 239.634 422.139 240.589 422.185C241.544 422.231 242.287 422.039 242.897 421.8C244.117 421.322 245.027 420.696 245.846 419.877L250.717 415.006C251.685 415.478 252.638 415.919 253.666 416.288V423.082C253.666 424.219 253.819 425.352 254.307 426.544C254.551 427.14 254.895 427.797 255.589 428.467C256.283 429.137 257.493 429.749 258.794 429.749H267.769C269.07 429.749 270.28 429.137 270.974 428.467C271.668 427.797 272.012 427.14 272.256 426.544C272.744 425.352 272.897 424.219 272.897 423.082V416.288C273.925 415.919 274.878 415.478 275.846 415.006L280.717 419.877C281.536 420.696 282.446 421.322 283.666 421.8C284.276 422.04 285.019 422.231 285.974 422.185C286.929 422.139 288.172 421.782 289.051 420.903L295.333 414.621C296.211 413.742 296.569 412.499 296.615 411.544C296.66 410.589 296.47 409.846 296.23 409.236C295.752 408.016 295.126 407.107 294.307 406.287L289.435 401.416C289.908 400.448 290.349 399.495 290.717 398.467H297.512C298.649 398.467 299.781 398.314 300.974 397.826C301.57 397.582 302.227 397.238 302.897 396.544C303.567 395.85 304.179 394.64 304.179 393.339V384.364C304.179 383.063 303.567 381.853 302.897 381.159C302.227 380.465 301.57 380.121 300.974 379.877C299.781 379.389 298.649 379.236 297.512 379.236H290.717C290.349 378.208 289.908 377.255 289.435 376.287L294.307 371.416C295.126 370.597 295.752 369.687 296.23 368.467C296.47 367.857 296.66 367.115 296.615 366.159C296.569 365.204 296.211 363.961 295.333 363.082L289.051 356.8C288.172 355.922 286.929 355.564 285.974 355.518C285.019 355.473 284.276 355.664 283.666 355.903C282.446 356.381 281.536 357.007 280.717 357.826L275.846 362.698C274.878 362.225 273.925 361.784 272.897 361.416V354.621C272.897 353.484 272.744 352.352 272.256 351.159C272.012 350.563 271.668 349.906 270.974 349.236C270.28 348.566 269.07 347.954 267.769 347.954H267.128L290.333 321.672C290.825 321.102 291.145 320.402 291.253 319.656C291.362 318.91 291.254 318.149 290.945 317.462C290.635 316.775 290.135 316.191 289.504 315.778C288.873 315.366 288.138 315.142 287.384 315.134H278.282V294.493C278.284 293.97 278.183 293.452 277.984 292.969C277.786 292.485 277.493 292.046 277.123 291.676C276.754 291.307 276.315 291.014 275.831 290.815C275.348 290.617 274.83 290.516 274.307 290.518H249.692C249.564 290.512 249.435 290.512 249.307 290.518ZM263.282 381.416C267.393 381.416 270.717 384.74 270.717 388.851C270.717 392.963 267.393 396.287 263.282 396.287C259.17 396.287 255.846 392.963 255.846 388.851C255.846 384.74 259.17 381.416 263.282 381.416Z" fill="black"/>
<path d="M249.692 294.492V319.108H236.615L261.999 347.826L287.384 319.108H274.307V294.492H249.692ZM258.794 351.928C258.085 351.928 257.64 353.138 257.64 354.621V363.98C254.785 364.63 252.096 365.795 249.692 367.313L243.025 360.646C241.977 359.598 240.834 359.119 240.333 359.621L234.051 365.903C233.549 366.404 234.028 367.547 235.076 368.595L241.743 375.262C240.225 377.666 239.06 380.355 238.41 383.21H229.051C227.568 383.21 226.358 383.655 226.358 384.364V393.339C226.358 394.048 227.568 394.492 229.051 394.492H238.41C239.06 397.348 240.225 400.037 241.743 402.441L235.076 409.108C234.028 410.156 233.549 411.299 234.051 411.8L240.333 418.082C240.834 418.584 241.977 418.103 243.025 417.057L249.692 410.39C252.096 411.908 254.785 413.073 257.64 413.723V423.082C257.64 424.565 258.085 425.774 258.794 425.774H267.769C268.478 425.774 268.923 424.565 268.923 423.082V413.723C271.778 413.073 274.467 411.908 276.871 410.39L283.538 417.057C284.586 418.105 285.729 418.584 286.23 418.082L292.512 411.8C293.014 411.299 292.535 410.156 291.487 409.108L284.82 402.441C286.338 400.037 287.503 397.348 288.153 394.492H297.512C298.995 394.492 300.205 394.048 300.205 393.339V384.364C300.205 383.655 298.995 383.21 297.512 383.21H288.153C287.503 380.355 286.338 377.666 284.82 375.262L291.487 368.595C292.535 367.547 293.014 366.404 292.512 365.903L286.23 359.621C285.729 359.119 284.586 359.6 283.538 360.646L276.871 367.313C274.467 365.795 271.778 364.63 268.923 363.98V354.621C268.923 353.138 268.478 351.928 267.769 351.928H258.794ZM263.282 377.441C269.553 377.441 274.692 382.58 274.692 388.851C274.692 395.123 269.553 400.262 263.282 400.262C257.01 400.262 251.871 395.123 251.871 388.851C251.871 382.58 257.01 377.441 263.282 377.441Z" fill="#A8CEED"/>
<path opacity="0.4" d="M332.296 284.236H191.703C188.61 284.236 186.102 286.744 186.102 289.837V430.43C186.102 433.523 188.61 436.031 191.703 436.031H332.296C335.389 436.031 337.897 433.523 337.897 430.43V289.837C337.897 286.744 335.389 284.236 332.296 284.236Z" stroke="url(#paint1_linear_2_882)" stroke-width="4.10256" stroke-linecap="round" stroke-linejoin="round"/>
<path d="M580.854 110H566.686C566.18 110 565.77 110.41 565.77 110.916V125.084C565.77 125.59 566.18 126 566.686 126H580.854C581.36 126 581.77 125.59 581.77 125.084V110.916C581.77 110.41 581.36 110 580.854 110Z" fill="#428CE6" stroke="#428CE6" stroke-width="0.410256" stroke-linecap="round" stroke-linejoin="round"/>
<path opacity="0.05" d="M572.539 110.616C572.429 110.615 572.321 110.636 572.219 110.678C572.118 110.719 572.026 110.781 571.948 110.858C571.871 110.936 571.809 111.028 571.768 111.129C571.726 111.231 571.705 111.34 571.706 111.449V113.077H571.231C571.071 113.077 570.913 113.123 570.778 113.21C570.643 113.297 570.537 113.422 570.471 113.569C570.406 113.716 570.385 113.878 570.411 114.037C570.436 114.196 570.508 114.343 570.616 114.462L572.693 116.821C572.667 116.867 572.62 116.922 572.603 116.962C572.523 117.158 572.501 117.305 572.501 117.462V117.513L572.462 117.475C572.348 117.361 572.216 117.26 572.013 117.18C571.912 117.14 571.795 117.107 571.616 117.116C571.437 117.124 571.184 117.202 571.013 117.372L570.385 118.001C570.215 118.171 570.137 118.424 570.129 118.603C570.12 118.782 570.153 118.899 570.193 119.001C570.273 119.203 570.374 119.335 570.488 119.449L570.526 119.488H570.475C570.318 119.488 570.171 119.51 569.975 119.59C569.877 119.63 569.754 119.678 569.629 119.808C569.504 119.938 569.372 120.184 569.372 120.436V121.334C569.372 121.587 569.504 121.832 569.629 121.962C569.754 122.092 569.877 122.14 569.975 122.18C570.171 122.26 570.318 122.283 570.475 122.283H570.526L570.488 122.321C570.374 122.435 570.273 122.567 570.193 122.77C570.153 122.871 570.12 122.989 570.129 123.167C570.137 123.346 570.215 123.6 570.385 123.77L571.013 124.398C571.184 124.568 571.437 124.646 571.616 124.654C571.795 124.663 571.912 124.63 572.013 124.59C572.216 124.511 572.348 124.41 572.462 124.295L572.501 124.257V124.308C572.501 124.465 572.523 124.612 572.603 124.808C572.643 124.906 572.691 125.029 572.821 125.154C572.951 125.28 573.196 125.411 573.449 125.411H574.347C574.6 125.411 574.845 125.28 574.975 125.154C575.105 125.029 575.153 124.906 575.193 124.808C575.273 124.612 575.296 124.465 575.296 124.308V124.257L575.334 124.295C575.448 124.41 575.58 124.511 575.783 124.59C575.884 124.63 576.002 124.663 576.18 124.654C576.359 124.646 576.613 124.568 576.783 124.398L577.411 123.77C577.581 123.6 577.659 123.346 577.667 123.167C577.676 122.989 577.643 122.871 577.603 122.77C577.524 122.567 577.422 122.435 577.308 122.321L577.27 122.283H577.321C577.478 122.283 577.625 122.26 577.821 122.18C577.919 122.14 578.042 122.092 578.167 121.962C578.293 121.832 578.424 121.587 578.424 121.334V120.436C578.424 120.184 578.293 119.938 578.167 119.808C578.042 119.678 577.919 119.63 577.821 119.59C577.625 119.51 577.478 119.488 577.321 119.488H577.27L577.308 119.449C577.422 119.335 577.524 119.203 577.603 119.001C577.643 118.899 577.676 118.782 577.667 118.603C577.659 118.424 577.581 118.171 577.411 118.001L576.783 117.372C576.613 117.202 576.359 117.124 576.18 117.116C576.002 117.107 575.884 117.14 575.783 117.18C575.58 117.26 575.448 117.361 575.334 117.475L575.296 117.513V117.462C575.296 117.305 575.273 117.158 575.193 116.962C575.156 116.871 575.099 116.757 574.988 116.642L576.924 114.462C577.032 114.343 577.103 114.196 577.129 114.037C577.155 113.878 577.134 113.716 577.068 113.569C577.003 113.422 576.896 113.297 576.761 113.21C576.627 113.123 576.469 113.077 576.308 113.077H575.834V111.449C575.835 111.34 575.814 111.231 575.772 111.129C575.731 111.028 575.669 110.936 575.592 110.858C575.514 110.781 575.422 110.719 575.321 110.678C575.219 110.636 575.11 110.615 575.001 110.616H572.539ZM573.898 120.577C574.073 120.577 574.206 120.71 574.206 120.885C574.206 121.06 574.073 121.193 573.898 121.193C573.723 121.193 573.59 121.06 573.59 120.885C573.59 120.71 573.723 120.577 573.898 120.577Z" fill="black"/>
<path opacity="0.05" d="M572.501 111.052C572.402 111.061 572.31 111.107 572.244 111.18C572.177 111.254 572.141 111.35 572.142 111.449V113.513H571.231C571.156 113.514 571.083 113.537 571.019 113.578C570.956 113.619 570.906 113.677 570.875 113.746C570.844 113.815 570.834 113.891 570.845 113.966C570.855 114.04 570.887 114.11 570.937 114.167L573.308 116.847C573.243 116.872 573.168 116.886 573.129 116.924C573.059 116.991 573.025 117.056 573.001 117.116C572.952 117.235 572.937 117.348 572.937 117.462V118.142C572.834 118.178 572.738 118.222 572.642 118.27L572.155 117.783C572.073 117.701 571.982 117.638 571.86 117.59C571.799 117.566 571.724 117.547 571.629 117.552C571.533 117.556 571.409 117.592 571.321 117.68L570.693 118.308C570.605 118.396 570.569 118.52 570.565 118.616C570.56 118.711 570.579 118.786 570.603 118.847C570.651 118.969 570.714 119.06 570.796 119.142L571.283 119.629C571.235 119.725 571.191 119.821 571.155 119.924H570.475C570.361 119.924 570.248 119.939 570.129 119.988C570.069 120.012 570.004 120.047 569.937 120.116C569.87 120.185 569.808 120.306 569.808 120.436V121.334C569.808 121.464 569.87 121.585 569.937 121.654C570.004 121.724 570.069 121.758 570.129 121.783C570.248 121.831 570.361 121.847 570.475 121.847H571.155C571.191 121.949 571.235 122.045 571.283 122.142L570.796 122.629C570.714 122.711 570.651 122.802 570.603 122.924C570.579 122.985 570.56 123.059 570.565 123.154C570.569 123.25 570.605 123.374 570.693 123.462L571.321 124.09C571.409 124.178 571.533 124.214 571.629 124.218C571.724 124.223 571.799 124.204 571.86 124.18C571.982 124.132 572.073 124.07 572.155 123.988L572.642 123.501C572.738 123.548 572.834 123.592 572.937 123.629V124.308C572.937 124.422 572.952 124.535 573.001 124.654C573.025 124.714 573.059 124.78 573.129 124.847C573.198 124.914 573.319 124.975 573.449 124.975H574.347C574.477 124.975 574.598 124.914 574.667 124.847C574.737 124.78 574.771 124.714 574.796 124.654C574.844 124.535 574.86 124.422 574.86 124.308V123.629C574.962 123.592 575.058 123.548 575.155 123.501L575.642 123.988C575.724 124.07 575.815 124.132 575.937 124.18C575.998 124.204 576.072 124.223 576.167 124.218C576.263 124.214 576.387 124.178 576.475 124.09L577.103 123.462C577.191 123.374 577.227 123.25 577.231 123.154C577.236 123.059 577.217 122.985 577.193 122.924C577.145 122.802 577.083 122.711 577.001 122.629L576.513 122.142C576.561 122.045 576.605 121.949 576.642 121.847H577.321C577.435 121.847 577.548 121.831 577.667 121.783C577.727 121.758 577.793 121.724 577.86 121.654C577.927 121.585 577.988 121.464 577.988 121.334V120.436C577.988 120.306 577.927 120.185 577.86 120.116C577.793 120.047 577.727 120.012 577.667 119.988C577.548 119.939 577.435 119.924 577.321 119.924H576.642C576.605 119.821 576.561 119.725 576.513 119.629L577.001 119.142C577.083 119.06 577.145 118.969 577.193 118.847C577.217 118.786 577.236 118.711 577.231 118.616C577.227 118.52 577.191 118.396 577.103 118.308L576.475 117.68C576.387 117.592 576.263 117.556 576.167 117.552C576.072 117.547 575.998 117.566 575.937 117.59C575.815 117.638 575.724 117.701 575.642 117.783L575.155 118.27C575.058 118.222 574.962 118.178 574.86 118.142V117.462C574.86 117.348 574.844 117.235 574.796 117.116C574.771 117.056 574.737 116.991 574.667 116.924C574.598 116.857 574.477 116.795 574.347 116.795H574.283L576.603 114.167C576.652 114.11 576.684 114.04 576.695 113.966C576.706 113.891 576.695 113.815 576.664 113.746C576.633 113.677 576.583 113.619 576.52 113.578C576.457 113.537 576.384 113.514 576.308 113.513H575.398V111.449C575.398 111.397 575.388 111.345 575.368 111.297C575.349 111.248 575.319 111.205 575.282 111.168C575.245 111.131 575.201 111.101 575.153 111.082C575.105 111.062 575.053 111.052 575.001 111.052H572.539C572.526 111.051 572.513 111.051 572.501 111.052ZM573.898 120.142C574.309 120.142 574.642 120.474 574.642 120.885C574.642 121.296 574.309 121.629 573.898 121.629C573.487 121.629 573.155 121.296 573.155 120.885C573.155 120.474 573.487 120.142 573.898 120.142Z" fill="black"/>
<path d="M572.539 111.449V113.911H571.231L573.77 116.783L576.308 113.911H575.001V111.449H572.539ZM573.449 117.193C573.378 117.193 573.334 117.314 573.334 117.462V118.398C573.048 118.463 572.78 118.579 572.539 118.731L571.872 118.065C571.768 117.96 571.653 117.912 571.603 117.962L570.975 118.59C570.925 118.64 570.973 118.755 571.078 118.86L571.744 119.526C571.592 119.767 571.476 120.035 571.411 120.321H570.475C570.327 120.321 570.206 120.366 570.206 120.436V121.334C570.206 121.405 570.327 121.449 570.475 121.449H571.411C571.476 121.735 571.592 122.004 571.744 122.244L571.078 122.911C570.973 123.016 570.925 123.13 570.975 123.18L571.603 123.808C571.653 123.858 571.768 123.81 571.872 123.706L572.539 123.039C572.78 123.191 573.048 123.307 573.334 123.372V124.308C573.334 124.456 573.378 124.577 573.449 124.577H574.347C574.418 124.577 574.462 124.456 574.462 124.308V123.372C574.748 123.307 575.017 123.191 575.257 123.039L575.924 123.706C576.029 123.81 576.143 123.858 576.193 123.808L576.821 123.18C576.871 123.13 576.823 123.016 576.719 122.911L576.052 122.244C576.204 122.004 576.32 121.735 576.385 121.449H577.321C577.469 121.449 577.59 121.405 577.59 121.334V120.436C577.59 120.366 577.469 120.321 577.321 120.321H576.385C576.32 120.035 576.204 119.767 576.052 119.526L576.719 118.86C576.823 118.755 576.871 118.64 576.821 118.59L576.193 117.962C576.143 117.912 576.029 117.96 575.924 118.065L575.257 118.731C575.017 118.579 574.748 118.463 574.462 118.398V117.462C574.462 117.314 574.418 117.193 574.347 117.193H573.449ZM573.898 119.744C574.525 119.744 575.039 120.258 575.039 120.885C575.039 121.512 574.525 122.026 573.898 122.026C573.271 122.026 572.757 121.512 572.757 120.885C572.757 120.258 573.271 119.744 573.898 119.744Z" fill="#A8CEED"/>
<path opacity="0.4" d="M580.8 110.424H566.74C566.431 110.424 566.18 110.674 566.18 110.984V125.043C566.18 125.352 566.431 125.603 566.74 125.603H580.8C581.109 125.603 581.36 125.352 581.36 125.043V110.984C581.36 110.674 581.109 110.424 580.8 110.424Z" stroke="url(#paint2_linear_2_882)" stroke-width="0.410256" stroke-linecap="round" stroke-linejoin="round"/>
<defs>
<linearGradient id="paint0_linear_2_882" x1="53.999" y1="504.998" x2="469.999" y2="504.998" gradientUnits="userSpaceOnUse">
<stop stop-color="#62A0EA"/>
<stop offset="0.0576991" stop-color="#AFD4FF"/>
<stop offset="0.122204" stop-color="#62A0EA"/>
<stop offset="0.873306" stop-color="#62A0EA"/>
<stop offset="0.955997" stop-color="#C0D5EA"/>
<stop offset="1" stop-color="#62A0EA"/>
</linearGradient>
<linearGradient id="paint1_linear_2_882" x1="261.999" y1="282.185" x2="261.999" y2="438.082" gradientUnits="userSpaceOnUse">
<stop stop-color="#99C1F1"/>
<stop offset="1" stop-color="#C3E5E7"/>
</linearGradient>
<linearGradient id="paint2_linear_2_882" x1="573.77" y1="110.218" x2="573.77" y2="125.808" gradientUnits="userSpaceOnUse">
<stop stop-color="#99C1F1"/>
<stop offset="1" stop-color="#C3E5E7"/>
</linearGradient>
</defs>
</svg>
