<svg width="512" height="513" viewBox="0 0 512 513" fill="none" xmlns="http://www.w3.org/2000/svg">
<path d="M87.9061 49C65.7968 49 47.9999 66.8438 47.9999 89V433.125C47.9999 455.297 65.7968 473.125 87.9061 473.125H424.078C446.203 473.125 464 455.297 464 433.125V144.781C464 118.266 442.562 96.7812 416.109 96.7812H232C222.187 96.7812 213.219 91.2344 208.812 82.4531L202.797 70.4844C196.172 57.3125 182.719 49 168 49H87.9061Z" fill="#438DE6"/>
<path d="M263.906 145C252.922 145 243 149.406 235.797 156.562C226.703 165.578 214.266 177 201.266 177H87.9061C65.7968 177 47.9999 194.844 47.9999 217V433.125C47.9999 455.297 65.7968 473.125 87.9061 473.125H424.078C446.203 473.125 464 455.297 464 433.125V185C464 162.844 446.203 145 424.078 145H263.906Z" fill="url(#paint0_linear_4_2)"/>
<path d="M263.906 129C252.922 129 243 133.406 235.797 140.562C226.703 149.578 214.266 161 201.266 161H87.9061C65.7968 161 47.9999 178.844 47.9999 201V424.906C47.9999 447.063 65.7968 464.906 87.9061 464.906H424.078C446.203 464.906 464 447.063 464 424.906V169C464 146.844 446.203 129 424.078 129H263.906Z" fill="#A4CAEE"/>
<path d="M305.59 241H206.41C202.87 241 200 243.87 200 247.41V346.589C200 350.129 202.87 352.999 206.41 352.999H305.59C309.13 352.999 312 350.129 312 346.589V247.41C312 243.87 309.13 241 305.59 241Z" fill="#428CE6" stroke="#428CE6" stroke-width="4.10256" stroke-linecap="round" stroke-linejoin="round"/>
<path opacity="0.05" d="M247.384 245.311C246.617 245.306 245.856 245.453 245.145 245.744C244.435 246.035 243.79 246.465 243.247 247.007C242.704 247.55 242.275 248.195 241.984 248.906C241.692 249.616 241.545 250.377 241.551 251.145V262.542H238.231C237.106 262.537 236.003 262.859 235.059 263.47C234.114 264.08 233.367 264.953 232.911 265.981C232.454 267.009 232.306 268.148 232.486 269.258C232.666 270.369 233.165 271.403 233.923 272.234L248.461 288.747C248.28 289.065 247.948 289.454 247.833 289.734C247.27 291.108 247.115 292.136 247.115 293.234V293.593L246.846 293.324C246.047 292.525 245.125 291.817 243.705 291.26C242.995 290.981 242.173 290.752 240.923 290.811C239.672 290.871 237.896 291.415 236.705 292.606L232.307 297.003C231.117 298.194 230.572 299.971 230.513 301.221C230.453 302.472 230.683 303.293 230.961 304.003C231.518 305.423 232.227 306.346 233.025 307.144L233.295 307.414H232.936C231.838 307.414 230.809 307.569 229.436 308.131C228.749 308.413 227.89 308.749 227.013 309.657C226.135 310.565 225.218 312.284 225.218 314.055V320.337C225.218 322.107 226.135 323.826 227.013 324.734C227.89 325.642 228.749 325.978 229.436 326.26C230.809 326.822 231.838 326.978 232.936 326.978H233.295L233.025 327.247C232.227 328.046 231.518 328.968 230.961 330.388C230.683 331.098 230.453 331.919 230.513 333.17C230.572 334.42 231.117 336.197 232.307 337.388L236.705 341.785C237.896 342.976 239.672 343.52 240.923 343.58C242.173 343.64 242.995 343.41 243.705 343.131C245.125 342.574 246.047 341.866 246.846 341.067L247.115 340.798V341.157C247.115 342.255 247.27 343.283 247.833 344.657C248.114 345.344 248.45 346.203 249.359 347.08C250.267 347.957 251.986 348.875 253.756 348.875H260.038C261.808 348.875 263.527 347.957 264.435 347.08C265.344 346.203 265.68 345.344 265.961 344.657C266.524 343.283 266.679 342.255 266.679 341.157V340.798L266.948 341.067C267.747 341.866 268.669 342.574 270.089 343.131C270.799 343.41 271.621 343.64 272.871 343.58C274.122 343.52 275.898 342.976 277.089 341.785L281.487 337.388C282.678 336.197 283.222 334.42 283.281 333.17C283.341 331.919 283.111 331.098 282.833 330.388C282.276 328.968 281.568 328.046 280.769 327.247L280.499 326.978H280.858C281.956 326.978 282.985 326.822 284.358 326.26C285.045 325.978 285.904 325.642 286.781 324.734C287.659 323.826 288.576 322.107 288.576 320.337V314.055C288.576 312.284 287.659 310.565 286.781 309.657C285.904 308.749 285.045 308.413 284.358 308.131C282.985 307.569 281.956 307.414 280.858 307.414H280.499L280.769 307.144C281.568 306.346 282.276 305.423 282.833 304.003C283.111 303.293 283.341 302.472 283.281 301.221C283.222 299.971 282.678 298.194 281.487 297.003L277.089 292.606C275.898 291.415 274.122 290.871 272.871 290.811C271.621 290.751 270.799 290.981 270.089 291.26C268.669 291.817 267.747 292.525 266.948 293.324L266.679 293.593V293.234C266.679 292.136 266.524 291.108 265.961 289.734C265.699 289.095 265.306 288.298 264.525 287.491L278.076 272.234C278.834 271.403 279.334 270.369 279.513 269.258C279.693 268.148 279.546 267.009 279.089 265.981C278.632 264.953 277.885 264.08 276.941 263.47C275.996 262.859 274.894 262.537 273.769 262.542H270.448V251.145C270.454 250.377 270.307 249.616 270.016 248.906C269.725 248.195 269.295 247.55 268.752 247.007C268.209 246.465 267.564 246.035 266.854 245.744C266.144 245.453 265.383 245.306 264.615 245.311H247.384ZM256.897 315.042C258.124 315.042 259.051 315.969 259.051 317.196C259.051 318.422 258.124 319.349 256.897 319.349C255.671 319.349 254.743 318.422 254.743 317.196C254.743 315.969 255.671 315.042 256.897 315.042Z" fill="black"/>
<path opacity="0.05" d="M247.115 248.363C246.424 248.427 245.781 248.748 245.316 249.264C244.851 249.779 244.596 250.45 244.602 251.145V265.593H238.231C237.703 265.599 237.188 265.756 236.746 266.045C236.305 266.333 235.955 266.742 235.738 267.223C235.521 267.704 235.446 268.237 235.522 268.759C235.598 269.281 235.822 269.771 236.166 270.17L252.769 288.927C252.313 289.103 251.787 289.2 251.512 289.465C251.027 289.934 250.786 290.394 250.615 290.811C250.273 291.646 250.166 292.439 250.166 293.234V297.991C249.447 298.249 248.78 298.557 248.102 298.888L244.692 295.478C244.119 294.904 243.482 294.467 242.628 294.132C242.201 293.964 241.681 293.831 241.013 293.862C240.344 293.894 239.474 294.145 238.859 294.76L234.461 299.157C233.846 299.772 233.596 300.643 233.564 301.311C233.532 301.98 233.666 302.5 233.833 302.927C234.168 303.78 234.606 304.417 235.179 304.991L238.589 308.401C238.259 309.078 237.95 309.745 237.692 310.465H232.936C232.14 310.465 231.347 310.572 230.513 310.914C230.095 311.085 229.636 311.325 229.166 311.811C228.697 312.297 228.269 313.144 228.269 314.055V320.337C228.269 321.248 228.697 322.094 229.166 322.58C229.636 323.066 230.095 323.307 230.513 323.478C231.347 323.82 232.14 323.926 232.936 323.926H237.692C237.95 324.646 238.259 325.313 238.589 325.99L235.179 329.401C234.606 329.974 234.168 330.611 233.833 331.465C233.666 331.892 233.532 332.412 233.564 333.08C233.596 333.749 233.846 334.619 234.461 335.234L238.859 339.631C239.474 340.246 240.344 340.497 241.013 340.529C241.681 340.561 242.201 340.427 242.628 340.26C243.482 339.925 244.119 339.487 244.692 338.913L248.102 335.503C248.78 335.834 249.447 336.143 250.166 336.401V341.157C250.166 341.953 250.273 342.745 250.615 343.58C250.786 343.998 251.027 344.457 251.512 344.926C251.998 345.396 252.845 345.824 253.756 345.824H260.038C260.949 345.824 261.796 345.396 262.282 344.926C262.767 344.457 263.008 343.998 263.179 343.58C263.521 342.745 263.628 341.953 263.628 341.157V336.401C264.347 336.143 265.015 335.834 265.692 335.503L269.102 338.913C269.675 339.487 270.312 339.925 271.166 340.26C271.593 340.427 272.113 340.561 272.782 340.529C273.45 340.497 274.32 340.247 274.935 339.631L279.333 335.234C279.948 334.619 280.198 333.749 280.23 333.08C280.262 332.412 280.129 331.892 279.961 331.465C279.626 330.611 279.188 329.974 278.615 329.401L275.205 325.99C275.536 325.313 275.844 324.646 276.102 323.926H280.858C281.654 323.926 282.447 323.82 283.282 323.478C283.699 323.307 284.158 323.066 284.628 322.58C285.097 322.094 285.525 321.248 285.525 320.337V314.055C285.525 313.144 285.097 312.297 284.628 311.811C284.158 311.325 283.699 311.085 283.282 310.914C282.447 310.572 281.654 310.465 280.858 310.465H276.102C275.844 309.745 275.536 309.078 275.205 308.401L278.615 304.991C279.188 304.417 279.626 303.78 279.961 302.927C280.129 302.5 280.262 301.98 280.23 301.311C280.198 300.643 279.948 299.772 279.333 299.157L274.935 294.76C274.32 294.145 273.45 293.894 272.782 293.862C272.113 293.83 271.593 293.964 271.166 294.132C270.312 294.467 269.675 294.904 269.102 295.478L265.692 298.888C265.015 298.557 264.347 298.249 263.628 297.991V293.234C263.628 292.439 263.521 291.646 263.179 290.811C263.008 290.394 262.767 289.934 262.282 289.465C261.796 288.996 260.949 288.568 260.038 288.568H259.589L275.833 270.17C276.178 269.771 276.401 269.281 276.477 268.759C276.553 268.237 276.478 267.704 276.261 267.223C276.044 266.742 275.694 266.333 275.253 266.045C274.811 265.756 274.296 265.599 273.769 265.593H267.397V251.145C267.399 250.779 267.328 250.416 267.189 250.078C267.05 249.74 266.845 249.432 266.586 249.173C266.328 248.915 266.02 248.71 265.682 248.571C265.343 248.432 264.981 248.361 264.615 248.363H247.384C247.295 248.358 247.205 248.358 247.115 248.363ZM256.897 311.991C259.775 311.991 262.102 314.318 262.102 317.196C262.102 320.073 259.775 322.401 256.897 322.401C254.019 322.401 251.692 320.073 251.692 317.196C251.692 314.318 254.019 311.991 256.897 311.991Z" fill="black"/>
<path d="M247.384 251.145V268.375H238.231L256 288.478L273.769 268.375H264.615V251.145H247.384ZM253.756 291.35C253.26 291.35 252.948 292.197 252.948 293.234V299.785C250.949 300.241 249.067 301.056 247.384 302.119L242.718 297.452C241.984 296.718 241.184 296.383 240.833 296.734L236.436 301.132C236.085 301.483 236.42 302.282 237.154 303.016L241.82 307.683C240.757 309.366 239.942 311.248 239.487 313.247H232.936C231.898 313.247 231.051 313.558 231.051 314.055V320.337C231.051 320.833 231.898 321.144 232.936 321.144H239.487C239.942 323.143 240.757 325.026 241.82 326.708L237.154 331.375C236.42 332.109 236.085 332.908 236.436 333.26L240.833 337.657C241.184 338.008 241.984 337.672 242.718 336.939L247.384 332.272C249.067 333.335 250.949 334.151 252.948 334.606V341.157C252.948 342.195 253.26 343.042 253.756 343.042H260.038C260.535 343.042 260.846 342.195 260.846 341.157V334.606C262.845 334.151 264.727 333.335 266.41 332.272L271.076 336.939C271.81 337.673 272.61 338.008 272.961 337.657L277.358 333.26C277.71 332.908 277.374 332.109 276.641 331.375L271.974 326.708C273.037 325.026 273.852 323.143 274.307 321.144H280.858C281.896 321.144 282.743 320.833 282.743 320.337V314.055C282.743 313.558 281.896 313.247 280.858 313.247H274.307C273.852 311.248 273.037 309.366 271.974 307.683L276.641 303.016C277.374 302.282 277.71 301.483 277.358 301.132L272.961 296.734C272.61 296.383 271.81 296.72 271.076 297.452L266.41 302.119C264.727 301.056 262.845 300.241 260.846 299.785V293.234C260.846 292.197 260.535 291.35 260.038 291.35H253.756ZM256.897 309.208C261.287 309.208 264.884 312.806 264.884 317.196C264.884 321.585 261.287 325.183 256.897 325.183C252.507 325.183 248.91 321.585 248.91 317.196C248.91 312.806 252.507 309.208 256.897 309.208Z" fill="#A8CEED"/>
<path opacity="0.4" d="M305.207 243.965H206.792C204.627 243.965 202.872 245.721 202.872 247.886V346.3C202.872 348.466 204.627 350.221 206.792 350.221H305.207C307.372 350.221 309.127 348.466 309.127 346.3V247.886C309.127 245.721 307.372 243.965 305.207 243.965Z" stroke="url(#paint1_linear_4_2)" stroke-width="4.10256" stroke-linecap="round" stroke-linejoin="round"/>
<defs>
<linearGradient id="paint0_linear_4_2" x1="47.999" y1="448.998" x2="463.999" y2="448.998" gradientUnits="userSpaceOnUse">
<stop stop-color="#62A0EA"/>
<stop offset="0.0576991" stop-color="#AFD4FF"/>
<stop offset="0.122204" stop-color="#62A0EA"/>
<stop offset="0.873306" stop-color="#62A0EA"/>
<stop offset="0.955997" stop-color="#C0D5EA"/>
<stop offset="1" stop-color="#62A0EA"/>
</linearGradient>
<linearGradient id="paint1_linear_4_2" x1="256" y1="242.529" x2="256" y2="351.657" gradientUnits="userSpaceOnUse">
<stop stop-color="#99C1F1"/>
<stop offset="1" stop-color="#C3E5E7"/>
</linearGradient>
</defs>
</svg>
