<svg width="512" height="513" viewBox="0 0 512 513" fill="none" xmlns="http://www.w3.org/2000/svg">
<path d="M87.9061 49C65.7968 49 47.9999 66.8438 47.9999 89V433.125C47.9999 455.297 65.7968 473.125 87.9061 473.125H424.078C446.203 473.125 464 455.297 464 433.125V144.781C464 118.266 442.562 96.7812 416.109 96.7812H232C222.187 96.7812 213.219 91.2344 208.812 82.4531L202.797 70.4844C196.172 57.3125 182.719 49 168 49H87.9061Z" fill="#438DE6"/>
<path d="M263.906 145C252.922 145 243 149.406 235.797 156.562C226.703 165.578 214.266 177 201.266 177H87.9061C65.7968 177 47.9999 194.844 47.9999 217V433.125C47.9999 455.297 65.7968 473.125 87.9061 473.125H424.078C446.203 473.125 464 455.297 464 433.125V185C464 162.844 446.203 145 424.078 145H263.906Z" fill="url(#paint0_linear_4_2)"/>
<path d="M263.906 129C252.922 129 243 133.406 235.797 140.562C226.703 149.578 214.266 161 201.266 161H87.9061C65.7968 161 47.9999 178.844 47.9999 201V424.906C47.9999 447.062 65.7968 464.906 87.9061 464.906H424.078C446.203 464.906 464 447.062 464 424.906V169C464 146.844 446.203 129 424.078 129H263.906Z" fill="#A4CAEE"/>
<path d="M326.843 224H185.157C180.1 224 175.999 228.1 175.999 233.158V374.842C175.999 379.9 180.1 384 185.157 384H326.843C331.9 384 336 379.9 336 374.842V233.158C336 228.1 331.9 224 326.843 224Z" fill="#428CE6" stroke="#428CE6" stroke-width="4.10256" stroke-linecap="round" stroke-linejoin="round"/>
<path opacity="0.05" d="M243.692 230.159C242.595 230.151 241.508 230.361 240.493 230.777C239.479 231.193 238.557 231.807 237.781 232.582C237.006 233.357 236.392 234.279 235.976 235.294C235.56 236.309 235.35 237.396 235.358 238.492V254.774H230.615C229.008 254.767 227.433 255.227 226.084 256.1C224.734 256.972 223.668 258.219 223.015 259.687C222.362 261.156 222.151 262.783 222.408 264.369C222.665 265.956 223.378 267.433 224.461 268.621L245.23 292.21C244.971 292.665 244.497 293.22 244.333 293.621C243.529 295.583 243.307 297.053 243.307 298.621V299.134L242.923 298.749C241.781 297.608 240.464 296.596 238.435 295.8C237.421 295.402 236.247 295.074 234.461 295.159C232.675 295.244 230.137 296.022 228.435 297.723L222.153 304.005C220.452 305.707 219.674 308.245 219.589 310.031C219.504 311.817 219.832 312.991 220.23 314.005C221.026 316.034 222.038 317.351 223.179 318.493L223.564 318.877H223.051C221.483 318.877 220.013 319.099 218.051 319.903C217.07 320.305 215.842 320.785 214.589 322.082C213.336 323.38 212.025 325.835 212.025 328.364V337.339C212.025 339.868 213.336 342.323 214.589 343.621C215.842 344.918 217.07 345.398 218.051 345.8C220.013 346.604 221.483 346.826 223.051 346.826H223.564L223.179 347.21C222.038 348.352 221.026 349.669 220.23 351.697C219.832 352.712 219.504 353.885 219.589 355.672C219.674 357.458 220.452 359.996 222.153 361.697L228.435 367.98C230.137 369.681 232.675 370.459 234.461 370.544C236.247 370.629 237.421 370.3 238.435 369.903C240.464 369.107 241.781 368.095 242.923 366.954L243.307 366.569V367.082C243.307 368.65 243.529 370.12 244.333 372.082C244.735 373.063 245.215 374.291 246.512 375.544C247.81 376.797 250.265 378.108 252.794 378.108H261.769C264.298 378.108 266.753 376.797 268.051 375.544C269.348 374.291 269.828 373.063 270.23 372.082C271.034 370.12 271.256 368.65 271.256 367.082V366.569L271.64 366.954C272.782 368.095 274.099 369.107 276.128 369.903C277.142 370.3 278.315 370.629 280.102 370.544C281.888 370.458 284.426 369.681 286.128 367.98L292.41 361.697C294.111 359.996 294.889 357.458 294.974 355.672C295.059 353.885 294.731 352.712 294.333 351.697C293.537 349.669 292.525 348.352 291.384 347.21L290.999 346.826H291.512C293.08 346.826 294.55 346.604 296.512 345.8C297.493 345.398 298.721 344.918 299.974 343.621C301.227 342.323 302.538 339.868 302.538 337.339V328.364C302.538 325.835 301.227 323.38 299.974 322.082C298.721 320.785 297.493 320.305 296.512 319.903C294.55 319.099 293.08 318.877 291.512 318.877H290.999L291.384 318.493C292.525 317.351 293.537 316.034 294.333 314.005C294.731 312.991 295.059 311.817 294.974 310.031C294.889 308.245 294.111 305.707 292.41 304.005L286.128 297.723C284.426 296.022 281.888 295.244 280.102 295.159C278.315 295.074 277.142 295.402 276.128 295.8C274.099 296.596 272.782 297.608 271.64 298.749L271.256 299.134V298.621C271.256 297.053 271.034 295.583 270.23 293.621C269.856 292.708 269.294 291.569 268.179 290.416L287.538 268.621C288.621 267.433 289.334 265.956 289.591 264.369C289.848 262.783 289.637 261.156 288.984 259.687C288.331 258.219 287.265 256.972 285.915 256.1C284.566 255.227 282.991 254.767 281.384 254.774H276.64V238.492C276.649 237.396 276.438 236.309 276.023 235.294C275.607 234.279 274.993 233.357 274.218 232.582C273.442 231.807 272.52 231.193 271.506 230.777C270.491 230.361 269.404 230.151 268.307 230.159H243.692ZM257.281 329.775C259.034 329.775 260.358 331.099 260.358 332.851C260.358 334.604 259.034 335.928 257.281 335.928C255.529 335.928 254.205 334.604 254.205 332.851C254.205 331.099 255.529 329.775 257.281 329.775Z" fill="black"/>
<path opacity="0.05" d="M243.307 234.518C242.319 234.61 241.402 235.069 240.737 235.805C240.072 236.541 239.708 237.501 239.717 238.493V259.134H230.615C229.861 259.142 229.126 259.366 228.495 259.778C227.864 260.191 227.364 260.775 227.054 261.462C226.744 262.149 226.637 262.91 226.746 263.656C226.854 264.402 227.174 265.102 227.666 265.672L251.384 292.467C250.733 292.72 249.982 292.857 249.589 293.236C248.895 293.906 248.551 294.563 248.307 295.159C247.819 296.352 247.666 297.484 247.666 298.621V305.416C246.638 305.784 245.685 306.225 244.717 306.698L239.846 301.826C239.027 301.007 238.117 300.381 236.897 299.903C236.287 299.663 235.544 299.473 234.589 299.518C233.634 299.564 232.391 299.922 231.512 300.8L225.23 307.082C224.352 307.961 223.994 309.204 223.948 310.159C223.903 311.115 224.094 311.857 224.333 312.467C224.811 313.687 225.437 314.597 226.256 315.416L231.128 320.287C230.655 321.255 230.214 322.208 229.846 323.236H223.051C221.914 323.236 220.782 323.389 219.589 323.877C218.993 324.122 218.336 324.465 217.666 325.159C216.996 325.853 216.384 327.063 216.384 328.364V337.339C216.384 338.64 216.996 339.85 217.666 340.544C218.336 341.238 218.993 341.582 219.589 341.826C220.782 342.314 221.914 342.467 223.051 342.467H229.846C230.214 343.495 230.655 344.448 231.128 345.416L226.256 350.287C225.437 351.107 224.811 352.016 224.333 353.236C224.093 353.846 223.903 354.589 223.948 355.544C223.994 356.499 224.352 357.742 225.23 358.621L231.512 364.903C232.391 365.782 233.634 366.139 234.589 366.185C235.544 366.231 236.287 366.039 236.897 365.8C238.117 365.322 239.027 364.696 239.846 363.877L244.717 359.006C245.685 359.478 246.638 359.919 247.666 360.288V367.082C247.666 368.219 247.819 369.352 248.307 370.544C248.551 371.14 248.895 371.797 249.589 372.467C250.283 373.137 251.493 373.749 252.794 373.749H261.769C263.07 373.749 264.28 373.137 264.974 372.467C265.668 371.797 266.012 371.14 266.256 370.544C266.744 369.352 266.897 368.219 266.897 367.082V360.288C267.925 359.919 268.878 359.478 269.846 359.006L274.717 363.877C275.536 364.696 276.446 365.322 277.666 365.8C278.276 366.04 279.019 366.231 279.974 366.185C280.929 366.139 282.172 365.782 283.051 364.903L289.333 358.621C290.211 357.742 290.569 356.499 290.615 355.544C290.66 354.589 290.47 353.846 290.23 353.236C289.752 352.016 289.126 351.107 288.307 350.287L283.435 345.416C283.908 344.448 284.349 343.495 284.717 342.467H291.512C292.649 342.467 293.781 342.314 294.974 341.826C295.57 341.582 296.227 341.238 296.897 340.544C297.567 339.85 298.179 338.64 298.179 337.339V328.364C298.179 327.063 297.567 325.853 296.897 325.159C296.227 324.465 295.57 324.121 294.974 323.877C293.781 323.389 292.649 323.236 291.512 323.236H284.717C284.349 322.208 283.908 321.255 283.435 320.287L288.307 315.416C289.126 314.597 289.752 313.687 290.23 312.467C290.47 311.857 290.66 311.115 290.615 310.159C290.569 309.204 290.211 307.961 289.333 307.082L283.051 300.8C282.172 299.922 280.929 299.564 279.974 299.518C279.019 299.473 278.276 299.664 277.666 299.903C276.446 300.381 275.536 301.007 274.717 301.826L269.846 306.698C268.878 306.225 267.925 305.784 266.897 305.416V298.621C266.897 297.484 266.744 296.352 266.256 295.159C266.012 294.563 265.668 293.906 264.974 293.236C264.28 292.566 263.07 291.954 261.769 291.954H261.128L284.333 265.672C284.825 265.102 285.145 264.402 285.253 263.656C285.362 262.91 285.254 262.149 284.945 261.462C284.635 260.775 284.135 260.191 283.504 259.778C282.873 259.366 282.138 259.142 281.384 259.134H272.282V238.493C272.284 237.97 272.183 237.452 271.984 236.969C271.786 236.485 271.493 236.046 271.123 235.676C270.754 235.307 270.315 235.014 269.831 234.815C269.348 234.617 268.83 234.516 268.307 234.518H243.692C243.564 234.512 243.435 234.512 243.307 234.518ZM257.282 325.416C261.393 325.416 264.717 328.74 264.717 332.851C264.717 336.963 261.393 340.287 257.282 340.287C253.17 340.287 249.846 336.963 249.846 332.851C249.846 328.74 253.17 325.416 257.282 325.416Z" fill="black"/>
<path d="M243.692 238.492V263.108H230.615L255.999 291.826L281.384 263.108H268.307V238.492H243.692ZM252.794 295.928C252.085 295.928 251.64 297.138 251.64 298.621V307.98C248.785 308.63 246.096 309.795 243.692 311.313L237.025 304.646C235.977 303.598 234.834 303.119 234.333 303.621L228.051 309.903C227.549 310.404 228.028 311.547 229.076 312.595L235.743 319.262C234.225 321.666 233.06 324.355 232.41 327.21H223.051C221.568 327.21 220.358 327.655 220.358 328.364V337.339C220.358 338.048 221.568 338.492 223.051 338.492H232.41C233.06 341.348 234.225 344.037 235.743 346.441L229.076 353.108C228.028 354.156 227.549 355.299 228.051 355.8L234.333 362.082C234.834 362.584 235.977 362.103 237.025 361.057L243.692 354.39C246.096 355.908 248.785 357.073 251.64 357.723V367.082C251.64 368.565 252.085 369.775 252.794 369.775H261.769C262.478 369.775 262.923 368.565 262.923 367.082V357.723C265.778 357.073 268.467 355.908 270.871 354.39L277.538 361.057C278.586 362.105 279.729 362.584 280.23 362.082L286.512 355.8C287.014 355.299 286.535 354.156 285.487 353.108L278.82 346.441C280.338 344.037 281.503 341.348 282.153 338.492H291.512C292.995 338.492 294.205 338.048 294.205 337.339V328.364C294.205 327.655 292.995 327.21 291.512 327.21H282.153C281.503 324.355 280.338 321.666 278.82 319.262L285.487 312.595C286.535 311.547 287.014 310.404 286.512 309.903L280.23 303.621C279.729 303.119 278.586 303.6 277.538 304.646L270.871 311.313C268.467 309.795 265.778 308.63 262.923 307.98V298.621C262.923 297.138 262.478 295.928 261.769 295.928H252.794ZM257.282 321.441C263.553 321.441 268.692 326.58 268.692 332.851C268.692 339.123 263.553 344.262 257.282 344.262C251.01 344.262 245.871 339.123 245.871 332.851C245.871 326.58 251.01 321.441 257.282 321.441Z" fill="#A8CEED"/>
<path opacity="0.4" d="M326.296 228.236H185.703C182.61 228.236 180.102 230.744 180.102 233.837V374.43C180.102 377.523 182.61 380.031 185.703 380.031H326.296C329.389 380.031 331.897 377.523 331.897 374.43V233.837C331.897 230.744 329.389 228.236 326.296 228.236Z" stroke="url(#paint1_linear_4_2)" stroke-width="4.10256" stroke-linecap="round" stroke-linejoin="round"/>
<defs>
<linearGradient id="paint0_linear_4_2" x1="47.999" y1="448.998" x2="463.999" y2="448.998" gradientUnits="userSpaceOnUse">
<stop stop-color="#62A0EA"/>
<stop offset="0.0576991" stop-color="#AFD4FF"/>
<stop offset="0.122204" stop-color="#62A0EA"/>
<stop offset="0.873306" stop-color="#62A0EA"/>
<stop offset="0.955997" stop-color="#C0D5EA"/>
<stop offset="1" stop-color="#62A0EA"/>
</linearGradient>
<linearGradient id="paint1_linear_4_2" x1="255.999" y1="226.185" x2="255.999" y2="382.082" gradientUnits="userSpaceOnUse">
<stop stop-color="#99C1F1"/>
<stop offset="1" stop-color="#C3E5E7"/>
</linearGradient>
</defs>
</svg>
