<svg width="512" height="512" viewBox="0 0 512 512" fill="none" xmlns="http://www.w3.org/2000/svg">
<path d="M87.9061 48.9045C65.7968 48.9045 47.9999 66.7134 47.9999 88.8265V432.281C47.9999 454.409 65.7968 472.203 87.9061 472.203H424.078C446.203 472.203 464 454.409 464 432.281V144.499C464 118.035 442.562 96.5926 416.109 96.5926H232C222.187 96.5926 213.219 91.0565 208.812 82.2924L202.797 70.347C196.172 57.2008 182.719 48.9045 168 48.9045H87.9061Z" fill="#438DE6"/>
<path d="M263.906 144.717C252.922 144.717 243 149.115 235.797 156.257C226.703 165.255 214.266 176.655 201.266 176.655H87.9061C65.7968 176.655 47.9999 194.464 47.9999 216.577V432.281C47.9999 454.409 65.7968 472.203 87.9061 472.203H424.078C446.203 472.203 464 454.409 464 432.281V184.639C464 162.526 446.203 144.717 424.078 144.717H263.906Z" fill="url(#paint0_linear_4_2)"/>
<path d="M263.906 128.749C252.922 128.749 243 133.146 235.797 140.288C226.703 149.287 214.266 160.686 201.266 160.686H87.9061C65.7968 160.686 47.9999 178.495 47.9999 200.608V424.078C47.9999 446.191 65.7968 464 87.9061 464H424.078C446.203 464 464 446.191 464 424.078V168.671C464 146.558 446.203 128.749 424.078 128.749H263.906Z" fill="#A4CAEE"/>
<path d="M305.59 240H206.41C202.87 240 200 242.864 200 246.398V345.383C200 348.917 202.87 351.781 206.41 351.781H305.59C309.13 351.781 312 348.917 312 345.383V246.398C312 242.864 309.13 240 305.59 240Z" fill="#428CE6" stroke="#428CE6" stroke-width="4.10256" stroke-linecap="round" stroke-linejoin="round"/>
<path opacity="0.05" d="M247.384 244.303C246.617 244.297 245.856 244.444 245.145 244.735C244.435 245.025 243.79 245.454 243.247 245.996C242.704 246.537 242.275 247.181 241.984 247.89C241.692 248.599 241.545 249.359 241.551 250.125V261.5H238.231C237.106 261.495 236.003 261.816 235.059 262.426C234.114 263.035 233.367 263.906 232.911 264.932C232.454 265.958 232.306 267.095 232.486 268.203C232.666 269.312 233.165 270.344 233.923 271.173L248.461 287.654C248.28 287.971 247.948 288.359 247.833 288.639C247.27 290.01 247.115 291.037 247.115 292.132V292.491L246.846 292.222C246.047 291.425 245.125 290.718 243.705 290.162C242.995 289.884 242.173 289.655 240.923 289.714C239.672 289.774 237.896 290.317 236.705 291.505L232.307 295.894C231.117 297.083 230.572 298.856 230.513 300.104C230.453 301.352 230.683 302.172 230.961 302.881C231.518 304.298 232.227 305.218 233.025 306.015L233.295 306.284H232.936C231.838 306.284 230.809 306.439 229.436 307.001C228.749 307.281 227.89 307.617 227.013 308.523C226.135 309.43 225.218 311.145 225.218 312.912V319.182C225.218 320.949 226.135 322.664 227.013 323.571C227.89 324.477 228.749 324.813 229.436 325.093C230.809 325.655 231.838 325.81 232.936 325.81H233.295L233.025 326.079C232.227 326.876 231.518 327.796 230.961 329.213C230.683 329.922 230.453 330.742 230.513 331.99C230.572 333.238 231.117 335.011 232.307 336.2L236.705 340.589C237.896 341.777 239.672 342.32 240.923 342.38C242.173 342.439 242.995 342.21 243.705 341.932C245.125 341.376 246.047 340.669 246.846 339.872L247.115 339.603V339.962C247.115 341.057 247.27 342.084 247.833 343.455C248.114 344.14 248.45 344.998 249.359 345.873C250.267 346.749 251.986 347.664 253.756 347.664H260.038C261.808 347.664 263.527 346.749 264.435 345.873C265.344 344.998 265.68 344.14 265.961 343.455C266.524 342.084 266.679 341.057 266.679 339.962V339.603L266.948 339.872C267.747 340.669 268.669 341.376 270.089 341.932C270.799 342.21 271.621 342.439 272.871 342.38C274.122 342.32 275.898 341.777 277.089 340.589L281.487 336.2C282.678 335.011 283.222 333.238 283.281 331.99C283.341 330.742 283.111 329.922 282.833 329.213C282.276 327.796 281.568 326.876 280.769 326.079L280.499 325.81H280.858C281.956 325.81 282.985 325.655 284.358 325.093C285.045 324.813 285.904 324.477 286.781 323.571C287.659 322.664 288.576 320.949 288.576 319.182V312.912C288.576 311.145 287.659 309.43 286.781 308.523C285.904 307.617 285.045 307.281 284.358 307.001C282.985 306.439 281.956 306.284 280.858 306.284H280.499L280.769 306.015C281.568 305.218 282.276 304.298 282.833 302.881C283.111 302.172 283.341 301.352 283.281 300.104C283.222 298.856 282.678 297.083 281.487 295.894L277.089 291.505C275.898 290.317 274.122 289.774 272.871 289.714C271.621 289.655 270.799 289.884 270.089 290.162C268.669 290.718 267.747 291.425 266.948 292.222L266.679 292.491V292.132C266.679 291.037 266.524 290.01 265.961 288.639C265.699 288.002 265.306 287.206 264.525 286.4L278.076 271.173C278.834 270.344 279.334 269.312 279.513 268.203C279.693 267.095 279.546 265.958 279.089 264.932C278.632 263.906 277.885 263.035 276.941 262.426C275.996 261.816 274.894 261.495 273.769 261.5H270.448V250.125C270.454 249.359 270.307 248.599 270.016 247.89C269.725 247.181 269.295 246.537 268.752 245.996C268.209 245.454 267.564 245.025 266.854 244.735C266.144 244.444 265.383 244.297 264.615 244.303H247.384ZM256.897 313.897C258.124 313.897 259.051 314.823 259.051 316.047C259.051 317.271 258.124 318.197 256.897 318.197C255.671 318.197 254.743 317.271 254.743 316.047C254.743 314.823 255.671 313.897 256.897 313.897Z" fill="black"/>
<path opacity="0.05" d="M247.115 247.348C246.424 247.412 245.781 247.733 245.316 248.247C244.851 248.762 244.596 249.432 244.602 250.125V264.545H238.231C237.703 264.551 237.188 264.708 236.746 264.996C236.305 265.284 235.955 265.692 235.738 266.172C235.521 266.652 235.446 267.184 235.522 267.705C235.598 268.226 235.822 268.715 236.166 269.113L252.769 287.833C252.313 288.01 251.787 288.106 251.512 288.371C251.027 288.839 250.786 289.298 250.615 289.714C250.273 290.547 250.166 291.338 250.166 292.132V296.88C249.447 297.137 248.78 297.445 248.102 297.775L244.692 294.372C244.119 293.799 243.482 293.362 242.628 293.028C242.201 292.861 241.681 292.728 241.013 292.759C240.344 292.791 239.474 293.041 238.859 293.655L234.461 298.044C233.846 298.658 233.596 299.526 233.564 300.194C233.532 300.861 233.666 301.38 233.833 301.806C234.168 302.658 234.606 303.294 235.179 303.866L238.589 307.269C238.259 307.945 237.95 308.611 237.692 309.33H232.936C232.14 309.33 231.347 309.436 230.513 309.777C230.095 309.948 229.636 310.188 229.166 310.673C228.697 311.158 228.269 312.003 228.269 312.912V319.182C228.269 320.091 228.697 320.936 229.166 321.421C229.636 321.906 230.095 322.146 230.513 322.317C231.347 322.658 232.14 322.765 232.936 322.765H237.692C237.95 323.483 238.259 324.149 238.589 324.825L235.179 328.228C234.606 328.801 234.168 329.436 233.833 330.288C233.666 330.715 233.532 331.233 233.564 331.901C233.596 332.568 233.846 333.436 234.461 334.05L238.859 338.439C239.474 339.053 240.344 339.303 241.013 339.335C241.681 339.367 242.201 339.233 242.628 339.066C243.482 338.732 244.119 338.295 244.692 337.723L248.102 334.319C248.78 334.649 249.447 334.957 250.166 335.215V339.962C250.166 340.756 250.273 341.547 250.615 342.38C250.786 342.797 251.027 343.255 251.512 343.724C251.998 344.192 252.845 344.619 253.756 344.619H260.038C260.949 344.619 261.796 344.192 262.282 343.724C262.767 343.255 263.008 342.797 263.179 342.38C263.521 341.547 263.628 340.756 263.628 339.962V335.215C264.347 334.957 265.015 334.649 265.692 334.319L269.102 337.723C269.675 338.295 270.312 338.732 271.166 339.066C271.593 339.233 272.113 339.367 272.782 339.335C273.45 339.303 274.32 339.053 274.935 338.439L279.333 334.05C279.948 333.436 280.198 332.568 280.23 331.901C280.262 331.233 280.129 330.715 279.961 330.288C279.626 329.436 279.188 328.801 278.615 328.228L275.205 324.825C275.536 324.149 275.844 323.483 276.102 322.765H280.858C281.654 322.765 282.447 322.658 283.282 322.317C283.699 322.146 284.158 321.906 284.628 321.421C285.097 320.936 285.525 320.091 285.525 319.182V312.912C285.525 312.003 285.097 311.158 284.628 310.673C284.158 310.188 283.699 309.948 283.282 309.777C282.447 309.436 281.654 309.33 280.858 309.33H276.102C275.844 308.611 275.536 307.945 275.205 307.269L278.615 303.866C279.188 303.294 279.626 302.658 279.961 301.806C280.129 301.38 280.262 300.861 280.23 300.194C280.198 299.526 279.948 298.658 279.333 298.044L274.935 293.655C274.32 293.041 273.45 292.791 272.782 292.759C272.113 292.727 271.593 292.861 271.166 293.028C270.312 293.362 269.675 293.799 269.102 294.372L265.692 297.775C265.015 297.445 264.347 297.137 263.628 296.88V292.132C263.628 291.338 263.521 290.547 263.179 289.714C263.008 289.298 262.767 288.839 262.282 288.371C261.796 287.902 260.949 287.475 260.038 287.475H259.589L275.833 269.113C276.178 268.715 276.401 268.226 276.477 267.705C276.553 267.184 276.478 266.652 276.261 266.172C276.044 265.692 275.694 265.284 275.253 264.996C274.811 264.708 274.296 264.551 273.769 264.545H267.397V250.125C267.399 249.76 267.328 249.398 267.189 249.06C267.05 248.723 266.845 248.416 266.586 248.157C266.328 247.899 266.02 247.695 265.682 247.556C265.343 247.417 264.981 247.347 264.615 247.348H247.384C247.295 247.344 247.205 247.344 247.115 247.348ZM256.897 310.852C259.775 310.852 262.102 313.175 262.102 316.047C262.102 318.919 259.775 321.242 256.897 321.242C254.019 321.242 251.692 318.919 251.692 316.047C251.692 313.175 254.019 310.852 256.897 310.852Z" fill="black"/>
<path d="M247.384 250.125V267.322H238.231L256 287.385L273.769 267.322H264.615V250.125H247.384ZM253.756 290.251C253.26 290.251 252.948 291.097 252.948 292.132V298.671C250.949 299.125 249.067 299.939 247.384 301L242.718 296.342C241.984 295.61 241.184 295.275 240.833 295.626L236.436 300.014C236.085 300.365 236.42 301.163 237.154 301.895L241.82 306.553C240.757 308.232 239.942 310.111 239.487 312.106H232.936C231.898 312.106 231.051 312.417 231.051 312.912V319.182C231.051 319.677 231.898 319.988 232.936 319.988H239.487C239.942 321.983 240.757 323.862 241.82 325.541L237.154 330.199C236.42 330.931 236.085 331.729 236.436 332.08L240.833 336.469C241.184 336.819 241.984 336.483 242.718 335.752L247.384 331.094C249.067 332.155 250.949 332.969 252.948 333.423V339.962C252.948 340.997 253.26 341.843 253.756 341.843H260.038C260.535 341.843 260.846 340.997 260.846 339.962V333.423C262.845 332.969 264.727 332.155 266.41 331.094L271.076 335.752C271.81 336.484 272.61 336.819 272.961 336.469L277.358 332.08C277.71 331.729 277.374 330.931 276.641 330.199L271.974 325.541C273.037 323.862 273.852 321.983 274.307 319.988H280.858C281.896 319.988 282.743 319.677 282.743 319.182V312.912C282.743 312.417 281.896 312.106 280.858 312.106H274.307C273.852 310.111 273.037 308.232 271.974 306.553L276.641 301.895C277.374 301.163 277.71 300.365 277.358 300.014L272.961 295.626C272.61 295.275 271.81 295.611 271.076 296.342L266.41 301C264.727 299.939 262.845 299.125 260.846 298.671V292.132C260.846 291.097 260.535 290.251 260.038 290.251H253.756ZM256.897 308.075C261.287 308.075 264.884 311.666 264.884 316.047C264.884 320.428 261.287 324.019 256.897 324.019C252.507 324.019 248.91 320.428 248.91 316.047C248.91 311.666 252.507 308.075 256.897 308.075Z" fill="#A8CEED"/>
<path opacity="0.4" d="M305.207 242.959H206.792C204.627 242.959 202.872 244.711 202.872 246.872V345.095C202.872 347.256 204.627 349.008 206.792 349.008H305.207C307.372 349.008 309.127 347.256 309.127 345.095V246.872C309.127 244.711 307.372 242.959 305.207 242.959Z" stroke="url(#paint1_linear_4_2)" stroke-width="4.10256" stroke-linecap="round" stroke-linejoin="round"/>
<defs>
<linearGradient id="paint0_linear_4_2" x1="47.999" y1="448.123" x2="463.999" y2="448.123" gradientUnits="userSpaceOnUse">
<stop stop-color="#62A0EA"/>
<stop offset="0.0576991" stop-color="#AFD4FF"/>
<stop offset="0.122204" stop-color="#62A0EA"/>
<stop offset="0.873306" stop-color="#62A0EA"/>
<stop offset="0.955997" stop-color="#C0D5EA"/>
<stop offset="1" stop-color="#62A0EA"/>
</linearGradient>
<linearGradient id="paint1_linear_4_2" x1="256" y1="241.526" x2="256" y2="350.441" gradientUnits="userSpaceOnUse">
<stop stop-color="#99C1F1"/>
<stop offset="1" stop-color="#C3E5E7"/>
</linearGradient>
</defs>
</svg>
