<svg width="600" height="600" viewBox="0 0 600 600" fill="none" xmlns="http://www.w3.org/2000/svg">
<path d="M87.9062 92C65.7969 92 48 109.844 48 132V476.125C48 498.297 65.7969 516.125 87.9062 516.125H424.078C446.203 516.125 464 498.297 464 476.125V187.781C464 161.266 442.562 139.781 416.109 139.781H232C222.188 139.781 213.219 134.234 208.812 125.453L202.797 113.484C196.172 100.312 182.719 92 168 92H87.9062Z" fill="#438DE6"/>
<path d="M263.906 188C252.922 188 243 192.406 235.797 199.562C226.703 208.578 214.266 220 201.266 220H87.9062C65.7969 220 48 237.844 48 260V476.125C48 498.297 65.7969 516.125 87.9062 516.125H424.078C446.203 516.125 464 498.297 464 476.125V228C464 205.844 446.203 188 424.078 188H263.906Z" fill="url(#paint0_linear_2_49)"/>
<path d="M263.906 172C252.922 172 243 176.406 235.797 183.562C226.703 192.578 214.266 204 201.266 204H87.9062C65.7969 204 48 221.844 48 244V467.906C48 490.063 65.7969 507.906 87.9062 507.906H424.078C446.203 507.906 464 490.063 464 467.906V212C464 189.844 446.203 172 424.078 172H263.906Z" fill="#A4CAEE"/>
<path d="M576 368C584.837 368 592 360.837 592 352C592 343.163 584.837 336 576 336C567.163 336 560 343.163 560 352C560 360.837 567.163 368 576 368Z" fill="#428CE6"/>
<path d="M560.241 96.5C558.168 96.5 556.5 98.1729 556.5 100.25V132.512C556.5 134.59 558.168 136.262 560.241 136.262H591.757C593.832 136.262 595.5 134.59 595.5 132.512V105.479C595.5 102.994 593.49 100.979 591.01 100.979H573.75C572.83 100.979 571.989 100.459 571.576 99.6362L571.012 98.5142C570.391 97.2793 569.13 96.5 567.75 96.5H560.241Z" fill="#438DE6"/>
<path d="M576.741 105.5C575.711 105.5 574.781 105.913 574.106 106.584C573.253 107.429 572.087 108.5 570.869 108.5H560.241C558.168 108.5 556.5 110.173 556.5 112.25V132.512C556.5 134.59 558.168 136.262 560.241 136.262H591.757C593.832 136.262 595.5 134.59 595.5 132.512V109.25C595.5 107.173 593.832 105.5 591.757 105.5H576.741Z" fill="url(#paint1_linear_2_49)"/>
<path d="M576.741 104C575.711 104 574.781 104.413 574.106 105.084C573.253 105.929 572.087 107 570.869 107H560.241C558.168 107 556.5 108.673 556.5 110.75V131.741C556.5 133.818 558.168 135.491 560.241 135.491H591.757C593.832 135.491 595.5 133.818 595.5 131.741V107.75C595.5 105.673 593.832 104 591.757 104H576.741Z" fill="#A4CAEE"/>
<defs>
<linearGradient id="paint0_linear_2_49" x1="47.9992" y1="491.998" x2="463.999" y2="491.998" gradientUnits="userSpaceOnUse">
<stop stop-color="#62A0EA"/>
<stop offset="0.0576991" stop-color="#AFD4FF"/>
<stop offset="0.122204" stop-color="#62A0EA"/>
<stop offset="0.873306" stop-color="#62A0EA"/>
<stop offset="0.955997" stop-color="#C0D5EA"/>
<stop offset="1" stop-color="#62A0EA"/>
</linearGradient>
<linearGradient id="paint1_linear_2_49" x1="556.5" y1="134" x2="595.5" y2="134" gradientUnits="userSpaceOnUse">
<stop stop-color="#62A0EA"/>
<stop offset="0.0576991" stop-color="#AFD4FF"/>
<stop offset="0.122204" stop-color="#62A0EA"/>
<stop offset="0.873306" stop-color="#62A0EA"/>
<stop offset="0.955997" stop-color="#C0D5EA"/>
<stop offset="1" stop-color="#62A0EA"/>
</linearGradient>
</defs>
</svg>
