<svg width="600" height="600" viewBox="0 0 600 600" fill="none" xmlns="http://www.w3.org/2000/svg">
<path d="M87.9062 92C65.7969 92 48 109.844 48 132V476.125C48 498.297 65.7969 516.125 87.9062 516.125H424.078C446.203 516.125 464 498.297 464 476.125V187.781C464 161.266 442.562 139.781 416.109 139.781H232C222.188 139.781 213.219 134.234 208.812 125.453L202.797 113.484C196.172 100.312 182.719 92 168 92H87.9062Z" fill="#438DE6"/>
<path d="M263.906 188C252.922 188 243 192.406 235.797 199.562C226.703 208.578 214.266 220 201.266 220H87.9062C65.7969 220 48 237.844 48 260V476.125C48 498.297 65.7969 516.125 87.9062 516.125H424.078C446.203 516.125 464 498.297 464 476.125V228C464 205.844 446.203 188 424.078 188H263.906Z" fill="url(#paint0_linear_2_49)"/>
<path d="M263.906 172C252.922 172 243 176.406 235.797 183.562C226.703 192.578 214.266 204 201.266 204H87.9062C65.7969 204 48 221.844 48 244V467.906C48 490.063 65.7969 507.906 87.9062 507.906H424.078C446.203 507.906 464 490.063 464 467.906V212C464 189.844 446.203 172 424.078 172H263.906Z" fill="#A4CAEE"/>
<path d="M576 368C584.837 368 592 360.837 592 352C592 343.163 584.837 336 576 336C567.163 336 560 343.163 560 352C560 360.837 567.163 368 576 368Z" fill="#428CE6"/>
<defs>
<linearGradient id="paint0_linear_2_49" x1="47.9992" y1="491.998" x2="463.999" y2="491.998" gradientUnits="userSpaceOnUse">
<stop stop-color="#62A0EA"/>
<stop offset="0.0576991" stop-color="#AFD4FF"/>
<stop offset="0.122204" stop-color="#62A0EA"/>
<stop offset="0.873306" stop-color="#62A0EA"/>
<stop offset="0.955997" stop-color="#C0D5EA"/>
<stop offset="1" stop-color="#62A0EA"/>
</linearGradient>
</defs>
</svg>
