<svg width="512" height="513" viewBox="0 0 512 513" fill="none" xmlns="http://www.w3.org/2000/svg">
<path d="M87.9062 49C65.7969 49 48 66.8438 48 89V433.125C48 455.297 65.7969 473.125 87.9062 473.125H424.078C446.203 473.125 464 455.297 464 433.125V144.781C464 118.266 442.562 96.7812 416.109 96.7812H232C222.188 96.7812 213.219 91.2344 208.812 82.4531L202.797 70.4844C196.172 57.3125 182.719 49 168 49H87.9062Z" fill="#438DE6"/>
<path d="M263.906 145C252.922 145 243 149.406 235.797 156.562C226.703 165.578 214.266 177 201.266 177H87.9062C65.7969 177 48 194.844 48 217V433.125C48 455.297 65.7969 473.125 87.9062 473.125H424.078C446.203 473.125 464 455.297 464 433.125V185C464 162.844 446.203 145 424.078 145H263.906Z" fill="url(#paint0_linear_5_9)"/>
<path d="M263.906 129C252.922 129 243 133.406 235.797 140.562C226.703 149.578 214.266 161 201.266 161H87.9062C65.7969 161 48 178.844 48 201V424.906C48 447.062 65.7969 464.906 87.9062 464.906H424.078C446.203 464.906 464 447.062 464 424.906V169C464 146.844 446.203 129 424.078 129H263.906Z" fill="#A4CAEE"/>
<path d="M256 253C225.071 253 200 278.071 200 309C200 339.929 225.071 365 256 365C286.929 365 312 339.929 312 309C312 278.071 286.929 253 256 253ZM285.069 328.803C285.069 329.764 284.294 330.538 283.334 330.538H276.02C275.059 330.538 274.284 329.764 274.284 328.803V306.273C274.284 306.087 274.068 305.994 273.913 306.118L258.417 321.613C257.085 322.946 254.884 322.946 253.552 321.613L238.056 306.118C237.932 305.994 237.685 306.087 237.685 306.273V328.803C237.685 329.764 236.91 330.538 235.949 330.538H228.635C227.675 330.538 226.9 329.764 226.9 328.803V289.197C226.9 288.236 227.675 287.462 228.635 287.462H233.656C234.555 287.462 235.453 287.833 236.104 288.484L255.38 307.76C255.721 308.101 256.248 308.101 256.589 307.76L275.865 288.484C276.516 287.833 277.383 287.462 278.313 287.462H283.334C284.294 287.462 285.069 288.236 285.069 289.197V328.803Z" fill="#428CE6"/>
<defs>
<linearGradient id="paint0_linear_5_9" x1="47.9992" y1="448.998" x2="463.999" y2="448.998" gradientUnits="userSpaceOnUse">
<stop stop-color="#62A0EA"/>
<stop offset="0.0576991" stop-color="#AFD4FF"/>
<stop offset="0.122204" stop-color="#62A0EA"/>
<stop offset="0.873306" stop-color="#62A0EA"/>
<stop offset="0.955997" stop-color="#C0D5EA"/>
<stop offset="1" stop-color="#62A0EA"/>
</linearGradient>
</defs>
</svg>
