<svg width="512" height="513" viewBox="0 0 512 513" fill="none" xmlns="http://www.w3.org/2000/svg">
<path d="M87.9062 49C65.7969 49 48 66.8438 48 89V433.125C48 455.297 65.7969 473.125 87.9062 473.125H424.078C446.203 473.125 464 455.297 464 433.125V144.781C464 118.266 442.562 96.7812 416.109 96.7812H232C222.188 96.7812 213.219 91.2344 208.812 82.4531L202.797 70.4844C196.172 57.3125 182.719 49 168 49H87.9062Z" fill="#438DE6"/>
<path d="M263.906 145C252.922 145 243 149.406 235.797 156.562C226.703 165.578 214.266 177 201.266 177H87.9062C65.7969 177 48 194.844 48 217V433.125C48 455.297 65.7969 473.125 87.9062 473.125H424.078C446.203 473.125 464 455.297 464 433.125V185C464 162.844 446.203 145 424.078 145H263.906Z" fill="url(#paint0_linear_5_9)"/>
<path d="M263.906 129C252.922 129 243 133.406 235.797 140.562C226.703 149.578 214.266 161 201.266 161H87.9062C65.7969 161 48 178.844 48 201V424.906C48 447.062 65.7969 464.906 87.9062 464.906H424.078C446.203 464.906 464 447.062 464 424.906V169C464 146.844 446.203 129 424.078 129H263.906Z" fill="#A4CAEE"/>
<path d="M256.119 224C211.985 224 176.208 259.776 176.208 303.91C176.208 348.045 211.985 383.821 256.119 383.821C300.253 383.821 336.029 348.045 336.029 303.91C336.029 259.776 300.253 224 256.119 224ZM297.6 332.169C297.6 333.54 296.494 334.645 295.123 334.645H284.687C283.316 334.645 282.21 333.54 282.21 332.169V300.019C282.21 299.753 281.901 299.621 281.68 299.798L259.568 321.909C257.667 323.811 254.527 323.811 252.625 321.909L230.514 299.798C230.337 299.621 229.983 299.753 229.983 300.019V332.169C229.983 333.54 228.878 334.645 227.507 334.645H217.07C215.699 334.645 214.594 333.54 214.594 332.169V275.652C214.594 274.281 215.699 273.176 217.07 273.176H224.234C225.517 273.176 226.799 273.706 227.728 274.635L255.234 302.141C255.721 302.628 256.473 302.628 256.959 302.141L284.466 274.635C285.394 273.706 286.632 273.176 287.959 273.176H295.123C296.494 273.176 297.6 274.281 297.6 275.652V332.169Z" fill="#428CE6"/>
<defs>
<linearGradient id="paint0_linear_5_9" x1="47.9992" y1="448.998" x2="463.999" y2="448.998" gradientUnits="userSpaceOnUse">
<stop stop-color="#62A0EA"/>
<stop offset="0.0576991" stop-color="#AFD4FF"/>
<stop offset="0.122204" stop-color="#62A0EA"/>
<stop offset="0.873306" stop-color="#62A0EA"/>
<stop offset="0.955997" stop-color="#C0D5EA"/>
<stop offset="1" stop-color="#62A0EA"/>
</linearGradient>
</defs>
</svg>
