<svg width="600" height="600" viewBox="0 0 600 600" fill="none" xmlns="http://www.w3.org/2000/svg">
<path d="M93.9062 105C71.7969 105 54 122.844 54 145V489.125C54 511.297 71.7969 529.125 93.9062 529.125H430.078C452.203 529.125 470 511.297 470 489.125V200.781C470 174.266 448.562 152.781 422.109 152.781H238C228.188 152.781 219.219 147.234 214.812 138.453L208.797 126.484C202.172 113.312 188.719 105 174 105H93.9062Z" fill="#438DE6"/>
<path d="M269.906 201C258.922 201 249 205.406 241.797 212.562C232.703 221.578 220.266 233 207.266 233H93.9062C71.7969 233 54 250.844 54 273V489.125C54 511.297 71.7969 529.125 93.9062 529.125H430.078C452.203 529.125 470 511.297 470 489.125V241C470 218.844 452.203 201 430.078 201H269.906Z" fill="url(#paint0_linear_2_139)"/>
<path d="M269.906 185C258.922 185 249 189.406 241.797 196.562C232.703 205.578 220.266 217 207.266 217H93.9062C71.7969 217 54 234.844 54 257V480.906C54 503.063 71.7969 520.906 93.9062 520.906H430.078C452.203 520.906 470 503.063 470 480.906V225C470 202.844 452.203 185 430.078 185H269.906Z" fill="#A4CAEE"/>
<path d="M235.333 280C227.99 280 222 285.989 222 293.333V306.666H182C174.656 306.666 168.667 312.656 168.667 320V426.667C168.667 434.011 174.656 440 182 440H342C349.344 440 355.333 434.011 355.333 426.667V320C355.333 312.656 349.344 306.666 342 306.666H302V293.333C302 285.989 296.011 280 288.667 280H235.333ZM262 320C291.479 320 315.333 343.856 315.333 373.333C315.333 402.811 291.479 426.667 262 426.667C232.573 426.667 208.667 402.811 208.667 373.333C208.667 343.856 232.573 320 262 320ZM262 346.667C247.26 346.667 235.333 358.592 235.333 373.333C235.333 388.074 247.26 400 262 400C276.74 400 288.667 388.074 288.667 373.333C288.667 358.592 276.74 346.667 262 346.667Z" fill="#428CE6"/>
<path d="M558.241 93C556.168 93 554.5 94.6729 554.5 96.75V129.012C554.5 131.09 556.168 132.762 558.241 132.762H589.757C591.832 132.762 593.5 131.09 593.5 129.012V101.979C593.5 99.4937 591.49 97.4795 589.01 97.4795H571.75C570.83 97.4795 569.989 96.9595 569.576 96.1362L569.012 95.0142C568.391 93.7793 567.13 93 565.75 93H558.241Z" fill="#438DE6"/>
<path d="M574.741 101C573.711 101 572.781 101.413 572.106 102.084C571.253 102.929 570.087 104 568.869 104H558.241C556.168 104 554.5 105.673 554.5 107.75V128.741C554.5 130.818 556.168 132.491 558.241 132.491H589.757C591.832 132.491 593.5 130.818 593.5 128.741V104.75C593.5 102.673 591.832 101 589.757 101H574.741Z" fill="#A4CAEE"/>
<path d="M571.333 110C570.599 110 570 110.599 570 111.333V112.667H566C565.265 112.667 564.667 113.266 564.667 114V124.667C564.667 125.401 565.265 126 566 126H582C582.734 126 583.333 125.401 583.333 124.667V114C583.333 113.266 582.734 112.667 582 112.667H578V111.333C578 110.599 577.401 110 576.667 110H571.333ZM574 114C576.948 114 579.333 116.386 579.333 119.333C579.333 122.281 576.948 124.667 574 124.667C571.057 124.667 568.667 122.281 568.667 119.333C568.667 116.386 571.057 114 574 114ZM574 116.667C572.526 116.667 571.333 117.859 571.333 119.333C571.333 120.807 572.526 122 574 122C575.474 122 576.667 120.807 576.667 119.333C576.667 117.859 575.474 116.667 574 116.667Z" fill="#428CE6"/>
<defs>
<linearGradient id="paint0_linear_2_139" x1="53.9992" y1="504.998" x2="469.999" y2="504.998" gradientUnits="userSpaceOnUse">
<stop stop-color="#62A0EA"/>
<stop offset="0.0576991" stop-color="#AFD4FF"/>
<stop offset="0.122204" stop-color="#62A0EA"/>
<stop offset="0.873306" stop-color="#62A0EA"/>
<stop offset="0.955997" stop-color="#C0D5EA"/>
<stop offset="1" stop-color="#62A0EA"/>
</linearGradient>
</defs>
</svg>
