<svg width="512" height="513" viewBox="0 0 512 513" fill="none" xmlns="http://www.w3.org/2000/svg">
<path d="M87.9062 49C65.7969 49 48 66.8438 48 89V433.125C48 455.297 65.7969 473.125 87.9062 473.125H424.078C446.203 473.125 464 455.297 464 433.125V144.781C464 118.266 442.562 96.7812 416.109 96.7812H232C222.188 96.7812 213.219 91.2344 208.812 82.4531L202.797 70.4844C196.172 57.3125 182.719 49 168 49H87.9062Z" fill="#438DE6"/>
<path d="M263.906 145C252.922 145 243 149.406 235.797 156.562C226.703 165.578 214.266 177 201.266 177H87.9062C65.7969 177 48 194.844 48 217V433.125C48 455.297 65.7969 473.125 87.9062 473.125H424.078C446.203 473.125 464 455.297 464 433.125V185C464 162.844 446.203 145 424.078 145H263.906Z" fill="url(#paint0_linear_5_3)"/>
<path d="M263.906 129C252.922 129 243 133.406 235.797 140.562C226.703 149.578 214.266 161 201.266 161H87.9062C65.7969 161 48 178.844 48 201V424.906C48 447.062 65.7969 464.906 87.9062 464.906H424.078C446.203 464.906 464 447.062 464 424.906V169C464 146.844 446.203 129 424.078 129H263.906Z" fill="#A4CAEE"/>
<path d="M256 253C241.316 253 227.234 258.77 216.762 269.051L235.793 302L263.738 253.602C261.168 253.219 258.598 253.027 256 253ZM270.957 255.105L251.953 288H307.871C301.336 271.895 287.719 259.727 270.957 255.105ZM211.895 274.602C204.211 284.418 200.027 296.531 200 309C200 313.73 200.629 318.434 201.832 323H239.84L211.895 274.602ZM272.16 295L300.105 343.398C307.789 333.582 311.973 321.469 312 309C312 304.27 311.371 299.566 310.168 295H272.16ZM276.207 316L248.262 364.398C250.832 364.781 253.402 364.972 256 365C270.684 365 284.766 359.23 295.238 348.922L276.207 316ZM204.129 330C210.664 346.105 224.281 358.273 241.043 362.895L260.047 330H204.129Z" fill="#428CE6"/>
<defs>
<linearGradient id="paint0_linear_5_3" x1="47.9992" y1="448.998" x2="463.999" y2="448.998" gradientUnits="userSpaceOnUse">
<stop stop-color="#62A0EA"/>
<stop offset="0.0576991" stop-color="#AFD4FF"/>
<stop offset="0.122204" stop-color="#62A0EA"/>
<stop offset="0.873306" stop-color="#62A0EA"/>
<stop offset="0.955997" stop-color="#C0D5EA"/>
<stop offset="1" stop-color="#62A0EA"/>
</linearGradient>
</defs>
</svg>
