<svg width="512" height="513" viewBox="0 0 512 513" fill="none" xmlns="http://www.w3.org/2000/svg">
<path d="M87.9062 49C65.7969 49 48 66.8438 48 89V433.125C48 455.297 65.7969 473.125 87.9062 473.125H424.078C446.203 473.125 464 455.297 464 433.125V144.781C464 118.266 442.562 96.7812 416.109 96.7812H232C222.188 96.7812 213.219 91.2344 208.812 82.4531L202.797 70.4844C196.172 57.3125 182.719 49 168 49H87.9062Z" fill="#438DE6"/>
<path d="M263.906 145C252.922 145 243 149.406 235.797 156.562C226.703 165.578 214.266 177 201.266 177H87.9062C65.7969 177 48 194.844 48 217V433.125C48 455.297 65.7969 473.125 87.9062 473.125H424.078C446.203 473.125 464 455.297 464 433.125V185C464 162.844 446.203 145 424.078 145H263.906Z" fill="url(#paint0_linear_2_142)"/>
<path d="M263.906 129C252.922 129 243 133.406 235.797 140.562C226.703 149.578 214.266 161 201.266 161H87.9062C65.7969 161 48 178.844 48 201V424.906C48 447.062 65.7969 464.906 87.9062 464.906H424.078C446.203 464.906 464 447.062 464 424.906V169C464 146.844 446.203 129 424.078 129H263.906Z" fill="#A4CAEE"/>
<path d="M237.667 253C232.526 253 228.333 257.192 228.333 262.333V271.666H200.333C195.193 271.666 191 275.859 191 281V355.667C191 360.808 195.193 365 200.333 365H312.334C317.474 365 321.667 360.808 321.667 355.667V281C321.667 275.859 317.474 271.666 312.334 271.666H284.333V262.333C284.333 257.192 280.141 253 275 253H237.667ZM256.333 281C276.969 281 293.667 297.699 293.667 318.333C293.667 338.967 276.969 355.667 256.333 355.667C235.734 355.667 219 338.967 219 318.333C219 297.699 235.734 281 256.333 281ZM256.333 299.667C246.016 299.667 237.667 308.014 237.667 318.333C237.667 328.652 246.016 337 256.333 337C266.651 337 275 328.652 275 318.333C275 308.014 266.651 299.667 256.333 299.667Z" fill="#428CE6"/>
<defs>
<linearGradient id="paint0_linear_2_142" x1="47.9992" y1="448.998" x2="463.999" y2="448.998" gradientUnits="userSpaceOnUse">
<stop stop-color="#62A0EA"/>
<stop offset="0.0576991" stop-color="#AFD4FF"/>
<stop offset="0.122204" stop-color="#62A0EA"/>
<stop offset="0.873306" stop-color="#62A0EA"/>
<stop offset="0.955997" stop-color="#C0D5EA"/>
<stop offset="1" stop-color="#62A0EA"/>
</linearGradient>
</defs>
</svg>
