<svg width="512" height="513" viewBox="0 0 512 513" fill="none" xmlns="http://www.w3.org/2000/svg">
<path d="M87.9062 49C65.7969 49 48 66.8438 48 89V433.125C48 455.297 65.7969 473.125 87.9062 473.125H424.078C446.203 473.125 464 455.297 464 433.125V144.781C464 118.266 442.562 96.7812 416.109 96.7812H232C222.188 96.7812 213.219 91.2344 208.812 82.4531L202.797 70.4844C196.172 57.3125 182.719 49 168 49H87.9062Z" fill="#438DE6"/>
<path d="M263.906 145C252.922 145 243 149.406 235.797 156.562C226.703 165.578 214.266 177 201.266 177H87.9062C65.7969 177 48 194.844 48 217V433.125C48 455.297 65.7969 473.125 87.9062 473.125H424.078C446.203 473.125 464 455.297 464 433.125V185C464 162.844 446.203 145 424.078 145H263.906Z" fill="url(#paint0_linear_5_3)"/>
<path d="M263.906 129C252.922 129 243 133.406 235.797 140.562C226.703 149.578 214.266 161 201.266 161H87.9062C65.7969 161 48 178.844 48 201V424.906C48 447.062 65.7969 464.906 87.9062 464.906H424.078C446.203 464.906 464 447.062 464 424.906V169C464 146.844 446.203 129 424.078 129H263.906Z" fill="#A4CAEE"/>
<path d="M256 224C235.023 224 214.906 232.242 199.945 246.93L227.133 294L267.055 224.859C263.383 224.312 259.711 224.039 256 224ZM277.367 227.008L250.219 274H330.102C320.766 250.992 301.313 233.609 277.367 227.008ZM192.992 254.859C182.015 268.883 176.039 286.188 176 304C176 310.758 176.898 317.477 178.617 324H232.914L192.992 254.859ZM279.086 284L319.008 353.141C329.985 339.117 335.961 321.813 336 304C336 297.242 335.102 290.524 333.383 284H279.086ZM284.867 314L244.945 383.141C248.617 383.688 252.289 383.961 256 384C276.977 384 297.094 375.758 312.055 361.031L284.867 314ZM181.898 334C191.234 357.008 210.687 374.391 234.633 380.993L261.781 334H181.898Z" fill="#428CE6"/>
<defs>
<linearGradient id="paint0_linear_5_3" x1="47.9992" y1="448.998" x2="463.999" y2="448.998" gradientUnits="userSpaceOnUse">
<stop stop-color="#62A0EA"/>
<stop offset="0.0576991" stop-color="#AFD4FF"/>
<stop offset="0.122204" stop-color="#62A0EA"/>
<stop offset="0.873306" stop-color="#62A0EA"/>
<stop offset="0.955997" stop-color="#C0D5EA"/>
<stop offset="1" stop-color="#62A0EA"/>
</linearGradient>
</defs>
</svg>
