<svg width="600" height="600" viewBox="0 0 600 600" fill="none" xmlns="http://www.w3.org/2000/svg">
<path d="M93.9061 105C71.7968 105 53.9999 122.844 53.9999 145V489.125C53.9999 511.297 71.7968 529.125 93.9061 529.125H430.078C452.203 529.125 470 511.297 470 489.125V200.781C470 174.266 448.562 152.781 422.109 152.781H238C228.187 152.781 219.219 147.234 214.812 138.453L208.797 126.484C202.172 113.312 188.719 105 174 105H93.9061Z" fill="#438DE6"/>
<path d="M269.906 201C258.922 201 249 205.406 241.797 212.562C232.703 221.578 220.266 233 207.266 233H93.9061C71.7968 233 53.9999 250.844 53.9999 273V489.125C53.9999 511.297 71.7968 529.125 93.9061 529.125H430.078C452.203 529.125 470 511.297 470 489.125V241C470 218.844 452.203 201 430.078 201H269.906Z" fill="url(#paint0_linear_2_288)"/>
<path d="M269.906 185C258.922 185 249 189.406 241.797 196.562C232.703 205.578 220.266 217 207.266 217H93.9061C71.7968 217 53.9999 234.844 53.9999 257V480.906C53.9999 503.063 71.7968 520.906 93.9061 520.906H430.078C452.203 520.906 470 503.063 470 480.906V225C470 202.844 452.203 185 430.078 185H269.906Z" fill="#A4CAEE"/>
<path d="M558.241 93C556.168 93 554.5 94.6729 554.5 96.75V129.012C554.5 131.09 556.168 132.762 558.241 132.762H589.757C591.832 132.762 593.5 131.09 593.5 129.012V101.979C593.5 99.4937 591.49 97.4795 589.01 97.4795H571.75C570.83 97.4795 569.989 96.9595 569.576 96.1362L569.012 95.0142C568.391 93.7793 567.13 93 565.75 93H558.241Z" fill="#438DE6"/>
<path d="M574.741 101C573.711 101 572.781 101.413 572.106 102.084C571.253 102.929 570.087 104 568.869 104H558.241C556.168 104 554.5 105.673 554.5 107.75V128.741C554.5 130.818 556.168 132.491 558.241 132.491H589.757C591.832 132.491 593.5 130.818 593.5 128.741V104.75C593.5 102.673 591.832 101 589.757 101H574.741Z" fill="#A4CAEE"/>
<path d="M261.947 280C257.366 280 253.284 282.916 251.826 287.289L236.373 333.564L187.433 333.397C176.979 333.355 172.688 346.809 181.227 352.807L219.88 380.047L203.885 425.739C200.512 435.36 211.216 443.774 219.796 438.234L262.489 410.578L304.015 438.151C312.554 443.815 323.383 435.402 320.01 425.78L303.974 380.047L342.835 352.557C351.248 346.559 347.041 333.272 336.712 333.231L287.022 333.065L272.069 287.373C270.652 283 266.571 280.042 261.947 280Z" fill="#428CE6"/>
<path d="M573.995 110C573.537 110 573.128 110.292 572.983 110.729L571.437 115.356L566.543 115.34C565.498 115.335 565.069 116.681 565.923 117.281L569.788 120.005L568.189 124.574C567.851 125.536 568.922 126.377 569.78 125.823L574.049 123.058L578.202 125.815C579.055 126.381 580.138 125.54 579.801 124.578L578.197 120.005L582.083 117.256C582.925 116.656 582.504 115.327 581.471 115.323L576.502 115.306L575.007 110.737C574.865 110.3 574.457 110.004 573.995 110Z" fill="#428CE6"/>
<defs>
<linearGradient id="paint0_linear_2_288" x1="53.999" y1="504.998" x2="469.999" y2="504.998" gradientUnits="userSpaceOnUse">
<stop stop-color="#62A0EA"/>
<stop offset="0.0576991" stop-color="#AFD4FF"/>
<stop offset="0.122204" stop-color="#62A0EA"/>
<stop offset="0.873306" stop-color="#62A0EA"/>
<stop offset="0.955997" stop-color="#C0D5EA"/>
<stop offset="1" stop-color="#62A0EA"/>
</linearGradient>
</defs>
</svg>
