<svg width="512" height="513" viewBox="0 0 512 513" fill="none" xmlns="http://www.w3.org/2000/svg">
<path d="M87.9061 49C65.7968 49 47.9999 66.8438 47.9999 89V433.125C47.9999 455.297 65.7968 473.125 87.9061 473.125H424.078C446.203 473.125 464 455.297 464 433.125V144.781C464 118.266 442.562 96.7812 416.109 96.7812H232C222.187 96.7812 213.219 91.2344 208.812 82.4531L202.797 70.4844C196.172 57.3125 182.719 49 168 49H87.9061Z" fill="#438DE6"/>
<path d="M263.906 145C252.922 145 243 149.406 235.797 156.562C226.703 165.578 214.266 177 201.266 177H87.9061C65.7968 177 47.9999 194.844 47.9999 217V433.125C47.9999 455.297 65.7968 473.125 87.9061 473.125H424.078C446.203 473.125 464 455.297 464 433.125V185C464 162.844 446.203 145 424.078 145H263.906Z" fill="url(#paint0_linear_5_22)"/>
<path d="M263.906 129C252.922 129 243 133.406 235.797 140.562C226.703 149.578 214.266 161 201.266 161H87.9061C65.7968 161 47.9999 178.844 47.9999 201V424.906C47.9999 447.062 65.7968 464.906 87.9061 464.906H424.078C446.203 464.906 464 447.062 464 424.906V169C464 146.844 446.203 129 424.078 129H263.906Z" fill="#A4CAEE"/>
<mask id="mask0_5_22" style="mask-type:luminance" maskUnits="userSpaceOnUse" x="187" y="228" width="138" height="138">
<path d="M187 228H325V366H187V228ZM258.175 269.748C287.085 274.584 273.693 278.601 251.157 274.23C245.336 273.101 242.359 273.898 241.357 275.266C236.925 281.312 252.288 291.65 259.432 295.876C224.745 287.231 208.903 310.934 253.877 320.689C257.724 321.524 265.105 321.823 265.086 322.931C265.083 324.121 246.124 324.221 236.123 324.526C242.944 326.35 259.345 327.591 270.009 326.581C280.374 325.6 284.901 322.081 271.828 318.866C265.081 317.207 238.639 312.192 241.425 306.85C245.494 299.048 263.082 300.927 273.328 299.861C248.136 282.545 242.421 278.465 276.608 282.922C285.552 284.907 288.539 269.778 273.536 269.18C270.231 269.049 263.177 269.46 258.184 269.748" fill="white"/>
</mask>
<g mask="url(#mask0_5_22)">
<path d="M257.737 354.737C288.665 354.737 313.737 329.665 313.737 298.737C313.737 267.809 288.665 242.737 257.737 242.737C226.809 242.737 201.737 267.809 201.737 298.737C201.737 329.665 226.809 354.737 257.737 354.737Z" fill="#428CE6"/>
<path d="M257.737 354.737C288.665 354.737 313.737 329.665 313.737 298.737C313.737 267.809 288.665 242.737 257.737 242.737C226.809 242.737 201.737 267.809 201.737 298.737C201.737 329.665 226.809 354.737 257.737 354.737Z" fill="#428CE6"/>
</g>
<defs>
<linearGradient id="paint0_linear_5_22" x1="47.9991" y1="448.998" x2="463.999" y2="448.998" gradientUnits="userSpaceOnUse">
<stop stop-color="#62A0EA"/>
<stop offset="0.0576991" stop-color="#AFD4FF"/>
<stop offset="0.122204" stop-color="#62A0EA"/>
<stop offset="0.873306" stop-color="#62A0EA"/>
<stop offset="0.955997" stop-color="#C0D5EA"/>
<stop offset="1" stop-color="#62A0EA"/>
</linearGradient>
</defs>
</svg>
