<svg width="512" height="513" viewBox="0 0 512 513" fill="none" xmlns="http://www.w3.org/2000/svg">
<path d="M87.9061 49C65.7968 49 47.9999 66.8438 47.9999 89V433.125C47.9999 455.297 65.7968 473.125 87.9061 473.125H424.078C446.203 473.125 464 455.297 464 433.125V144.781C464 118.266 442.562 96.7812 416.109 96.7812H232C222.187 96.7812 213.219 91.2344 208.812 82.4531L202.797 70.4844C196.172 57.3125 182.719 49 168 49H87.9061Z" fill="#438DE6"/>
<path d="M263.906 145C252.922 145 243 149.406 235.797 156.562C226.703 165.578 214.266 177 201.266 177H87.9061C65.7968 177 47.9999 194.844 47.9999 217V433.125C47.9999 455.297 65.7968 473.125 87.9061 473.125H424.078C446.203 473.125 464 455.297 464 433.125V185C464 162.844 446.203 145 424.078 145H263.906Z" fill="url(#paint0_linear_5_22)"/>
<path d="M263.906 129C252.922 129 243 133.406 235.797 140.562C226.703 149.578 214.266 161 201.266 161H87.9061C65.7968 161 47.9999 178.844 47.9999 201V424.906C47.9999 447.062 65.7968 464.906 87.9061 464.906H424.078C446.203 464.906 464 447.062 464 424.906V169C464 146.844 446.203 129 424.078 129H263.906Z" fill="#A4CAEE"/>
<mask id="mask0_5_22" style="mask-type:luminance" maskUnits="userSpaceOnUse" x="147" y="195" width="218" height="218">
<path d="M147.428 195.428H364.571V412.571H147.428V195.428ZM259.423 261.119C304.913 268.729 283.839 275.049 248.379 268.172C239.219 266.395 234.536 267.649 232.959 269.802C225.986 279.315 250.159 295.582 261.399 302.232C206.82 288.629 181.893 325.925 252.659 341.275C258.713 342.589 270.326 343.058 270.296 344.802C270.293 346.675 240.459 346.832 224.723 347.312C235.456 350.182 261.263 352.135 278.043 350.545C294.353 349.002 301.476 343.465 280.906 338.405C270.289 335.795 228.683 327.905 233.066 319.499C239.469 307.222 267.143 310.179 283.266 308.502C243.626 281.255 234.633 274.835 288.426 281.849C302.499 284.972 307.199 261.165 283.593 260.225C278.393 260.019 267.293 260.665 259.436 261.119" fill="white"/>
</mask>
<g mask="url(#mask0_5_22)">
<path d="M256 384C300.183 384 336 348.183 336 304C336 259.817 300.183 224 256 224C211.817 224 176 259.817 176 304C176 348.183 211.817 384 256 384Z" fill="#428CE6"/>
<path d="M256 384C300.183 384 336 348.183 336 304C336 259.817 300.183 224 256 224C211.817 224 176 259.817 176 304C176 348.183 211.817 384 256 384Z" fill="#428CE6"/>
</g>
<defs>
<linearGradient id="paint0_linear_5_22" x1="47.9991" y1="448.998" x2="463.999" y2="448.998" gradientUnits="userSpaceOnUse">
<stop stop-color="#62A0EA"/>
<stop offset="0.0576991" stop-color="#AFD4FF"/>
<stop offset="0.122204" stop-color="#62A0EA"/>
<stop offset="0.873306" stop-color="#62A0EA"/>
<stop offset="0.955997" stop-color="#C0D5EA"/>
<stop offset="1" stop-color="#62A0EA"/>
</linearGradient>
</defs>
</svg>
