<svg width="512" height="513" viewBox="0 0 512 513" fill="none" xmlns="http://www.w3.org/2000/svg">
<path d="M87.9062 49C65.7969 49 48 66.8438 48 89V433.125C48 455.297 65.7969 473.125 87.9062 473.125H424.078C446.203 473.125 464 455.297 464 433.125V144.781C464 118.266 442.562 96.7812 416.109 96.7812H232C222.188 96.7812 213.219 91.2344 208.812 82.4531L202.797 70.4844C196.172 57.3125 182.719 49 168 49H87.9062Z" fill="#438DE6"/>
<path d="M263.906 145C252.922 145 243 149.406 235.797 156.562C226.703 165.578 214.266 177 201.266 177H87.9062C65.7969 177 48 194.844 48 217V433.125C48 455.297 65.7969 473.125 87.9062 473.125H424.078C446.203 473.125 464 455.297 464 433.125V185C464 162.844 446.203 145 424.078 145H263.906Z" fill="url(#paint0_linear_5_11)"/>
<path d="M263.906 129C252.922 129 243 133.406 235.797 140.562C226.703 149.578 214.266 161 201.266 161H87.9062C65.7969 161 48 178.844 48 201V424.906C48 447.062 65.7969 464.906 87.9062 464.906H424.078C446.203 464.906 464 447.062 464 424.906V169C464 146.844 446.203 129 424.078 129H263.906Z" fill="#A4CAEE"/>
<path d="M254.826 224.032C232.332 224.365 202.09 232.571 202.59 258.981C203.132 286.598 233.749 276.726 236.248 287.973C236.623 287.514 237.164 287.098 237.539 286.64C239.664 284.391 241.746 282.516 243.871 280.308C247.203 276.559 250.661 273.102 254.16 269.311C265.99 256.773 266.49 255.982 294.69 234.654C283.652 228.073 270.572 224.407 259.492 224.032C258.075 223.989 256.368 223.989 254.826 224.032ZM320.35 224.032C301.189 237.862 275.529 259.231 255.16 280.892C253.327 282.849 251.535 284.765 249.786 286.723C248.703 287.89 247.537 288.806 246.454 290.014C245.745 290.847 245.079 291.722 244.412 292.555C230.541 307.884 216.878 325.921 205.506 342.5C202.215 340.834 198.05 340.667 193.593 343.583C185.553 348.873 187.22 367.951 170.682 367.951C172.265 374.366 189.177 374.283 200.633 371.409C211.421 368.701 214.754 359.245 212.713 351.289C212.38 350.164 211.88 349.04 211.171 347.873C232.332 330.378 247.287 315.84 257.492 304.968C260.075 302.344 263.157 298.928 266.573 295.096C279.445 280.892 297.773 258.481 320.35 224.032ZM234.582 240.319C243.371 240.319 250.494 247.484 250.494 256.315C250.494 265.188 243.371 272.311 234.582 272.311C225.751 272.311 218.586 265.188 218.586 256.315C218.586 247.484 225.751 240.319 234.582 240.319ZM312.061 247.401C296.94 271.227 286.818 285.307 276.154 296.304C269.322 303.344 263.74 310.3 258.825 315.299C249.911 324.796 238.164 336.002 225.251 348.29C225.917 363.952 233.874 377.574 259.825 382.614C301.397 390.695 345.427 363.161 341.011 307.301C339.095 283.349 326.015 261.647 312.061 247.401ZM315.726 287.973C321.558 287.973 326.349 292.763 326.349 298.637C326.349 304.552 321.558 309.3 315.726 309.3C309.895 309.3 305.104 304.552 305.104 298.637C305.104 292.763 309.895 287.973 315.726 287.973ZM309.061 319.964C314.893 319.964 319.684 324.755 319.684 330.628C319.684 336.543 314.893 341.292 309.061 341.292C303.23 341.292 298.439 336.543 298.439 330.628C298.439 324.755 303.23 319.964 309.061 319.964ZM255.826 341.292C261.699 341.292 266.49 346.082 266.49 351.956C266.49 357.829 261.699 362.619 255.826 362.619C249.994 362.619 245.204 357.829 245.204 351.956C245.204 346.082 249.994 341.292 255.826 341.292ZM287.776 341.292C293.607 341.292 298.439 346.082 298.439 351.956C298.439 357.829 293.607 362.619 287.776 362.619C281.944 362.619 277.154 357.829 277.154 351.956C277.154 346.082 281.944 341.292 287.776 341.292Z" fill="#428CE6"/>
<defs>
<linearGradient id="paint0_linear_5_11" x1="47.9992" y1="448.998" x2="463.999" y2="448.998" gradientUnits="userSpaceOnUse">
<stop stop-color="#62A0EA"/>
<stop offset="0.0576991" stop-color="#AFD4FF"/>
<stop offset="0.122204" stop-color="#62A0EA"/>
<stop offset="0.873306" stop-color="#62A0EA"/>
<stop offset="0.955997" stop-color="#C0D5EA"/>
<stop offset="1" stop-color="#62A0EA"/>
</linearGradient>
</defs>
</svg>
