<svg width="512" height="513" viewBox="0 0 512 513" fill="none" xmlns="http://www.w3.org/2000/svg">
<path d="M87.9062 49C65.7969 49 48 66.8438 48 89V433.125C48 455.297 65.7969 473.125 87.9062 473.125H424.078C446.203 473.125 464 455.297 464 433.125V144.781C464 118.266 442.562 96.7812 416.109 96.7812H232C222.188 96.7812 213.219 91.2344 208.812 82.4531L202.797 70.4844C196.172 57.3125 182.719 49 168 49H87.9062Z" fill="#438DE6"/>
<path d="M263.906 145C252.922 145 243 149.406 235.797 156.562C226.703 165.578 214.266 177 201.266 177H87.9062C65.7969 177 48 194.844 48 217V433.125C48 455.297 65.7969 473.125 87.9062 473.125H424.078C446.203 473.125 464 455.297 464 433.125V185C464 162.844 446.203 145 424.078 145H263.906Z" fill="url(#paint0_linear_5_11)"/>
<path d="M263.906 129C252.922 129 243 133.406 235.797 140.562C226.703 149.578 214.266 161 201.266 161H87.9062C65.7969 161 48 178.844 48 201V424.906C48 447.062 65.7969 464.906 87.9062 464.906H424.078C446.203 464.906 464 447.062 464 424.906V169C464 146.844 446.203 129 424.078 129H263.906Z" fill="#A4CAEE"/>
<path d="M254.901 253.022C239.155 253.255 217.986 259 218.336 277.487C218.715 296.819 240.146 289.908 241.896 297.781C242.159 297.46 242.537 297.169 242.8 296.848C244.287 295.273 245.745 293.961 247.232 292.416C249.565 289.792 251.985 287.371 254.434 284.718C262.715 275.941 263.065 275.387 282.806 260.458C275.079 255.851 265.923 253.285 258.167 253.022C257.175 252.993 255.98 252.993 254.901 253.022ZM300.767 253.022C287.354 262.703 269.393 277.662 255.134 292.824C253.851 294.195 252.597 295.536 251.372 296.906C250.614 297.723 249.798 298.364 249.04 299.21C248.544 299.793 248.078 300.405 247.611 300.989C237.901 311.719 228.337 324.345 220.377 335.95C218.073 334.784 215.157 334.667 212.037 336.708C206.41 340.411 207.576 353.766 196 353.766C197.108 358.256 208.947 358.198 216.965 356.186C224.517 354.291 226.85 347.672 225.421 342.102C225.188 341.315 224.838 340.528 224.342 339.711C239.155 327.465 249.623 317.288 256.767 309.678C258.575 307.841 260.732 305.45 263.123 302.767C272.134 292.824 284.963 277.137 300.767 253.022ZM240.73 264.423C246.882 264.423 251.868 269.439 251.868 275.62C251.868 281.831 246.882 286.817 240.73 286.817C234.548 286.817 229.533 281.831 229.533 275.62C229.533 269.439 234.548 264.423 240.73 264.423ZM294.965 269.38C284.38 286.059 277.295 295.915 269.83 303.613C265.048 308.541 261.141 313.41 257.7 316.909C251.46 323.557 243.237 331.401 234.198 340.003C234.665 350.967 240.234 360.502 258.4 364.03C287.5 369.687 318.321 350.413 315.23 311.311C313.889 294.544 304.733 279.353 294.965 269.38ZM297.531 297.781C301.613 297.781 304.966 301.134 304.966 305.246C304.966 309.386 301.613 312.71 297.531 312.71C293.449 312.71 290.095 309.386 290.095 305.246C290.095 301.134 293.449 297.781 297.531 297.781ZM292.865 320.175C296.948 320.175 300.301 323.528 300.301 327.64C300.301 331.78 296.948 335.104 292.865 335.104C288.783 335.104 285.43 331.78 285.43 327.64C285.43 323.528 288.783 320.175 292.865 320.175ZM255.601 335.104C259.712 335.104 263.065 338.458 263.065 342.569C263.065 346.68 259.712 350.034 255.601 350.034C251.518 350.034 248.165 346.68 248.165 342.569C248.165 338.458 251.518 335.104 255.601 335.104ZM277.965 335.104C282.047 335.104 285.43 338.458 285.43 342.569C285.43 346.68 282.047 350.034 277.965 350.034C273.883 350.034 270.53 346.68 270.53 342.569C270.53 338.458 273.883 335.104 277.965 335.104Z" fill="#428CE6"/>
<defs>
<linearGradient id="paint0_linear_5_11" x1="47.9992" y1="448.998" x2="463.999" y2="448.998" gradientUnits="userSpaceOnUse">
<stop stop-color="#62A0EA"/>
<stop offset="0.0576991" stop-color="#AFD4FF"/>
<stop offset="0.122204" stop-color="#62A0EA"/>
<stop offset="0.873306" stop-color="#62A0EA"/>
<stop offset="0.955997" stop-color="#C0D5EA"/>
<stop offset="1" stop-color="#62A0EA"/>
</linearGradient>
</defs>
</svg>
