<svg width="600" height="600" viewBox="0 0 600 600" fill="none" xmlns="http://www.w3.org/2000/svg">
<path d="M93.9062 105C71.7969 105 54 122.844 54 145V489.125C54 511.297 71.7969 529.125 93.9062 529.125H430.078C452.203 529.125 470 511.297 470 489.125V200.781C470 174.266 448.562 152.781 422.109 152.781H238C228.188 152.781 219.219 147.234 214.812 138.453L208.797 126.484C202.172 113.312 188.719 105 174 105H93.9062Z" fill="#438DE6"/>
<path d="M269.906 201C258.922 201 249 205.406 241.797 212.562C232.703 221.578 220.266 233 207.266 233H93.9062C71.7969 233 54 250.844 54 273V489.125C54 511.297 71.7969 529.125 93.9062 529.125H430.078C452.203 529.125 470 511.297 470 489.125V241C470 218.844 452.203 201 430.078 201H269.906Z" fill="url(#paint0_linear_2_166)"/>
<path d="M269.906 185C258.922 185 249 189.406 241.797 196.562C232.703 205.578 220.266 217 207.266 217H93.9062C71.7969 217 54 234.844 54 257V480.906C54 503.063 71.7969 520.906 93.9062 520.906H430.078C452.203 520.906 470 503.063 470 480.906V225C470 202.844 452.203 185 430.078 185H269.906Z" fill="#A4CAEE"/>
<path d="M558.241 93C556.168 93 554.5 94.6729 554.5 96.75V129.012C554.5 131.09 556.168 132.762 558.241 132.762H589.757C591.832 132.762 593.5 131.09 593.5 129.012V101.979C593.5 99.4937 591.49 97.4795 589.01 97.4795H571.75C570.83 97.4795 569.989 96.9595 569.576 96.1362L569.012 95.0142C568.391 93.7793 567.13 93 565.75 93H558.241Z" fill="#438DE6"/>
<path d="M574.741 101C573.711 101 572.781 101.413 572.106 102.084C571.253 102.929 570.087 104 568.869 104H558.241C556.168 104 554.5 105.673 554.5 107.75V128.741C554.5 130.818 556.168 132.491 558.241 132.491H589.757C591.832 132.491 593.5 130.818 593.5 128.741V104.75C593.5 102.673 591.832 101 589.757 101H574.741Z" fill="#A4CAEE"/>
<path d="M212 280C195.555 280 182 293.555 182 310V380C182 396.445 195.555 410 212 410H242V390H212C206.453 390 202 385.547 202 380V310C202 304.297 206.297 300 212 300H312C317.703 300 322 304.297 322 310V380C322 385.547 317.547 390 312 390H302V410H312C328.445 410 342 396.445 342 380V310C342 293.555 328.445 280 312 280H212ZM272 320C255.438 320 242 333.437 242 350C242 358.516 245.633 366.641 252 372.344V440L272 425L292 440V372.344C298.367 366.641 302 358.516 302 350C302 333.437 288.563 320 272 320Z" fill="#428CE6"/>
<path d="M569 110C567.355 110 566 111.355 566 113V120C566 121.645 567.355 123 569 123H572V121H569C568.445 121 568 120.555 568 120V113C568 112.43 568.43 112 569 112H579C579.57 112 580 112.43 580 113V120C580 120.555 579.555 121 579 121H578V123H579C580.645 123 582 121.645 582 120V113C582 111.355 580.645 110 579 110H569ZM575 114C573.344 114 572 115.344 572 117C572 117.852 572.363 118.664 573 119.234V126L575 124.5L577 126V119.234C577.637 118.664 578 117.852 578 117C578 115.344 576.656 114 575 114Z" fill="#428CE6"/>
<defs>
<linearGradient id="paint0_linear_2_166" x1="53.9992" y1="504.998" x2="469.999" y2="504.998" gradientUnits="userSpaceOnUse">
<stop stop-color="#62A0EA"/>
<stop offset="0.0576991" stop-color="#AFD4FF"/>
<stop offset="0.122204" stop-color="#62A0EA"/>
<stop offset="0.873306" stop-color="#62A0EA"/>
<stop offset="0.955997" stop-color="#C0D5EA"/>
<stop offset="1" stop-color="#62A0EA"/>
</linearGradient>
</defs>
</svg>
