<svg width="600" height="600" viewBox="0 0 600 600" fill="none" xmlns="http://www.w3.org/2000/svg">
<path d="M93.9062 105C71.7969 105 54 122.844 54 145V489.125C54 511.297 71.7969 529.125 93.9062 529.125H430.078C452.203 529.125 470 511.297 470 489.125V200.781C470 174.266 448.562 152.781 422.109 152.781H238C228.188 152.781 219.219 147.234 214.812 138.453L208.797 126.484C202.172 113.312 188.719 105 174 105H93.9062Z" fill="#438DE6"/>
<path d="M269.906 201C258.922 201 249 205.406 241.797 212.562C232.703 221.578 220.266 233 207.266 233H93.9062C71.7969 233 54 250.844 54 273V489.125C54 511.297 71.7969 529.125 93.9062 529.125H430.078C452.203 529.125 470 511.297 470 489.125V241C470 218.844 452.203 201 430.078 201H269.906Z" fill="url(#paint0_linear_2_353)"/>
<path d="M269.906 185C258.922 185 249 189.406 241.797 196.562C232.703 205.578 220.266 217 207.266 217H93.9062C71.7969 217 54 234.844 54 257V480.906C54 503.063 71.7969 520.906 93.9062 520.906H430.078C452.203 520.906 470 503.063 470 480.906V225C470 202.844 452.203 185 430.078 185H269.906Z" fill="#A4CAEE"/>
<path d="M558.241 93C556.168 93 554.5 94.6729 554.5 96.75V129.012C554.5 131.09 556.168 132.762 558.241 132.762H589.757C591.832 132.762 593.5 131.09 593.5 129.012V101.979C593.5 99.4937 591.49 97.4795 589.01 97.4795H571.75C570.83 97.4795 569.989 96.9595 569.576 96.1362L569.012 95.0142C568.391 93.7793 567.13 93 565.75 93H558.241Z" fill="#438DE6"/>
<path d="M574.741 101C573.711 101 572.781 101.413 572.106 102.084C571.253 102.929 570.087 104 568.869 104H558.241C556.168 104 554.5 105.673 554.5 107.75V128.741C554.5 130.818 556.168 132.491 558.241 132.491H589.757C591.832 132.491 593.5 130.818 593.5 128.741V104.75C593.5 102.673 591.832 101 589.757 101H574.741Z" fill="#A4CAEE"/>
<path d="M262.015 280C259.436 280 256.897 280.977 254.944 282.93L239.085 298.789L291.468 351.133C293.226 350.391 295.101 350 297.015 350C305.296 350 312.015 356.719 312.015 365C312.015 373.281 305.296 380 297.015 380C288.733 380 282.015 373.281 282.015 365C282.015 363.164 282.367 361.367 283.03 359.687L262.522 339.18V381.055C268.265 383.32 272.015 388.828 272.015 395C272.015 403.281 265.296 410 257.015 410C248.733 410 242.015 403.281 242.015 395C242.015 388.437 246.272 382.656 252.522 380.703V329.18L230.608 307.266L184.944 352.93C181.038 356.836 181.038 363.164 184.944 367.07L254.944 437.07C258.851 440.977 265.179 440.977 269.085 437.07L339.085 367.07C342.952 363.164 342.952 356.836 339.085 352.93L269.085 282.93C267.132 280.977 264.593 280 262.015 280Z" fill="#428CE6"/>
<path d="M574.001 110C573.744 110 573.49 110.098 573.294 110.293L571.708 111.879L576.947 117.113C577.123 117.039 577.31 117 577.501 117C578.33 117 579.001 117.672 579.001 118.5C579.001 119.328 578.33 120 577.501 120C576.673 120 576.001 119.328 576.001 118.5C576.001 118.316 576.037 118.137 576.103 117.969L574.052 115.918V120.105C574.626 120.332 575.001 120.883 575.001 121.5C575.001 122.328 574.33 123 573.501 123C572.673 123 572.001 122.328 572.001 121.5C572.001 120.844 572.427 120.266 573.052 120.07V114.918L570.861 112.727L566.294 117.293C565.904 117.684 565.904 118.316 566.294 118.707L573.294 125.707C573.685 126.098 574.318 126.098 574.708 125.707L581.708 118.707C582.095 118.316 582.095 117.684 581.708 117.293L574.708 110.293C574.513 110.098 574.259 110 574.001 110Z" fill="#428CE6"/>
<defs>
<linearGradient id="paint0_linear_2_353" x1="53.9992" y1="504.998" x2="469.999" y2="504.998" gradientUnits="userSpaceOnUse">
<stop stop-color="#62A0EA"/>
<stop offset="0.0576991" stop-color="#AFD4FF"/>
<stop offset="0.122204" stop-color="#62A0EA"/>
<stop offset="0.873306" stop-color="#62A0EA"/>
<stop offset="0.955997" stop-color="#C0D5EA"/>
<stop offset="1" stop-color="#62A0EA"/>
</linearGradient>
</defs>
</svg>
