<svg width="512" height="513" viewBox="0 0 512 513" fill="none" xmlns="http://www.w3.org/2000/svg">
<path d="M87.9062 49C65.7969 49 48 66.8438 48 89V433.125C48 455.297 65.7969 473.125 87.9062 473.125H424.078C446.203 473.125 464 455.297 464 433.125V144.781C464 118.266 442.562 96.7812 416.109 96.7812H232C222.188 96.7812 213.219 91.2344 208.812 82.4531L202.797 70.4844C196.172 57.3125 182.719 49 168 49H87.9062Z" fill="#438DE6"/>
<path d="M263.906 145C252.922 145 243 149.406 235.797 156.562C226.703 165.578 214.266 177 201.266 177H87.9062C65.7969 177 48 194.844 48 217V433.125C48 455.297 65.7969 473.125 87.9062 473.125H424.078C446.203 473.125 464 455.297 464 433.125V185C464 162.844 446.203 145 424.078 145H263.906Z" fill="url(#paint0_linear_5_2)"/>
<path d="M263.906 129C252.922 129 243 133.406 235.797 140.562C226.703 149.578 214.266 161 201.266 161H87.9062C65.7969 161 48 178.844 48 201V424.906C48 447.062 65.7969 464.906 87.9062 464.906H424.078C446.203 464.906 464 447.062 464 424.906V169C464 146.844 446.203 129 424.078 129H263.906Z" fill="#A4CAEE"/>
<path d="M258.46 303.537C258.718 298.941 260.965 294.88 264.37 292.01C267.701 289.189 272.176 287.463 277.088 287.463C281.976 287.463 286.451 289.187 289.782 292.01C293.187 294.88 295.424 298.941 295.691 303.537C295.949 308.255 294.05 312.656 290.73 315.915C287.326 319.222 282.511 321.313 277.088 321.313C271.665 321.313 266.826 319.237 263.446 315.915C260.114 312.656 258.217 308.279 258.485 303.561L258.46 303.537Z" fill="#428CE6"/>
<path d="M229.279 313.264C229.31 315.064 229.884 318.566 230.745 321.289C232.554 327.077 235.633 332.427 239.889 337.12C244.266 341.96 249.665 345.851 255.89 348.623C262.432 351.517 269.532 353 276.901 353C284.269 352.99 291.37 351.483 297.912 348.55C304.137 345.753 309.536 341.862 313.913 336.999C318.193 332.257 321.257 326.907 323.057 321.119C323.968 318.201 324.545 315.234 324.776 312.267C325.002 309.349 324.907 306.407 324.491 303.464C323.679 297.749 321.695 292.375 318.655 287.511C315.883 283.013 312.284 279.097 308.004 275.79L308.013 275.783L264.97 242.71C264.931 242.681 264.9 242.649 264.859 242.623C262.038 240.453 257.271 240.461 254.183 242.635C251.046 244.833 250.681 248.471 253.478 250.757L253.465 250.769L271.437 265.384L216.721 265.443H216.648C212.125 265.448 207.772 268.41 206.921 272.179C206.036 275.997 209.109 279.182 213.827 279.182L213.82 279.199L241.542 279.146L191.933 317.082C191.87 317.128 191.802 317.177 191.744 317.223C187.075 320.798 185.567 326.756 188.509 330.501C191.501 334.319 197.848 334.343 202.565 330.523L229.558 308.393C229.558 308.393 229.164 311.384 229.196 313.16L229.279 313.264ZM298.828 323.259C293.26 328.925 285.454 332.159 277.039 332.159C268.601 332.174 260.795 328.998 255.226 323.332C252.502 320.56 250.508 317.398 249.268 314.018C248.06 310.687 247.59 307.16 247.902 303.61C248.196 300.132 249.232 296.801 250.893 293.81C252.517 290.867 254.759 288.192 257.507 285.931C262.93 281.529 269.812 279.122 277.01 279.122C284.233 279.112 291.115 281.478 296.538 285.882C299.286 288.129 301.523 290.794 303.152 293.737C304.813 296.728 305.852 300.035 306.143 303.537C306.45 307.087 305.98 310.614 304.772 313.945C303.536 317.35 301.537 320.511 298.814 323.283L298.828 323.259Z" fill="#428CE6"/>
<defs>
<linearGradient id="paint0_linear_5_2" x1="47.9992" y1="448.998" x2="463.999" y2="448.998" gradientUnits="userSpaceOnUse">
<stop stop-color="#62A0EA"/>
<stop offset="0.0576991" stop-color="#AFD4FF"/>
<stop offset="0.122204" stop-color="#62A0EA"/>
<stop offset="0.873306" stop-color="#62A0EA"/>
<stop offset="0.955997" stop-color="#C0D5EA"/>
<stop offset="1" stop-color="#62A0EA"/>
</linearGradient>
</defs>
</svg>
