<svg width="512" height="513" viewBox="0 0 512 513" fill="none" xmlns="http://www.w3.org/2000/svg">
<path d="M87.9062 49C65.7969 49 48 66.8438 48 89V433.125C48 455.297 65.7969 473.125 87.9062 473.125H424.078C446.203 473.125 464 455.297 464 433.125V144.781C464 118.266 442.562 96.7812 416.109 96.7812H232C222.188 96.7812 213.219 91.2344 208.812 82.4531L202.797 70.4844C196.172 57.3125 182.719 49 168 49H87.9062Z" fill="#438DE6"/>
<path d="M263.906 145C252.922 145 243 149.406 235.797 156.562C226.703 165.578 214.266 177 201.266 177H87.9062C65.7969 177 48 194.844 48 217V433.125C48 455.297 65.7969 473.125 87.9062 473.125H424.078C446.203 473.125 464 455.297 464 433.125V185C464 162.844 446.203 145 424.078 145H263.906Z" fill="url(#paint0_linear_5_2)"/>
<path d="M263.906 129C252.922 129 243 133.406 235.797 140.562C226.703 149.578 214.266 161 201.266 161H87.9062C65.7969 161 48 178.844 48 201V424.906C48 447.062 65.7969 464.906 87.9062 464.906H424.078C446.203 464.906 464 447.062 464 424.906V169C464 146.844 446.203 129 424.078 129H263.906Z" fill="#A4CAEE"/>
<path d="M259.499 313.102C259.858 306.702 262.986 301.048 267.726 297.052C272.365 293.125 278.595 290.721 285.435 290.721C292.241 290.721 298.471 293.121 303.11 297.052C307.85 301.048 310.965 306.702 311.338 313.102C311.696 319.671 309.052 325.799 304.43 330.336C299.69 334.941 292.986 337.853 285.435 337.853C277.884 337.853 271.146 334.962 266.44 330.336C261.801 325.799 259.16 319.705 259.532 313.136L259.499 313.102Z" fill="#428CE6"/>
<path d="M218.867 326.646C218.911 329.151 219.71 334.027 220.909 337.819C223.428 345.878 227.715 353.327 233.64 359.862C239.735 366.6 247.252 372.018 255.92 375.878C265.028 379.907 274.915 381.972 285.174 381.972C295.434 381.959 305.321 379.86 314.429 375.776C323.097 371.882 330.614 366.465 336.709 359.693C342.668 353.09 346.934 345.641 349.44 337.583C350.709 333.519 351.512 329.388 351.834 325.258C352.148 321.194 352.016 317.097 351.437 313C350.307 305.044 347.544 297.561 343.311 290.789C339.451 284.525 334.44 279.073 328.481 274.468L328.494 274.458L268.563 228.409C268.509 228.369 268.465 228.325 268.407 228.287C264.479 225.267 257.843 225.277 253.543 228.304C249.175 231.365 248.667 236.431 252.561 239.613L252.544 239.63L277.566 259.98L201.382 260.061H201.281C194.983 260.068 188.922 264.192 187.737 269.44C186.504 274.756 190.784 279.192 197.353 279.192L197.343 279.215L235.943 279.141L166.869 331.962C166.781 332.026 166.686 332.094 166.605 332.158C160.104 337.136 158.005 345.431 162.102 350.646C166.266 355.962 175.104 355.995 181.673 350.676L219.257 319.864C219.257 319.864 218.708 324.029 218.752 326.5L218.867 326.646ZM315.705 340.562C307.952 348.451 297.083 352.955 285.367 352.955C273.618 352.975 262.749 348.553 254.995 340.664C251.203 336.804 248.427 332.402 246.7 327.696C245.017 323.057 244.363 318.147 244.797 313.204C245.207 308.362 246.649 303.723 248.962 299.558C251.223 295.461 254.345 291.737 258.171 288.588C265.722 282.459 275.304 279.107 285.327 279.107C295.383 279.094 304.965 282.388 312.516 288.52C316.342 291.649 319.457 295.36 321.726 299.457C324.038 303.621 325.484 308.226 325.89 313.102C326.317 318.046 325.664 322.955 323.981 327.594C322.261 332.334 319.477 336.736 315.685 340.596L315.705 340.562Z" fill="#428CE6"/>
<defs>
<linearGradient id="paint0_linear_5_2" x1="47.9992" y1="448.998" x2="463.999" y2="448.998" gradientUnits="userSpaceOnUse">
<stop stop-color="#62A0EA"/>
<stop offset="0.0576991" stop-color="#AFD4FF"/>
<stop offset="0.122204" stop-color="#62A0EA"/>
<stop offset="0.873306" stop-color="#62A0EA"/>
<stop offset="0.955997" stop-color="#C0D5EA"/>
<stop offset="1" stop-color="#62A0EA"/>
</linearGradient>
</defs>
</svg>
