<svg width="600" height="600" viewBox="0 0 600 600" fill="none" xmlns="http://www.w3.org/2000/svg">
<path d="M93.9062 105C71.7969 105 54 122.844 54 145V489.125C54 511.297 71.7969 529.125 93.9062 529.125H430.078C452.203 529.125 470 511.297 470 489.125V200.781C470 174.266 448.562 152.781 422.109 152.781H238C228.188 152.781 219.219 147.234 214.812 138.453L208.797 126.484C202.172 113.312 188.719 105 174 105H93.9062Z" fill="#438DE6"/>
<path d="M269.906 201C258.922 201 249 205.406 241.797 212.562C232.703 221.578 220.266 233 207.266 233H93.9062C71.7969 233 54 250.844 54 273V489.125C54 511.297 71.7969 529.125 93.9062 529.125H430.078C452.203 529.125 470 511.297 470 489.125V241C470 218.844 452.203 201 430.078 201H269.906Z" fill="url(#paint0_linear_2_85)"/>
<path d="M269.906 185C258.922 185 249 189.406 241.797 196.562C232.703 205.578 220.266 217 207.266 217H93.9062C71.7969 217 54 234.844 54 257V480.906C54 503.063 71.7969 520.906 93.9062 520.906H430.078C452.203 520.906 470 503.063 470 480.906V225C470 202.844 452.203 185 430.078 185H269.906Z" fill="#A4CAEE"/>
<path d="M558.241 93C556.168 93 554.5 94.6729 554.5 96.75V129.012C554.5 131.09 556.168 132.762 558.241 132.762H589.757C591.832 132.762 593.5 131.09 593.5 129.012V101.979C593.5 99.4937 591.49 97.4795 589.01 97.4795H571.75C570.83 97.4795 569.989 96.9595 569.576 96.1362L569.012 95.0142C568.391 93.7793 567.13 93 565.75 93H558.241Z" fill="#438DE6"/>
<path d="M574.741 101C573.711 101 572.781 101.413 572.106 102.084C571.253 102.929 570.087 104 568.869 104H558.241C556.168 104 554.5 105.673 554.5 107.75V128.741C554.5 130.818 556.168 132.491 558.241 132.491H589.757C591.832 132.491 593.5 130.818 593.5 128.741V104.75C593.5 102.673 591.832 101 589.757 101H574.741Z" fill="#A4CAEE"/>
<path d="M265.499 369.102C265.858 362.702 268.986 357.048 273.726 353.052C278.365 349.125 284.595 346.721 291.435 346.721C298.241 346.721 304.471 349.121 309.11 353.052C313.85 357.048 316.965 362.702 317.338 369.102C317.696 375.671 315.052 381.799 310.43 386.336C305.69 390.941 298.986 393.853 291.435 393.853C283.884 393.853 277.146 390.962 272.44 386.336C267.801 381.799 265.16 375.705 265.532 369.136L265.499 369.102Z" fill="#428CE6"/>
<path d="M224.867 382.646C224.911 385.151 225.71 390.027 226.909 393.819C229.428 401.878 233.715 409.327 239.64 415.862C245.735 422.6 253.252 428.018 261.92 431.878C271.028 435.907 280.915 437.972 291.174 437.972C301.434 437.959 311.321 435.86 320.429 431.776C329.097 427.882 336.614 422.465 342.709 415.693C348.668 409.09 352.934 401.641 355.44 393.583C356.709 389.519 357.512 385.388 357.834 381.258C358.148 377.194 358.016 373.097 357.437 369C356.307 361.044 353.544 353.561 349.311 346.789C345.451 340.525 340.44 335.073 334.481 330.468L334.494 330.458L274.563 284.409C274.509 284.369 274.465 284.325 274.407 284.287C270.479 281.267 263.843 281.277 259.543 284.304C255.175 287.365 254.667 292.431 258.561 295.613L258.544 295.63L283.566 315.98L207.382 316.061H207.281C200.983 316.068 194.922 320.192 193.737 325.44C192.504 330.756 196.784 335.192 203.353 335.192L203.343 335.215L241.943 335.141L172.869 387.962C172.781 388.026 172.686 388.094 172.605 388.158C166.104 393.136 164.005 401.431 168.102 406.646C172.266 411.961 181.104 411.995 187.673 406.676L225.257 375.864C225.257 375.864 224.708 380.029 224.752 382.5L224.867 382.646ZM321.705 396.562C313.952 404.451 303.083 408.955 291.367 408.955C279.618 408.975 268.749 404.553 260.995 396.664C257.203 392.804 254.427 388.402 252.7 383.696C251.017 379.057 250.363 374.147 250.797 369.204C251.207 364.362 252.649 359.723 254.962 355.558C257.223 351.461 260.345 347.737 264.171 344.588C271.722 338.459 281.304 335.107 291.327 335.107C301.383 335.094 310.965 338.388 318.516 344.52C322.342 347.649 325.457 351.36 327.726 355.457C330.038 359.621 331.484 364.226 331.89 369.102C332.317 374.046 331.664 378.955 329.981 383.594C328.261 388.334 325.477 392.736 321.685 396.596L321.705 396.562Z" fill="#428CE6"/>
<path d="M574.388 118.934C574.425 118.277 574.746 117.697 575.233 117.287C575.708 116.884 576.348 116.638 577.049 116.638C577.748 116.638 578.387 116.884 578.863 117.287C579.349 117.697 579.669 118.277 579.707 118.934C579.744 119.608 579.473 120.237 578.998 120.702C578.512 121.175 577.824 121.473 577.049 121.473C576.275 121.473 575.583 121.177 575.101 120.702C574.625 120.237 574.354 119.611 574.392 118.937L574.388 118.934Z" fill="#428CE6"/>
<path d="M570.22 120.323C570.224 120.581 570.306 121.081 570.429 121.47C570.687 122.297 571.127 123.061 571.735 123.731C572.361 124.423 573.132 124.979 574.021 125.375C574.956 125.788 575.97 126 577.023 126C578.075 125.999 579.09 125.783 580.024 125.364C580.914 124.965 581.685 124.409 582.31 123.714C582.922 123.037 583.359 122.272 583.616 121.446C583.747 121.029 583.829 120.605 583.862 120.181C583.894 119.764 583.881 119.344 583.821 118.923C583.705 118.107 583.422 117.339 582.988 116.644C582.592 116.002 582.077 115.442 581.466 114.97L581.467 114.969L575.318 110.244C575.313 110.24 575.308 110.236 575.302 110.232C574.899 109.922 574.218 109.923 573.777 110.234C573.329 110.548 573.277 111.067 573.677 111.394L573.675 111.396L576.242 113.483L568.426 113.492H568.415C567.769 113.493 567.147 113.916 567.026 114.454C566.899 115 567.338 115.455 568.012 115.455L568.011 115.457L571.971 115.449L564.884 120.869C564.875 120.875 564.866 120.882 564.857 120.889C564.19 121.4 563.975 122.251 564.395 122.786C564.823 123.331 565.729 123.335 566.403 122.789L570.259 119.628C570.259 119.628 570.203 120.055 570.208 120.309L570.22 120.323ZM580.155 121.751C579.36 122.561 578.244 123.023 577.042 123.023C575.837 123.025 574.722 122.571 573.926 121.762C573.537 121.366 573.252 120.914 573.075 120.431C572.902 119.955 572.835 119.451 572.88 118.944C572.922 118.448 573.07 117.972 573.307 117.544C573.539 117.124 573.86 116.742 574.252 116.419C575.027 115.79 576.01 115.446 577.038 115.446C578.07 115.445 579.053 115.783 579.828 116.412C580.221 116.733 580.54 117.113 580.773 117.534C581.01 117.961 581.158 118.434 581.2 118.934C581.244 119.441 581.177 119.945 581.004 120.421C580.828 120.907 580.542 121.359 580.153 121.755L580.155 121.751Z" fill="#428CE6"/>
<defs>
<linearGradient id="paint0_linear_2_85" x1="53.9992" y1="504.998" x2="469.999" y2="504.998" gradientUnits="userSpaceOnUse">
<stop stop-color="#62A0EA"/>
<stop offset="0.0576991" stop-color="#AFD4FF"/>
<stop offset="0.122204" stop-color="#62A0EA"/>
<stop offset="0.873306" stop-color="#62A0EA"/>
<stop offset="0.955997" stop-color="#C0D5EA"/>
<stop offset="1" stop-color="#62A0EA"/>
</linearGradient>
</defs>
</svg>
