<svg width="512" height="513" viewBox="0 0 512 513" fill="none" xmlns="http://www.w3.org/2000/svg">
<path d="M87.9062 49C65.7969 49 48 66.8438 48 89V433.125C48 455.297 65.7969 473.125 87.9062 473.125H424.078C446.203 473.125 464 455.297 464 433.125V144.781C464 118.266 442.562 96.7812 416.109 96.7812H232C222.188 96.7812 213.219 91.2344 208.812 82.4531L202.797 70.4844C196.172 57.3125 182.719 49 168 49H87.9062Z" fill="#438DE6"/>
<path d="M263.906 145C252.922 145 243 149.406 235.797 156.562C226.703 165.578 214.266 177 201.266 177H87.9062C65.7969 177 48 194.844 48 217V433.125C48 455.297 65.7969 473.125 87.9062 473.125H424.078C446.203 473.125 464 455.297 464 433.125V185C464 162.844 446.203 145 424.078 145H263.906Z" fill="url(#paint0_linear_5_5)"/>
<path d="M263.906 129C252.922 129 243 133.406 235.797 140.562C226.703 149.578 214.266 161 201.266 161H87.9062C65.7969 161 48 178.844 48 201V424.906C48 447.062 65.7969 464.906 87.9062 464.906H424.078C446.203 464.906 464 447.062 464 424.906V169C464 146.844 446.203 129 424.078 129H263.906Z" fill="#A4CAEE"/>
<path d="M231.184 266.656L220.704 255.344L171 309L220.704 362.656L231.184 351.344L191.959 309L231.184 266.656Z" fill="#428CE6"/>
<path d="M225.944 365H233.355V357H225.944V365Z" fill="#428CE6"/>
<path d="M225.944 261H233.355V253H225.944V261Z" fill="#428CE6"/>
<path d="M225.944 269C230.055 269 233.355 265.406 233.355 261C233.355 256.563 230.055 253 225.944 253C221.833 253 218.533 256.563 218.533 261C218.533 265.406 221.833 269 225.944 269Z" fill="#428CE6"/>
<path d="M225.944 365C230.055 365 233.355 361.406 233.355 357C233.355 352.562 230.055 349 225.944 349C221.833 349 218.533 352.562 218.533 357C218.533 361.406 221.833 365 225.944 365Z" fill="#428CE6"/>
<path d="M280.483 351.344L290.963 362.656L340.667 309L290.963 255.344L280.483 266.656L319.708 309L280.483 351.344Z" fill="#428CE6"/>
<path d="M285.723 253H278.312V261H285.723V253Z" fill="#428CE6"/>
<path d="M285.723 357H278.312V365H285.723V357Z" fill="#428CE6"/>
<path d="M285.723 349C281.612 349 278.312 352.594 278.312 357C278.312 361.438 281.612 365 285.723 365C289.834 365 293.134 361.438 293.134 357C293.134 352.594 289.834 349 285.723 349Z" fill="#428CE6"/>
<path d="M285.723 253C281.612 253 278.312 256.594 278.312 261C278.312 265.438 281.612 269 285.723 269C289.834 269 293.134 265.438 293.134 261C293.134 256.594 289.834 253 285.723 253Z" fill="#428CE6"/>
<defs>
<linearGradient id="paint0_linear_5_5" x1="47.9992" y1="448.998" x2="463.999" y2="448.998" gradientUnits="userSpaceOnUse">
<stop stop-color="#62A0EA"/>
<stop offset="0.0576991" stop-color="#AFD4FF"/>
<stop offset="0.122204" stop-color="#62A0EA"/>
<stop offset="0.873306" stop-color="#62A0EA"/>
<stop offset="0.955997" stop-color="#C0D5EA"/>
<stop offset="1" stop-color="#62A0EA"/>
</linearGradient>
</defs>
</svg>
