<svg width="512" height="513" viewBox="0 0 512 513" fill="none" xmlns="http://www.w3.org/2000/svg">
<path d="M87.9062 49C65.7969 49 48 66.8438 48 89V433.125C48 455.297 65.7969 473.125 87.9062 473.125H424.078C446.203 473.125 464 455.297 464 433.125V144.781C464 118.266 442.562 96.7812 416.109 96.7812H232C222.188 96.7812 213.219 91.2344 208.812 82.4531L202.797 70.4844C196.172 57.3125 182.719 49 168 49H87.9062Z" fill="#438DE6"/>
<path d="M263.906 145C252.922 145 243 149.406 235.797 156.562C226.703 165.578 214.266 177 201.266 177H87.9062C65.7969 177 48 194.844 48 217V433.125C48 455.297 65.7969 473.125 87.9062 473.125H424.078C446.203 473.125 464 455.297 464 433.125V185C464 162.844 446.203 145 424.078 145H263.906Z" fill="url(#paint0_linear_5_5)"/>
<path d="M263.906 129C252.922 129 243 133.406 235.797 140.562C226.703 149.578 214.266 161 201.266 161H87.9062C65.7969 161 48 178.844 48 201V424.906C48 447.062 65.7969 464.906 87.9062 464.906H424.078C446.203 464.906 464 447.062 464 424.906V169C464 146.844 446.203 129 424.078 129H263.906Z" fill="#A4CAEE"/>
<path d="M228.105 256.083L216.247 243.281L160 304L216.247 364.719L228.105 351.917L183.717 304L228.105 256.083Z" fill="#428CE6"/>
<path d="M222.176 367.371H230.562V358.318H222.176V367.371Z" fill="#428CE6"/>
<path d="M222.176 249.682H230.562V240.629H222.176V249.682Z" fill="#428CE6"/>
<path d="M222.176 258.735C226.828 258.735 230.562 254.668 230.562 249.682C230.562 244.66 226.828 240.629 222.176 240.629C217.524 240.629 213.79 244.66 213.79 249.682C213.79 254.668 217.524 258.735 222.176 258.735Z" fill="#428CE6"/>
<path d="M222.176 367.371C226.828 367.371 230.562 363.305 230.562 358.318C230.562 353.297 226.828 349.265 222.176 349.265C217.524 349.265 213.79 353.297 213.79 358.318C213.79 363.305 217.524 367.371 222.176 367.371Z" fill="#428CE6"/>
<path d="M283.894 351.917L295.753 364.719L352 304L295.753 243.281L283.894 256.083L328.283 304L283.894 351.917Z" fill="#428CE6"/>
<path d="M289.824 240.629H281.437V249.682H289.824V240.629Z" fill="#428CE6"/>
<path d="M289.824 358.318H281.437V367.371H289.824V358.318Z" fill="#428CE6"/>
<path d="M289.824 349.265C285.172 349.265 281.437 353.332 281.437 358.318C281.437 363.34 285.172 367.371 289.824 367.371C294.475 367.371 298.21 363.34 298.21 358.318C298.21 353.332 294.475 349.265 289.824 349.265Z" fill="#428CE6"/>
<path d="M289.824 240.629C285.172 240.629 281.437 244.696 281.437 249.682C281.437 254.703 285.172 258.735 289.824 258.735C294.475 258.735 298.21 254.703 298.21 249.682C298.21 244.696 294.475 240.629 289.824 240.629Z" fill="#428CE6"/>
<defs>
<linearGradient id="paint0_linear_5_5" x1="47.9992" y1="448.998" x2="463.999" y2="448.998" gradientUnits="userSpaceOnUse">
<stop stop-color="#62A0EA"/>
<stop offset="0.0576991" stop-color="#AFD4FF"/>
<stop offset="0.122204" stop-color="#62A0EA"/>
<stop offset="0.873306" stop-color="#62A0EA"/>
<stop offset="0.955997" stop-color="#C0D5EA"/>
<stop offset="1" stop-color="#62A0EA"/>
</linearGradient>
</defs>
</svg>
