<svg width="600" height="600" viewBox="0 0 600 600" fill="none" xmlns="http://www.w3.org/2000/svg">
<path d="M93.9062 105C71.7969 105 54 122.844 54 145V489.125C54 511.297 71.7969 529.125 93.9062 529.125H430.078C452.203 529.125 470 511.297 470 489.125V200.781C470 174.266 448.562 152.781 422.109 152.781H238C228.188 152.781 219.219 147.234 214.812 138.453L208.797 126.484C202.172 113.312 188.719 105 174 105H93.9062Z" fill="#438DE6"/>
<path d="M269.906 201C258.922 201 249 205.406 241.797 212.562C232.703 221.578 220.266 233 207.266 233H93.9062C71.7969 233 54 250.844 54 273V489.125C54 511.297 71.7969 529.125 93.9062 529.125H430.078C452.203 529.125 470 511.297 470 489.125V241C470 218.844 452.203 201 430.078 201H269.906Z" fill="url(#paint0_linear_2_185)"/>
<path d="M269.906 185C258.922 185 249 189.406 241.797 196.562C232.703 205.578 220.266 217 207.266 217H93.9062C71.7969 217 54 234.844 54 257V480.906C54 503.063 71.7969 520.906 93.9062 520.906H430.078C452.203 520.906 470 503.063 470 480.906V225C470 202.844 452.203 185 430.078 185H269.906Z" fill="#A4CAEE"/>
<path d="M558.241 93C556.168 93 554.5 94.6729 554.5 96.75V129.012C554.5 131.09 556.168 132.762 558.241 132.762H589.757C591.832 132.762 593.5 131.09 593.5 129.012V101.979C593.5 99.4937 591.49 97.4795 589.01 97.4795H571.75C570.83 97.4795 569.989 96.9595 569.576 96.1362L569.012 95.0142C568.391 93.7793 567.13 93 565.75 93H558.241Z" fill="#438DE6"/>
<path d="M574.741 101C573.711 101 572.781 101.413 572.106 102.084C571.253 102.929 570.087 104 568.869 104H558.241C556.168 104 554.5 105.673 554.5 107.75V128.741C554.5 130.818 556.168 132.491 558.241 132.491H589.757C591.832 132.491 593.5 130.818 593.5 128.741V104.75C593.5 102.673 591.832 101 589.757 101H574.741Z" fill="#A4CAEE"/>
<path d="M234.105 312.083L222.247 299.281L166 360L222.247 420.719L234.105 407.917L189.717 360L234.105 312.083Z" fill="#428CE6"/>
<path d="M228.176 423.371H236.562V414.318H228.176V423.371Z" fill="#428CE6"/>
<path d="M228.176 305.682H236.562V296.629H228.176V305.682Z" fill="#428CE6"/>
<path d="M228.176 314.735C232.828 314.735 236.562 310.668 236.562 305.682C236.562 300.66 232.828 296.629 228.176 296.629C223.524 296.629 219.79 300.66 219.79 305.682C219.79 310.668 223.524 314.735 228.176 314.735Z" fill="#428CE6"/>
<path d="M228.176 423.371C232.828 423.371 236.562 419.305 236.562 414.318C236.562 409.297 232.828 405.265 228.176 405.265C223.524 405.265 219.79 409.297 219.79 414.318C219.79 419.305 223.524 423.371 228.176 423.371Z" fill="#428CE6"/>
<path d="M289.894 407.917L301.753 420.719L358 360L301.753 299.281L289.894 312.083L334.283 360L289.894 407.917Z" fill="#428CE6"/>
<path d="M295.824 296.629H287.437V305.682H295.824V296.629Z" fill="#428CE6"/>
<path d="M295.824 414.318H287.437V423.371H295.824V414.318Z" fill="#428CE6"/>
<path d="M295.824 405.265C291.172 405.265 287.437 409.332 287.437 414.318C287.437 419.34 291.172 423.371 295.824 423.371C300.475 423.371 304.21 419.34 304.21 414.318C304.21 409.332 300.475 405.265 295.824 405.265Z" fill="#428CE6"/>
<path d="M295.824 296.629C291.172 296.629 287.437 300.696 287.437 305.682C287.437 310.703 291.172 314.735 295.824 314.735C300.475 314.735 304.21 310.703 304.21 305.682C304.21 300.696 300.475 296.629 295.824 296.629Z" fill="#428CE6"/>
<path d="M576.686 112.588V113.941C576.686 114.29 576.86 114.655 577.108 114.913L580.153 118L577.108 121.086C576.86 121.345 576.686 121.71 576.686 122.059V123.412H578.039C578.456 123.412 578.784 123.29 579.053 123.031L584 118L579.053 112.969C578.784 112.71 578.456 112.588 578.039 112.588H576.686Z" fill="#428CE6"/>
<path d="M571.274 112.588V113.941C571.274 114.29 571.099 114.655 570.851 114.913L567.807 118L570.851 121.086C571.099 121.345 571.274 121.71 571.274 122.059V123.412H569.921C569.503 123.412 569.175 123.29 568.906 123.031L563.959 118L568.906 112.969C569.175 112.71 569.503 112.588 569.921 112.588H571.274Z" fill="#428CE6"/>
<defs>
<linearGradient id="paint0_linear_2_185" x1="53.9992" y1="504.998" x2="469.999" y2="504.998" gradientUnits="userSpaceOnUse">
<stop stop-color="#62A0EA"/>
<stop offset="0.0576991" stop-color="#AFD4FF"/>
<stop offset="0.122204" stop-color="#62A0EA"/>
<stop offset="0.873306" stop-color="#62A0EA"/>
<stop offset="0.955997" stop-color="#C0D5EA"/>
<stop offset="1" stop-color="#62A0EA"/>
</linearGradient>
</defs>
</svg>
