<svg width="600" height="600" viewBox="0 0 600 600" fill="none" xmlns="http://www.w3.org/2000/svg">
<path d="M93.9063 105C71.7969 105 54 122.844 54 145V489.125C54 511.297 71.7969 529.125 93.9063 529.125H430.078C452.203 529.125 470 511.297 470 489.125V200.781C470 174.266 448.563 152.781 422.109 152.781H238C228.188 152.781 219.219 147.234 214.813 138.453L208.797 126.484C202.172 113.312 188.719 105 174 105H93.9063Z" fill="#438DE6"/>
<path d="M269.906 201C258.922 201 249 205.406 241.797 212.562C232.703 221.578 220.266 233 207.266 233H93.9063C71.7969 233 54 250.844 54 273V489.125C54 511.297 71.7969 529.125 93.9063 529.125H430.078C452.203 529.125 470 511.297 470 489.125V241C470 218.844 452.203 201 430.078 201H269.906Z" fill="url(#paint0_linear_2_334)"/>
<path d="M269.906 185C258.922 185 249 189.406 241.797 196.562C232.703 205.578 220.266 217 207.266 217H93.9063C71.7969 217 54 234.844 54 257V480.906C54 503.063 71.7969 520.906 93.9063 520.906H430.078C452.203 520.906 470 503.063 470 480.906V225C470 202.844 452.203 185 430.078 185H269.906Z" fill="#A4CAEE"/>
<path d="M558.241 93C556.168 93 554.5 94.6729 554.5 96.75V129.012C554.5 131.09 556.168 132.762 558.241 132.762H589.757C591.832 132.762 593.5 131.09 593.5 129.012V101.979C593.5 99.4937 591.49 97.4795 589.01 97.4795H571.75C570.83 97.4795 569.989 96.9595 569.576 96.1362L569.012 95.0142C568.391 93.7793 567.13 93 565.75 93H558.241Z" fill="#438DE6"/>
<path d="M574.741 101C573.711 101 572.781 101.413 572.106 102.084C571.253 102.929 570.087 104 568.869 104H558.241C556.168 104 554.5 105.673 554.5 107.75V128.741C554.5 130.818 556.168 132.491 558.241 132.491H589.757C591.832 132.491 593.5 130.818 593.5 128.741V104.75C593.5 102.673 591.832 101 589.757 101H574.741Z" fill="#A4CAEE"/>
<path d="M566.563 111.573C566.366 111.573 566.23 111.668 566.184 111.835L563.999 122.977C563.706 124.072 566.013 125.375 567.537 124.496L571.091 119.327H576.907L580.461 124.496C581.986 125.375 584.293 124.072 584 122.977L581.809 111.835C581.764 111.668 581.632 111.573 581.435 111.573H566.563ZM569.153 112.865H569.799C569.976 112.865 570.122 113.011 570.122 113.188V114.157H571.091C571.268 114.157 571.414 114.304 571.414 114.48V115.127C571.414 115.303 571.268 115.45 571.091 115.45H570.122V116.419C570.122 116.596 569.976 116.742 569.799 116.742H569.153C568.971 116.742 568.83 116.596 568.83 116.419V115.45H567.86C567.679 115.45 567.537 115.303 567.537 115.127V114.48C567.537 114.304 567.679 114.157 567.86 114.157H568.83V113.188C568.83 113.011 568.971 112.865 569.153 112.865ZM577.23 113.834C577.765 113.834 578.199 114.268 578.199 114.803C578.199 115.339 577.765 115.773 577.23 115.773C576.695 115.773 576.261 115.339 576.261 114.803C576.261 114.268 576.695 113.834 577.23 113.834ZM579.815 115.127C580.35 115.127 580.784 115.561 580.784 116.096C580.784 116.631 580.35 117.065 579.815 117.065C579.28 117.065 578.846 116.631 578.846 116.096C578.846 115.561 579.28 115.127 579.815 115.127Z" fill="#428CE6"/>
<path d="M190.594 297.718C188.704 297.718 187.395 298.639 186.959 300.238L165.972 407.206C163.161 417.723 185.311 430.228 199.948 421.794L234.069 372.164H289.903L324.024 421.794C338.662 430.228 360.811 417.723 358 407.206L336.965 300.238C336.528 298.639 335.269 297.718 333.379 297.718H190.594ZM215.458 310.126H221.661C223.358 310.126 224.763 311.531 224.763 313.227V322.533H234.069C235.765 322.533 237.171 323.939 237.171 325.635V331.839C237.171 333.535 235.765 334.941 234.069 334.941H224.763V344.247C224.763 345.943 223.358 347.348 221.661 347.348H215.458C213.713 347.348 212.356 345.943 212.356 344.247V334.941H203.05C201.305 334.941 199.948 333.535 199.948 331.839V325.635C199.948 323.939 201.305 322.533 203.05 322.533H212.356V313.227C212.356 311.531 213.713 310.126 215.458 310.126ZM293.005 319.431C298.143 319.431 302.311 323.599 302.311 328.737C302.311 333.874 298.143 338.043 293.005 338.043C287.868 338.043 283.7 333.874 283.7 328.737C283.7 323.599 287.868 319.431 293.005 319.431ZM317.821 331.839C322.958 331.839 327.126 336.007 327.126 341.145C327.126 346.282 322.958 350.45 317.821 350.45C312.683 350.45 308.515 346.282 308.515 341.145C308.515 336.007 312.683 331.839 317.821 331.839Z" fill="#428CE6"/>
<defs>
<linearGradient id="paint0_linear_2_334" x1="53.9992" y1="504.998" x2="469.999" y2="504.998" gradientUnits="userSpaceOnUse">
<stop stop-color="#62A0EA"/>
<stop offset="0.0576991" stop-color="#AFD4FF"/>
<stop offset="0.122204" stop-color="#62A0EA"/>
<stop offset="0.873306" stop-color="#62A0EA"/>
<stop offset="0.955997" stop-color="#C0D5EA"/>
<stop offset="1" stop-color="#62A0EA"/>
</linearGradient>
</defs>
</svg>
