<svg width="512" height="513" viewBox="0 0 512 513" fill="none" xmlns="http://www.w3.org/2000/svg">
<path d="M87.9063 49C65.7969 49 48 66.8438 48 89V433.125C48 455.297 65.7969 473.125 87.9063 473.125H424.078C446.203 473.125 464 455.297 464 433.125V144.781C464 118.266 442.563 96.7812 416.109 96.7812H232C222.188 96.7812 213.219 91.2344 208.813 82.4531L202.797 70.4844C196.172 57.3125 182.719 49 168 49H87.9063Z" fill="#438DE6"/>
<path d="M263.906 145C252.922 145 243 149.406 235.797 156.562C226.703 165.578 214.266 177 201.266 177H87.9063C65.7969 177 48 194.844 48 217V433.125C48 455.297 65.7969 473.125 87.9063 473.125H424.078C446.203 473.125 464 455.297 464 433.125V185C464 162.844 446.203 145 424.078 145H263.906Z" fill="url(#paint0_linear_5_8)"/>
<path d="M263.906 129C252.922 129 243 133.406 235.797 140.562C226.703 149.578 214.266 161 201.266 161H87.9063C65.7969 161 48 178.844 48 201V424.906C48 447.062 65.7969 464.906 87.9063 464.906H424.078C446.203 464.906 464 447.062 464 424.906V169C464 146.844 446.203 129 424.078 129H263.906Z" fill="#A4CAEE"/>
<path d="M192.954 241C191.285 241 190.129 241.813 189.744 243.225L171.215 337.669C168.733 346.955 188.289 357.996 201.213 350.55L231.339 306.73H280.636L310.763 350.55C323.686 357.996 343.242 346.955 340.76 337.669L322.188 243.225C321.803 241.813 320.691 241 319.022 241H192.954ZM214.907 251.955H220.384C221.882 251.955 223.123 253.196 223.123 254.694V262.91H231.339C232.837 262.91 234.078 264.151 234.078 265.649V271.126C234.078 272.624 232.837 273.865 231.339 273.865H223.123V282.081C223.123 283.579 221.882 284.82 220.384 284.82H214.907C213.366 284.82 212.168 283.579 212.168 282.081V273.865H203.952C202.411 273.865 201.213 272.624 201.213 271.126V265.649C201.213 264.151 202.411 262.91 203.952 262.91H212.168V254.694C212.168 253.196 213.366 251.955 214.907 251.955ZM283.375 260.171C287.911 260.171 291.591 263.851 291.591 268.387C291.591 272.923 287.911 276.604 283.375 276.604C278.839 276.604 275.159 272.923 275.159 268.387C275.159 263.851 278.839 260.171 283.375 260.171ZM305.285 271.126C309.821 271.126 313.501 274.806 313.501 279.342C313.501 283.878 309.821 287.559 305.285 287.559C300.749 287.559 297.069 283.878 297.069 279.342C297.069 274.806 300.749 271.126 305.285 271.126Z" fill="#428CE6"/>
<defs>
<linearGradient id="paint0_linear_5_8" x1="47.9992" y1="448.998" x2="463.999" y2="448.998" gradientUnits="userSpaceOnUse">
<stop stop-color="#62A0EA"/>
<stop offset="0.0576991" stop-color="#AFD4FF"/>
<stop offset="0.122204" stop-color="#62A0EA"/>
<stop offset="0.873306" stop-color="#62A0EA"/>
<stop offset="0.955997" stop-color="#C0D5EA"/>
<stop offset="1" stop-color="#62A0EA"/>
</linearGradient>
</defs>
</svg>
