<svg width="512" height="513" viewBox="0 0 512 513" fill="none" xmlns="http://www.w3.org/2000/svg">
<path d="M87.9063 49C65.7969 49 48 66.8438 48 89V433.125C48 455.297 65.7969 473.125 87.9063 473.125H424.078C446.203 473.125 464 455.297 464 433.125V144.781C464 118.266 442.563 96.7812 416.109 96.7812H232C222.188 96.7812 213.219 91.2344 208.813 82.4531L202.797 70.4844C196.172 57.3125 182.719 49 168 49H87.9063Z" fill="#438DE6"/>
<path d="M263.906 145C252.922 145 243 149.406 235.797 156.562C226.703 165.578 214.266 177 201.266 177H87.9063C65.7969 177 48 194.844 48 217V433.125C48 455.297 65.7969 473.125 87.9063 473.125H424.078C446.203 473.125 464 455.297 464 433.125V185C464 162.844 446.203 145 424.078 145H263.906Z" fill="url(#paint0_linear_103_15)"/>
<path d="M263.906 129C252.922 129 243 133.406 235.797 140.562C226.703 149.578 214.266 161 201.266 161H87.9063C65.7969 161 48 178.844 48 201V424.906C48 447.062 65.7969 464.906 87.9063 464.906H424.078C446.203 464.906 464 447.062 464 424.906V169C464 146.844 446.203 129 424.078 129H263.906Z" fill="#A4CAEE"/>
<g clip-path="url(#clip0_103_15)">
<path d="M200 318V335.5C200 345.152 207.848 353 217.5 353H221C228.738 353 235 346.738 235 339C235 331.262 241.262 325 249 325C256.738 325 263 331.262 263 339C263.957 347.695 271.805 353.957 280.5 353C290.152 353 298 345.18 298 335.5V318C298 302.523 285.477 290 270 290H228C212.523 290 200 302.523 200 318ZM222.75 304H226.25C227.207 304 228 304.793 228 305.75V311H233.25C234.207 311 235 311.793 235 312.75V316.25C235 317.234 234.207 318 233.25 318H228V323.25C228 324.234 227.207 325 226.25 325H222.75C221.766 325 221 324.234 221 323.25V318H215.75C214.766 318 214 317.234 214 316.25V312.75C214 311.793 214.766 311 215.75 311H221V305.75C221 304.793 221.766 304 222.75 304ZM266.5 309.25C269.398 309.25 271.75 311.602 271.75 314.5C271.75 317.398 269.398 319.75 266.5 319.75C263.602 319.75 261.25 317.398 261.25 314.5C261.25 311.602 263.602 309.25 266.5 309.25ZM280.5 316.25C283.398 316.25 285.75 318.602 285.75 321.5C285.75 324.398 283.398 326.75 280.5 326.75C277.602 326.75 275.25 324.398 275.25 321.5C275.25 318.602 277.602 316.25 280.5 316.25Z" fill="#428CE6"/>
<path d="M214 262.109C214.055 273.703 223.516 283.055 235.109 283H290.891C302.539 283 312 273.539 312 261.891C311.945 250.297 302.484 240.945 290.891 241H235.109C223.461 241 214 250.461 214 262.109ZM236.531 248H240.031C240.988 248 241.781 248.793 241.781 249.75V255H247.031C247.988 255 248.781 255.793 248.781 256.75V260.25C248.781 261.234 247.988 262 247.031 262H241.781V267.25C241.781 268.234 240.988 269 240.031 269H236.531C235.547 269 234.781 268.234 234.781 267.25V262H229.531C228.547 262 227.781 261.234 227.781 260.25V256.75C227.781 255.793 228.547 255 229.531 255H234.781V249.75C234.781 248.793 235.547 248 236.531 248ZM280.281 253.25C283.18 253.25 285.531 255.602 285.531 258.5C285.531 261.398 283.18 263.75 280.281 263.75C277.383 263.75 275.031 261.398 275.031 258.5C275.031 255.602 277.383 253.25 280.281 253.25ZM294.281 253.469C297.18 253.469 299.531 255.82 299.531 258.719C299.531 261.617 297.18 263.969 294.281 263.969C291.383 263.969 289.031 261.617 289.031 258.719C289.031 255.82 291.383 253.469 294.281 253.469Z" fill="#428CE6"/>
</g>
<defs>
<linearGradient id="paint0_linear_103_15" x1="47.9992" y1="448.998" x2="463.999" y2="448.998" gradientUnits="userSpaceOnUse">
<stop stop-color="#62A0EA"/>
<stop offset="0.0576991" stop-color="#AFD4FF"/>
<stop offset="0.122204" stop-color="#62A0EA"/>
<stop offset="0.873306" stop-color="#62A0EA"/>
<stop offset="0.955997" stop-color="#C0D5EA"/>
<stop offset="1" stop-color="#62A0EA"/>
</linearGradient>
<clipPath id="clip0_103_15">
<rect width="112" height="112" fill="white" transform="translate(200 241)"/>
</clipPath>
</defs>
</svg>
