<svg width="512" height="513" viewBox="0 0 512 513" fill="none" xmlns="http://www.w3.org/2000/svg">
<path d="M87.9063 49C65.7969 49 48 66.8438 48 89V433.125C48 455.297 65.7969 473.125 87.9063 473.125H424.078C446.203 473.125 464 455.297 464 433.125V144.781C464 118.266 442.563 96.7812 416.109 96.7812H232C222.188 96.7812 213.219 91.2344 208.813 82.4531L202.797 70.4844C196.172 57.3125 182.719 49 168 49H87.9063Z" fill="#438DE6"/>
<path d="M263.906 145C252.922 145 243 149.406 235.797 156.562C226.703 165.578 214.266 177 201.266 177H87.9063C65.7969 177 48 194.844 48 217V433.125C48 455.297 65.7969 473.125 87.9063 473.125H424.078C446.203 473.125 464 455.297 464 433.125V185C464 162.844 446.203 145 424.078 145H263.906Z" fill="url(#paint0_linear_5_8)"/>
<path d="M263.906 129C252.922 129 243 133.406 235.797 140.562C226.703 149.578 214.266 161 201.266 161H87.9063C65.7969 161 48 178.844 48 201V424.906C48 447.062 65.7969 464.906 87.9063 464.906H424.078C446.203 464.906 464 447.062 464 424.906V169C464 146.844 446.203 129 424.078 129H263.906Z" fill="#A4CAEE"/>
<path d="M184.594 241.718C182.704 241.718 181.395 242.639 180.959 244.238L159.972 351.206C157.161 361.723 179.311 374.228 193.948 365.794L228.069 316.164H283.903L318.024 365.794C332.662 374.228 354.811 361.723 352 351.206L330.965 244.238C330.528 242.639 329.269 241.718 327.379 241.718H184.594ZM209.458 254.126H215.661C217.358 254.126 218.763 255.531 218.763 257.227V266.533H228.069C229.765 266.533 231.171 267.939 231.171 269.635V275.839C231.171 277.535 229.765 278.941 228.069 278.941H218.763V288.247C218.763 289.943 217.358 291.348 215.661 291.348H209.458C207.713 291.348 206.356 289.943 206.356 288.247V278.941H197.05C195.305 278.941 193.948 277.535 193.948 275.839V269.635C193.948 267.939 195.305 266.533 197.05 266.533H206.356V257.227C206.356 255.531 207.713 254.126 209.458 254.126ZM287.005 263.431C292.143 263.431 296.311 267.599 296.311 272.737C296.311 277.875 292.143 282.043 287.005 282.043C281.868 282.043 277.7 277.875 277.7 272.737C277.7 267.599 281.868 263.431 287.005 263.431ZM311.821 275.839C316.958 275.839 321.126 280.007 321.126 285.145C321.126 290.282 316.958 294.45 311.821 294.45C306.683 294.45 302.515 290.282 302.515 285.145C302.515 280.007 306.683 275.839 311.821 275.839Z" fill="#428CE6"/>
<defs>
<linearGradient id="paint0_linear_5_8" x1="47.9992" y1="448.998" x2="463.999" y2="448.998" gradientUnits="userSpaceOnUse">
<stop stop-color="#62A0EA"/>
<stop offset="0.0576991" stop-color="#AFD4FF"/>
<stop offset="0.122204" stop-color="#62A0EA"/>
<stop offset="0.873306" stop-color="#62A0EA"/>
<stop offset="0.955997" stop-color="#C0D5EA"/>
<stop offset="1" stop-color="#62A0EA"/>
</linearGradient>
</defs>
</svg>
