<svg width="600" height="600" viewBox="0 0 600 600" fill="none" xmlns="http://www.w3.org/2000/svg">
<path d="M93.9061 105C71.7968 105 53.9999 122.844 53.9999 145V489.125C53.9999 511.297 71.7968 529.125 93.9061 529.125H430.078C452.203 529.125 470 511.297 470 489.125V200.781C470 174.266 448.562 152.781 422.109 152.781H238C228.187 152.781 219.219 147.234 214.812 138.453L208.797 126.484C202.172 113.312 188.719 105 174 105H93.9061Z" fill="#438DE6"/>
<path d="M269.906 201C258.922 201 249 205.406 241.797 212.562C232.703 221.578 220.266 233 207.266 233H93.9061C71.7968 233 53.9999 250.844 53.9999 273V489.125C53.9999 511.297 71.7968 529.125 93.9061 529.125H430.078C452.203 529.125 470 511.297 470 489.125V241C470 218.844 452.203 201 430.078 201H269.906Z" fill="url(#paint0_linear_2_237)"/>
<path d="M269.906 185C258.922 185 249 189.406 241.797 196.562C232.703 205.578 220.266 217 207.266 217H93.9061C71.7968 217 53.9999 234.844 53.9999 257V480.906C53.9999 503.063 71.7968 520.906 93.9061 520.906H430.078C452.203 520.906 470 503.063 470 480.906V225C470 202.844 452.203 185 430.078 185H269.906Z" fill="#A4CAEE"/>
<path d="M558.241 93C556.168 93 554.5 94.6729 554.5 96.75V129.012C554.5 131.09 556.168 132.762 558.241 132.762H589.757C591.832 132.762 593.5 131.09 593.5 129.012V101.979C593.5 99.4937 591.49 97.4795 589.01 97.4795H571.75C570.83 97.4795 569.989 96.9595 569.576 96.1362L569.012 95.0142C568.391 93.7793 567.13 93 565.75 93H558.241Z" fill="#438DE6"/>
<path d="M574.741 101C573.711 101 572.781 101.413 572.106 102.084C571.253 102.929 570.087 104 568.869 104H558.241C556.168 104 554.5 105.673 554.5 107.75V128.741C554.5 130.818 556.168 132.491 558.241 132.491H589.757C591.832 132.491 593.5 130.818 593.5 128.741V104.75C593.5 102.673 591.832 101 589.757 101H574.741Z" fill="#A4CAEE"/>
<mask id="mask0_2_237" style="mask-type:luminance" maskUnits="userSpaceOnUse" x="153" y="251" width="218" height="218">
<path d="M153.428 251.428H370.571V468.571H153.428V251.428ZM265.423 317.119C310.913 324.729 289.839 331.049 254.379 324.172C245.219 322.395 240.536 323.649 238.959 325.802C231.986 335.315 256.159 351.582 267.399 358.232C212.82 344.629 187.893 381.925 258.659 397.275C264.713 398.589 276.326 399.058 276.296 400.802C276.293 402.675 246.459 402.832 230.723 403.312C241.456 406.182 267.263 408.135 284.043 406.545C300.353 405.002 307.476 399.465 286.906 394.405C276.289 391.795 234.683 383.905 239.066 375.499C245.469 363.222 273.143 366.178 289.266 364.502C249.626 337.255 240.633 330.835 294.426 337.849C308.499 340.972 313.199 317.165 289.593 316.225C284.393 316.019 273.293 316.665 265.436 317.119" fill="white"/>
</mask>
<g mask="url(#mask0_2_237)">
<path d="M262 440C306.183 440 342 404.183 342 360C342 315.817 306.183 280 262 280C217.817 280 182 315.817 182 360C182 404.183 217.817 440 262 440Z" fill="#428CE6"/>
<path d="M262 440C306.183 440 342 404.183 342 360C342 315.817 306.183 280 262 280C217.817 280 182 315.817 182 360C182 404.183 217.817 440 262 440Z" fill="#428CE6"/>
</g>
<mask id="mask1_2_237" style="mask-type:luminance" maskUnits="userSpaceOnUse" x="563" y="107" width="22" height="22">
<path d="M563.143 107.143H584.857V128.857H563.143V107.143ZM574.342 113.712C578.891 114.473 576.784 115.105 573.238 114.417C572.322 114.239 571.854 114.365 571.696 114.58C570.999 115.532 573.416 117.158 574.54 117.823C569.082 116.463 566.589 120.193 573.666 121.728C574.271 121.859 575.433 121.906 575.43 122.08C575.429 122.267 572.446 122.283 570.872 122.331C571.946 122.618 574.526 122.813 576.204 122.654C577.835 122.5 578.548 121.946 576.491 121.441C575.429 121.179 571.268 120.391 571.707 119.55C572.347 118.322 575.114 118.618 576.727 118.45C572.763 115.725 571.863 115.084 577.243 115.785C578.65 116.097 579.12 113.717 576.759 113.623C576.239 113.602 575.129 113.667 574.344 113.712" fill="white"/>
</mask>
<g mask="url(#mask1_2_237)">
<path d="M574 126C578.418 126 582 122.418 582 118C582 113.582 578.418 110 574 110C569.582 110 566 113.582 566 118C566 122.418 569.582 126 574 126Z" fill="#428CE6"/>
<path d="M574 126C578.418 126 582 122.418 582 118C582 113.582 578.418 110 574 110C569.582 110 566 113.582 566 118C566 122.418 569.582 126 574 126Z" fill="#428CE6"/>
</g>
<defs>
<linearGradient id="paint0_linear_2_237" x1="53.9991" y1="504.998" x2="469.999" y2="504.998" gradientUnits="userSpaceOnUse">
<stop stop-color="#62A0EA"/>
<stop offset="0.0576991" stop-color="#AFD4FF"/>
<stop offset="0.122204" stop-color="#62A0EA"/>
<stop offset="0.873306" stop-color="#62A0EA"/>
<stop offset="0.955997" stop-color="#C0D5EA"/>
<stop offset="1" stop-color="#62A0EA"/>
</linearGradient>
</defs>
</svg>
