<svg width="512" height="513" viewBox="0 0 512 513" fill="none" xmlns="http://www.w3.org/2000/svg">
<path d="M87.9062 49C65.7969 49 48 66.8438 48 89V433.125C48 455.297 65.7969 473.125 87.9062 473.125H424.078C446.203 473.125 464 455.297 464 433.125V144.781C464 118.266 442.562 96.7812 416.109 96.7812H232C222.188 96.7812 213.219 91.2344 208.812 82.4531L202.797 70.4844C196.172 57.3125 182.719 49 168 49H87.9062Z" fill="#438DE6"/>
<path d="M263.906 145C252.922 145 243 149.406 235.797 156.562C226.703 165.578 214.266 177 201.266 177H87.9062C65.7969 177 48 194.844 48 217V433.125C48 455.297 65.7969 473.125 87.9062 473.125H424.078C446.203 473.125 464 455.297 464 433.125V185C464 162.844 446.203 145 424.078 145H263.906Z" fill="url(#paint0_linear_5_10)"/>
<path d="M263.906 129C252.922 129 243 133.406 235.797 140.562C226.703 149.578 214.266 161 201.266 161H87.9062C65.7969 161 48 178.844 48 201V424.906C48 447.062 65.7969 464.906 87.9062 464.906H424.078C446.203 464.906 464 447.062 464 424.906V169C464 146.844 446.203 129 424.078 129H263.906Z" fill="#A4CAEE"/>
<path d="M206 224C189.555 224 176 237.555 176 254V324C176 340.445 189.555 354 206 354H236V334H206C200.453 334 196 329.547 196 324V254C196 248.297 200.297 244 206 244H306C311.703 244 316 248.297 316 254V324C316 329.547 311.547 334 306 334H296V354H306C322.445 354 336 340.445 336 324V254C336 237.555 322.445 224 306 224H206ZM266 264C249.438 264 236 277.438 236 294C236 302.516 239.633 310.641 246 316.344V384L266 369L286 384V316.344C292.367 310.641 296 302.516 296 294C296 277.438 282.563 264 266 264Z" fill="#428CE6"/>
<defs>
<linearGradient id="paint0_linear_5_10" x1="47.9992" y1="448.998" x2="463.999" y2="448.998" gradientUnits="userSpaceOnUse">
<stop stop-color="#62A0EA"/>
<stop offset="0.0576991" stop-color="#AFD4FF"/>
<stop offset="0.122204" stop-color="#62A0EA"/>
<stop offset="0.873306" stop-color="#62A0EA"/>
<stop offset="0.955997" stop-color="#C0D5EA"/>
<stop offset="1" stop-color="#62A0EA"/>
</linearGradient>
</defs>
</svg>
