<svg width="600" height="600" viewBox="0 0 600 600" fill="none" xmlns="http://www.w3.org/2000/svg">
<path d="M93.9062 105C71.7969 105 54 122.844 54 145V489.125C54 511.297 71.7969 529.125 93.9062 529.125H430.078C452.203 529.125 470 511.297 470 489.125V200.781C470 174.266 448.562 152.781 422.109 152.781H238C228.188 152.781 219.219 147.234 214.812 138.453L208.797 126.484C202.172 113.312 188.719 105 174 105H93.9062Z" fill="#438DE6"/>
<path d="M269.906 201C258.922 201 249 205.406 241.797 212.562C232.703 221.578 220.266 233 207.266 233H93.9062C71.7969 233 54 250.844 54 273V489.125C54 511.297 71.7969 529.125 93.9062 529.125H430.078C452.203 529.125 470 511.297 470 489.125V241C470 218.844 452.203 201 430.078 201H269.906Z" fill="url(#paint0_linear_2_463)"/>
<path d="M269.906 185C258.922 185 249 189.406 241.797 196.562C232.703 205.578 220.266 217 207.266 217H93.9062C71.7969 217 54 234.844 54 257V480.906C54 503.063 71.7969 520.906 93.9062 520.906H430.078C452.203 520.906 470 503.063 470 480.906V225C470 202.844 452.203 185 430.078 185H269.906Z" fill="#A4CAEE"/>
<path d="M558.241 93C556.168 93 554.5 94.6729 554.5 96.75V129.012C554.5 131.09 556.168 132.762 558.241 132.762H589.757C591.832 132.762 593.5 131.09 593.5 129.012V101.979C593.5 99.4937 591.49 97.4795 589.01 97.4795H571.75C570.83 97.4795 569.989 96.9595 569.576 96.1362L569.012 95.0142C568.391 93.7793 567.13 93 565.75 93H558.241Z" fill="#438DE6"/>
<path d="M574.741 101C573.711 101 572.781 101.413 572.106 102.084C571.253 102.929 570.087 104 568.869 104H558.241C556.168 104 554.5 105.673 554.5 107.75V128.741C554.5 130.818 556.168 132.491 558.241 132.491H589.757C591.832 132.491 593.5 130.818 593.5 128.741V104.75C593.5 102.673 591.832 101 589.757 101H574.741Z" fill="#A4CAEE"/>
<path d="M262.119 280C217.985 280 182.208 315.776 182.208 359.91C182.208 404.045 217.985 439.821 262.119 439.821C306.253 439.821 342.029 404.045 342.029 359.91C342.029 315.776 306.253 280 262.119 280ZM303.6 388.169C303.6 389.54 302.494 390.645 301.123 390.645H290.687C289.316 390.645 288.21 389.54 288.21 388.169V356.019C288.21 355.753 287.901 355.621 287.68 355.798L265.568 377.909C263.667 379.811 260.527 379.811 258.625 377.909L236.514 355.798C236.337 355.621 235.983 355.753 235.983 356.019V388.169C235.983 389.54 234.878 390.645 233.507 390.645H223.07C221.699 390.645 220.594 389.54 220.594 388.169V331.652C220.594 330.281 221.699 329.176 223.07 329.176H230.234C231.517 329.176 232.799 329.706 233.728 330.635L261.234 358.141C261.721 358.628 262.473 358.628 262.959 358.141L290.466 330.635C291.394 329.706 292.633 329.176 293.959 329.176H301.123C302.494 329.176 303.6 330.281 303.6 331.652V388.169Z" fill="#428CE6"/>
<path d="M574.045 110C569.63 110 566.052 113.579 566.052 117.993C566.052 122.408 569.63 125.986 574.045 125.986C578.459 125.986 582.038 122.408 582.038 117.993C582.038 113.579 578.459 110 574.045 110ZM578.194 120.82C578.194 120.957 578.084 121.068 577.946 121.068H576.902C576.765 121.068 576.655 120.957 576.655 120.82V117.604C576.655 117.577 576.624 117.564 576.601 117.582L574.39 119.794C574.199 119.984 573.885 119.984 573.695 119.794L571.483 117.582C571.466 117.564 571.43 117.577 571.43 117.604V120.82C571.43 120.957 571.32 121.068 571.183 121.068H570.139C570.002 121.068 569.891 120.957 569.891 120.82V115.167C569.891 115.03 570.001 114.919 570.139 114.919H570.855C570.983 114.919 571.112 114.972 571.205 115.065L573.956 117.816C574.005 117.865 574.08 117.865 574.129 117.816L576.88 115.065C576.973 114.972 577.097 114.919 577.229 114.919H577.946C578.083 114.919 578.194 115.029 578.194 115.167L578.194 120.82Z" fill="#428CE6"/>
<defs>
<linearGradient id="paint0_linear_2_463" x1="53.9992" y1="504.998" x2="469.999" y2="504.998" gradientUnits="userSpaceOnUse">
<stop stop-color="#62A0EA"/>
<stop offset="0.0576991" stop-color="#AFD4FF"/>
<stop offset="0.122204" stop-color="#62A0EA"/>
<stop offset="0.873306" stop-color="#62A0EA"/>
<stop offset="0.955997" stop-color="#C0D5EA"/>
<stop offset="1" stop-color="#62A0EA"/>
</linearGradient>
</defs>
</svg>
