<svg width="512" height="513" viewBox="0 0 512 513" fill="none" xmlns="http://www.w3.org/2000/svg">
<path d="M87.9062 49C65.7969 49 48 66.8438 48 89V433.125C48 455.297 65.7969 473.125 87.9062 473.125H424.078C446.203 473.125 464 455.297 464 433.125V144.781C464 118.266 442.562 96.7812 416.109 96.7812H232C222.188 96.7812 213.219 91.2344 208.812 82.4531L202.797 70.4844C196.172 57.3125 182.719 49 168 49H87.9062Z" fill="#438DE6"/>
<path d="M263.906 145C252.922 145 243 149.406 235.797 156.562C226.703 165.578 214.266 177 201.266 177H87.9062C65.7969 177 48 194.844 48 217V433.125C48 455.297 65.7969 473.125 87.9062 473.125H424.078C446.203 473.125 464 455.297 464 433.125V185C464 162.844 446.203 145 424.078 145H263.906Z" fill="url(#paint0_linear_5_15)"/>
<path d="M263.906 129C252.922 129 243 133.406 235.797 140.562C226.703 149.578 214.266 161 201.266 161H87.9062C65.7969 161 48 178.844 48 201V424.906C48 447.062 65.7969 464.906 87.9062 464.906H424.078C446.203 464.906 464 447.062 464 424.906V169C464 146.844 446.203 129 424.078 129H263.906Z" fill="#A4CAEE"/>
<path d="M226.11 224C215.795 224.04 212.239 237.714 221.265 242.715L226.149 245.451V272.293C224.86 274.364 223.648 276.2 221.734 279.443C219.038 284.171 215.717 290.071 212.083 296.518C204.855 309.49 196.532 325.626 190.046 337.465C184.303 347.937 184.537 362.003 193.055 372.591C199.775 381.617 210.442 384 219.233 384H292.767C301.558 384 312.264 381.617 318.984 372.591C327.502 362.003 327.658 347.937 321.954 337.465C310.31 313.749 297.221 294.291 286.32 272.488V245.49L291.204 242.715C300.229 237.714 296.674 224 286.359 224H226.11ZM246.154 244.005H266.315V275.067C266.315 276.591 266.667 278.115 267.331 279.482C279.365 304.059 293.079 323.907 304.215 346.647C304.255 346.764 304.332 346.92 304.371 347.038C306.793 351.453 306.95 355.869 303.394 360.206C303.277 360.323 303.16 360.479 303.042 360.636C301.596 362.628 298.158 363.996 292.766 363.996H219.232C213.84 363.996 210.402 362.628 208.956 360.636C208.839 360.48 208.722 360.362 208.604 360.206C205.087 355.869 205.205 351.453 207.627 347.038C214.074 335.238 222.357 319.141 229.546 306.325C233.141 299.878 236.423 294.018 239.08 289.485C241.698 284.953 243.964 281.358 244.237 281.007C245.488 279.287 246.152 277.217 246.152 275.107L246.154 244.005Z" fill="#428CE6"/>
<defs>
<linearGradient id="paint0_linear_5_15" x1="47.9992" y1="448.998" x2="463.999" y2="448.998" gradientUnits="userSpaceOnUse">
<stop stop-color="#62A0EA"/>
<stop offset="0.0576991" stop-color="#AFD4FF"/>
<stop offset="0.122204" stop-color="#62A0EA"/>
<stop offset="0.873306" stop-color="#62A0EA"/>
<stop offset="0.955997" stop-color="#C0D5EA"/>
<stop offset="1" stop-color="#62A0EA"/>
</linearGradient>
</defs>
</svg>
