<svg width="512" height="513" viewBox="0 0 512 513" fill="none" xmlns="http://www.w3.org/2000/svg">
<path d="M87.9062 49C65.7969 49 48 66.8438 48 89V433.125C48 455.297 65.7969 473.125 87.9062 473.125H424.078C446.203 473.125 464 455.297 464 433.125V144.781C464 118.266 442.562 96.7812 416.109 96.7812H232C222.188 96.7812 213.219 91.2344 208.812 82.4531L202.797 70.4844C196.172 57.3125 182.719 49 168 49H87.9062Z" fill="#438DE6"/>
<path d="M263.906 145C252.922 145 243 149.406 235.797 156.562C226.703 165.578 214.266 177 201.266 177H87.9062C65.7969 177 48 194.844 48 217V433.125C48 455.297 65.7969 473.125 87.9062 473.125H424.078C446.203 473.125 464 455.297 464 433.125V185C464 162.844 446.203 145 424.078 145H263.906Z" fill="url(#paint0_linear_5_15)"/>
<path d="M263.906 129C252.922 129 243 133.406 235.797 140.562C226.703 149.578 214.266 161 201.266 161H87.9062C65.7969 161 48 178.844 48 201V424.906C48 447.062 65.7969 464.906 87.9062 464.906H424.078C446.203 464.906 464 447.062 464 424.906V169C464 146.844 446.203 129 424.078 129H263.906Z" fill="#A4CAEE"/>
<path d="M232.042 233C223.775 233.032 220.925 243.992 228.159 248.001L232.074 250.193V271.708C231.04 273.368 230.069 274.84 228.535 277.439C226.374 281.228 223.712 285.957 220.799 291.125C215.006 301.522 208.335 314.456 203.137 323.945C198.533 332.338 198.721 343.612 205.548 352.099C210.935 359.333 219.484 361.244 226.531 361.244H285.469C292.516 361.244 301.097 359.333 306.483 352.099C313.31 343.612 313.436 332.338 308.863 323.945C299.531 304.936 289.04 289.34 280.302 271.865V250.224L284.217 248.001C291.451 243.992 288.601 233 280.333 233H232.042ZM248.108 249.034H264.268V273.932C264.268 275.153 264.55 276.374 265.082 277.47C274.728 297.169 285.72 313.078 294.645 331.305C294.677 331.398 294.739 331.523 294.77 331.618C296.712 335.157 296.837 338.696 293.987 342.172C293.893 342.266 293.799 342.391 293.705 342.517C292.546 344.114 289.79 345.21 285.468 345.21H226.53C222.208 345.21 219.452 344.114 218.293 342.517C218.199 342.392 218.106 342.297 218.011 342.172C215.192 338.696 215.286 335.157 217.228 331.618C222.395 322.16 229.034 309.258 234.797 298.986C237.678 293.818 240.308 289.121 242.438 285.488C244.536 281.855 246.353 278.974 246.572 278.692C247.574 277.314 248.106 275.654 248.106 273.963L248.108 249.034Z" fill="#428CE6"/>
<defs>
<linearGradient id="paint0_linear_5_15" x1="47.9992" y1="448.998" x2="463.999" y2="448.998" gradientUnits="userSpaceOnUse">
<stop stop-color="#62A0EA"/>
<stop offset="0.0576991" stop-color="#AFD4FF"/>
<stop offset="0.122204" stop-color="#62A0EA"/>
<stop offset="0.873306" stop-color="#62A0EA"/>
<stop offset="0.955997" stop-color="#C0D5EA"/>
<stop offset="1" stop-color="#62A0EA"/>
</linearGradient>
</defs>
</svg>
