<svg width="600" height="600" viewBox="0 0 600 600" fill="none" xmlns="http://www.w3.org/2000/svg">
<path d="M93.9062 105C71.7969 105 54 122.844 54 145V489.125C54 511.297 71.7969 529.125 93.9062 529.125H430.078C452.203 529.125 470 511.297 470 489.125V200.781C470 174.266 448.562 152.781 422.109 152.781H238C228.188 152.781 219.219 147.234 214.812 138.453L208.797 126.484C202.172 113.312 188.719 105 174 105H93.9062Z" fill="#438DE6"/>
<path d="M269.906 201C258.922 201 249 205.406 241.797 212.562C232.703 221.578 220.266 233 207.266 233H93.9062C71.7969 233 54 250.844 54 273V489.125C54 511.297 71.7969 529.125 93.9062 529.125H430.078C452.203 529.125 470 511.297 470 489.125V241C470 218.844 452.203 201 430.078 201H269.906Z" fill="url(#paint0_linear_2_621)"/>
<path d="M269.906 185C258.922 185 249 189.406 241.797 196.562C232.703 205.578 220.266 217 207.266 217H93.9062C71.7969 217 54 234.844 54 257V480.906C54 503.063 71.7969 520.906 93.9062 520.906H430.078C452.203 520.906 470 503.063 470 480.906V225C470 202.844 452.203 185 430.078 185H269.906Z" fill="#A4CAEE"/>
<path d="M558.241 93C556.168 93 554.5 94.6729 554.5 96.75V129.012C554.5 131.09 556.168 132.762 558.241 132.762H589.757C591.832 132.762 593.5 131.09 593.5 129.012V101.979C593.5 99.4937 591.49 97.4795 589.01 97.4795H571.75C570.83 97.4795 569.989 96.9595 569.576 96.1362L569.012 95.0142C568.391 93.7793 567.13 93 565.75 93H558.241Z" fill="#438DE6"/>
<path d="M574.741 101C573.711 101 572.781 101.413 572.106 102.084C571.253 102.929 570.087 104 568.869 104H558.241C556.168 104 554.5 105.673 554.5 107.75V128.741C554.5 130.818 556.168 132.491 558.241 132.491H589.757C591.832 132.491 593.5 130.818 593.5 128.741V104.75C593.5 102.673 591.832 101 589.757 101H574.741Z" fill="#A4CAEE"/>
<path d="M232.11 280C221.795 280.04 218.239 293.714 227.265 298.715L232.149 301.451V328.293C230.86 330.364 229.648 332.2 227.734 335.443C225.038 340.171 221.717 346.071 218.083 352.518C210.855 365.49 202.532 381.626 196.046 393.465C190.303 403.937 190.537 418.003 199.055 428.591C205.775 437.617 216.442 440 225.233 440H298.767C307.558 440 318.264 437.617 324.984 428.591C333.502 418.003 333.658 403.937 327.954 393.465C316.31 369.749 303.221 350.291 292.32 328.488V301.49L297.204 298.715C306.229 293.714 302.674 280 292.359 280H232.11ZM252.154 300.005H272.315V331.067C272.315 332.591 272.667 334.115 273.331 335.482C285.365 360.059 299.079 379.907 310.215 402.647C310.255 402.764 310.332 402.92 310.371 403.038C312.793 407.453 312.95 411.869 309.394 416.206C309.277 416.323 309.16 416.479 309.042 416.636C307.596 418.628 304.158 419.996 298.766 419.996H225.232C219.84 419.996 216.402 418.628 214.956 416.636C214.839 416.48 214.722 416.362 214.604 416.206C211.087 411.869 211.205 407.453 213.627 403.038C220.074 391.238 228.357 375.141 235.546 362.325C239.141 355.878 242.423 350.018 245.08 345.485C247.698 340.953 249.964 337.358 250.237 337.007C251.488 335.287 252.152 333.217 252.152 331.107L252.154 300.005Z" fill="#428CE6"/>
<path d="M244.339 370.022L222.146 410.032H302.166L279.973 370.022H244.339Z" fill="#99C1F1"/>
<path d="M571.011 110C569.979 110.004 569.624 111.371 570.526 111.872L571.015 112.145V114.829C570.886 115.036 570.765 115.22 570.573 115.544C570.304 116.017 569.972 116.607 569.608 117.252C568.885 118.549 568.053 120.163 567.405 121.347C566.83 122.394 566.854 123.8 567.705 124.859C568.377 125.762 569.444 126 570.323 126H577.677C578.556 126 579.626 125.762 580.298 124.859C581.15 123.8 581.166 122.394 580.595 121.347C579.431 118.975 578.122 117.029 577.032 114.849V112.149L577.52 111.872C578.423 111.371 578.067 110 577.036 110H571.011ZM573.015 112H575.031V115.107C575.031 115.259 575.066 115.411 575.133 115.548C576.336 118.006 577.708 119.991 578.821 122.265C578.825 122.276 578.833 122.292 578.837 122.304C579.079 122.745 579.095 123.187 578.739 123.621C578.727 123.632 578.716 123.648 578.704 123.664C578.56 123.863 578.216 124 577.677 124H570.323C569.784 124 569.44 123.863 569.296 123.664C569.284 123.648 569.272 123.636 569.26 123.621C568.909 123.187 568.921 122.745 569.163 122.304C569.808 121.124 570.636 119.514 571.355 118.232C571.714 117.588 572.042 117.002 572.308 116.548C572.57 116.095 572.796 115.736 572.824 115.701C572.949 115.529 573.015 115.322 573.015 115.111L573.015 112Z" fill="#428CE6"/>
<path d="M572.234 119.002L570.015 123.003H578.016L575.797 119.002H572.234Z" fill="#99C1F1"/>
<defs>
<linearGradient id="paint0_linear_2_621" x1="53.9992" y1="504.998" x2="469.999" y2="504.998" gradientUnits="userSpaceOnUse">
<stop stop-color="#62A0EA"/>
<stop offset="0.0576991" stop-color="#AFD4FF"/>
<stop offset="0.122204" stop-color="#62A0EA"/>
<stop offset="0.873306" stop-color="#62A0EA"/>
<stop offset="0.955997" stop-color="#C0D5EA"/>
<stop offset="1" stop-color="#62A0EA"/>
</linearGradient>
</defs>
</svg>
