<svg width="512" height="513" viewBox="0 0 512 513" fill="none" xmlns="http://www.w3.org/2000/svg">
<path d="M87.9062 49C65.7969 49 48 66.8438 48 89V433.125C48 455.297 65.7969 473.125 87.9062 473.125H424.078C446.203 473.125 464 455.297 464 433.125V144.781C464 118.266 442.562 96.7812 416.109 96.7812H232C222.188 96.7812 213.219 91.2344 208.812 82.4531L202.797 70.4844C196.172 57.3125 182.719 49 168 49H87.9062Z" fill="#438DE6"/>
<path d="M263.906 145C252.922 145 243 149.406 235.797 156.562C226.703 165.578 214.266 177 201.266 177H87.9062C65.7969 177 48 194.844 48 217V433.125C48 455.297 65.7969 473.125 87.9062 473.125H424.078C446.203 473.125 464 455.297 464 433.125V185C464 162.844 446.203 145 424.078 145H263.906Z" fill="url(#paint0_linear_5_7)"/>
<path d="M263.906 129C252.922 129 243 133.406 235.797 140.562C226.703 149.578 214.266 161 201.266 161H87.9062C65.7969 161 48 178.844 48 201V424.906C48 447.062 65.7969 464.906 87.9062 464.906H424.078C446.203 464.906 464 447.062 464 424.906V169C464 146.844 446.203 129 424.078 129H263.906Z" fill="#A4CAEE"/>
<path d="M305.902 280.278L305.902 337.899L256 366.71V309.088L305.902 280.278Z" fill="#428CE6"/>
<path d="M256 309.088V251.467L206.098 280.278L256 309.088Z" fill="#428CE6"/>
<path d="M208.33 271.947C203.169 274.927 200 280.416 200 286.376V331.801C200 337.76 203.169 343.25 208.33 346.23L247.67 368.942C252.831 371.922 259.169 371.922 264.33 368.942L303.67 346.23C308.831 343.25 312 337.76 312 331.801V286.376C312 280.416 308.831 274.927 303.67 271.947L264.33 249.235C259.169 246.255 252.831 246.255 247.67 249.235L208.33 271.947ZM258.232 259.797L297.571 282.51C298.946 283.304 299.803 284.788 299.803 286.376V331.801C299.803 333.389 298.946 334.873 297.571 335.667L258.232 358.38C256.857 359.173 255.143 359.173 253.768 358.38L214.429 335.667C213.054 334.873 212.197 333.389 212.197 331.801V286.376C212.197 284.788 213.054 283.304 214.429 282.51L253.768 259.797C255.143 259.003 256.857 259.003 258.232 259.797Z" fill="#428CE6"/>
<defs>
<linearGradient id="paint0_linear_5_7" x1="47.9992" y1="448.998" x2="463.999" y2="448.998" gradientUnits="userSpaceOnUse">
<stop stop-color="#62A0EA"/>
<stop offset="0.0576991" stop-color="#AFD4FF"/>
<stop offset="0.122204" stop-color="#62A0EA"/>
<stop offset="0.873306" stop-color="#62A0EA"/>
<stop offset="0.955997" stop-color="#C0D5EA"/>
<stop offset="1" stop-color="#62A0EA"/>
</linearGradient>
</defs>
</svg>
