<svg width="600" height="600" viewBox="0 0 600 600" fill="none" xmlns="http://www.w3.org/2000/svg">
<path d="M93.9062 105C71.7969 105 54 122.844 54 145V489.125C54 511.297 71.7969 529.125 93.9062 529.125H430.078C452.203 529.125 470 511.297 470 489.125V200.781C470 174.266 448.562 152.781 422.109 152.781H238C228.188 152.781 219.219 147.234 214.812 138.453L208.797 126.484C202.172 113.312 188.719 105 174 105H93.9062Z" fill="#438DE6"/>
<path d="M269.906 201C258.922 201 249 205.406 241.797 212.562C232.703 221.578 220.266 233 207.266 233H93.9062C71.7969 233 54 250.844 54 273V489.125C54 511.297 71.7969 529.125 93.9062 529.125H430.078C452.203 529.125 470 511.297 470 489.125V241C470 218.844 452.203 201 430.078 201H269.906Z" fill="url(#paint0_linear_2_307)"/>
<path d="M269.906 185C258.922 185 249 189.406 241.797 196.562C232.703 205.578 220.266 217 207.266 217H93.9062C71.7969 217 54 234.844 54 257V480.906C54 503.063 71.7969 520.906 93.9062 520.906H430.078C452.203 520.906 470 503.063 470 480.906V225C470 202.844 452.203 185 430.078 185H269.906Z" fill="#A4CAEE"/>
<path d="M558.241 93C556.168 93 554.5 94.6729 554.5 96.75V129.012C554.5 131.09 556.168 132.762 558.241 132.762H589.757C591.832 132.762 593.5 131.09 593.5 129.012V101.979C593.5 99.4937 591.49 97.4795 589.01 97.4795H571.75C570.83 97.4795 569.989 96.9595 569.576 96.1362L569.012 95.0142C568.391 93.7793 567.13 93 565.75 93H558.241Z" fill="#438DE6"/>
<path d="M574.741 101C573.711 101 572.781 101.413 572.106 102.084C571.253 102.929 570.087 104 568.869 104H558.241C556.168 104 554.5 105.673 554.5 107.75V128.741C554.5 130.818 556.168 132.491 558.241 132.491H589.757C591.832 132.491 593.5 130.818 593.5 128.741V104.75C593.5 102.673 591.832 101 589.757 101H574.741Z" fill="#A4CAEE"/>
<path d="M326.298 322.878L326.298 397.122L262 434.244V360L326.298 322.878Z" fill="#428CE6"/>
<path d="M262 360V285.756L197.702 322.878L262 360Z" fill="#428CE6"/>
<path d="M200.579 312.144C193.929 315.984 189.845 323.057 189.845 330.735V389.265C189.845 396.943 193.929 404.016 200.579 407.856L251.266 437.12C257.916 440.96 266.084 440.96 272.734 437.12L323.422 407.856C330.071 404.016 334.155 396.943 334.155 389.265V330.735C334.155 323.057 330.071 315.984 323.422 312.144L272.734 282.88C266.084 279.04 257.916 279.04 251.266 282.88L200.579 312.144ZM264.876 296.489L315.564 325.754C317.336 326.777 318.44 328.69 318.44 330.735V389.265C318.44 391.31 317.336 393.223 315.564 394.246L264.876 423.511C263.104 424.534 260.896 424.534 259.124 423.511L208.436 394.246C206.664 393.223 205.56 391.31 205.56 389.265V330.735C205.56 328.69 206.664 326.777 208.436 325.754L259.124 296.489C260.896 295.466 263.104 295.466 264.876 296.489Z" fill="#428CE6"/>
<path d="M580.43 114.288L580.43 121.712L574 125.424V118L580.43 114.288Z" fill="#428CE6"/>
<path d="M574 118V110.576L567.57 114.288L574 118Z" fill="#428CE6"/>
<path d="M567.858 113.214C567.193 113.598 566.784 114.306 566.784 115.074V120.926C566.784 121.694 567.193 122.402 567.858 122.786L572.927 125.712C573.592 126.096 574.408 126.096 575.073 125.712L580.142 122.786C580.807 122.402 581.215 121.694 581.215 120.926V115.074C581.215 114.306 580.807 113.598 580.142 113.214L575.073 110.288C574.408 109.904 573.592 109.904 572.927 110.288L567.858 113.214ZM574.288 111.649L579.356 114.575C579.534 114.678 579.644 114.869 579.644 115.074V120.926C579.644 121.131 579.534 121.322 579.356 121.425L574.288 124.351C574.11 124.453 573.89 124.453 573.712 124.351L568.644 121.425C568.466 121.322 568.356 121.131 568.356 120.926V115.074C568.356 114.869 568.466 114.678 568.644 114.575L573.712 111.649C573.89 111.547 574.11 111.547 574.288 111.649Z" fill="#428CE6"/>
<defs>
<linearGradient id="paint0_linear_2_307" x1="53.9992" y1="504.998" x2="469.999" y2="504.998" gradientUnits="userSpaceOnUse">
<stop stop-color="#62A0EA"/>
<stop offset="0.0576991" stop-color="#AFD4FF"/>
<stop offset="0.122204" stop-color="#62A0EA"/>
<stop offset="0.873306" stop-color="#62A0EA"/>
<stop offset="0.955997" stop-color="#C0D5EA"/>
<stop offset="1" stop-color="#62A0EA"/>
</linearGradient>
</defs>
</svg>
