<svg width="512" height="513" viewBox="0 0 512 513" fill="none" xmlns="http://www.w3.org/2000/svg">
<path d="M87.9062 49C65.7969 49 48 66.8438 48 89V433.125C48 455.297 65.7969 473.125 87.9062 473.125H424.078C446.203 473.125 464 455.297 464 433.125V144.781C464 118.266 442.562 96.7812 416.109 96.7812H232C222.188 96.7812 213.219 91.2344 208.812 82.4531L202.797 70.4844C196.172 57.3125 182.719 49 168 49H87.9062Z" fill="#438DE6"/>
<path d="M263.906 145C252.922 145 243 149.406 235.797 156.562C226.703 165.578 214.266 177 201.266 177H87.9062C65.7969 177 48 194.844 48 217V433.125C48 455.297 65.7969 473.125 87.9062 473.125H424.078C446.203 473.125 464 455.297 464 433.125V185C464 162.844 446.203 145 424.078 145H263.906Z" fill="url(#paint0_linear_5_7)"/>
<path d="M263.906 129C252.922 129 243 133.406 235.797 140.562C226.703 149.578 214.266 161 201.266 161H87.9062C65.7969 161 48 178.844 48 201V424.906C48 447.062 65.7969 464.906 87.9062 464.906H424.078C446.203 464.906 464 447.062 464 424.906V169C464 146.844 446.203 129 424.078 129H263.906Z" fill="#A4CAEE"/>
<path d="M320.298 266.878L320.298 341.122L256 378.244V304L320.298 266.878Z" fill="#428CE6"/>
<path d="M256 304V229.756L191.702 266.878L256 304Z" fill="#428CE6"/>
<path d="M194.579 256.144C187.929 259.984 183.845 267.057 183.845 274.735V333.265C183.845 340.943 187.929 348.016 194.579 351.856L245.266 381.12C251.916 384.96 260.084 384.96 266.734 381.12L317.422 351.856C324.071 348.016 328.155 340.943 328.155 333.265V274.735C328.155 267.057 324.071 259.984 317.422 256.144L266.734 226.88C260.084 223.04 251.916 223.04 245.266 226.88L194.579 256.144ZM258.876 240.489L309.564 269.754C311.336 270.777 312.44 272.69 312.44 274.735V333.265C312.44 335.31 311.336 337.223 309.564 338.246L258.876 367.511C257.104 368.534 254.896 368.534 253.124 367.511L202.436 338.246C200.664 337.223 199.56 335.31 199.56 333.265V274.735C199.56 272.69 200.664 270.777 202.436 269.754L253.124 240.489C254.896 239.466 257.104 239.466 258.876 240.489Z" fill="#428CE6"/>
<defs>
<linearGradient id="paint0_linear_5_7" x1="47.9992" y1="448.998" x2="463.999" y2="448.998" gradientUnits="userSpaceOnUse">
<stop stop-color="#62A0EA"/>
<stop offset="0.0576991" stop-color="#AFD4FF"/>
<stop offset="0.122204" stop-color="#62A0EA"/>
<stop offset="0.873306" stop-color="#62A0EA"/>
<stop offset="0.955997" stop-color="#C0D5EA"/>
<stop offset="1" stop-color="#62A0EA"/>
</linearGradient>
</defs>
</svg>
