<svg width="600" height="600" viewBox="0 0 600 600" fill="none" xmlns="http://www.w3.org/2000/svg">
<path d="M93.9062 105C71.7969 105 54 122.844 54 145V489.125C54 511.297 71.7969 529.125 93.9062 529.125H430.078C452.203 529.125 470 511.297 470 489.125V200.781C470 174.266 448.562 152.781 422.109 152.781H238C228.188 152.781 219.219 147.234 214.812 138.453L208.797 126.484C202.172 113.312 188.719 105 174 105H93.9062Z" fill="#438DE6"/>
<path d="M269.906 201C258.922 201 249 205.406 241.797 212.562C232.703 221.578 220.266 233 207.266 233H93.9062C71.7969 233 54 250.844 54 273V489.125C54 511.297 71.7969 529.125 93.9062 529.125H430.078C452.203 529.125 470 511.297 470 489.125V241C470 218.844 452.203 201 430.078 201H269.906Z" fill="url(#paint0_linear_2_526)"/>
<path d="M269.906 185C258.922 185 249 189.406 241.797 196.562C232.703 205.578 220.266 217 207.266 217H93.9062C71.7969 217 54 234.844 54 257V480.906C54 503.063 71.7969 520.906 93.9062 520.906H430.078C452.203 520.906 470 503.063 470 480.906V225C470 202.844 452.203 185 430.078 185H269.906Z" fill="#A4CAEE"/>
<path d="M558.241 93C556.168 93 554.5 94.6729 554.5 96.75V129.012C554.5 131.09 556.168 132.762 558.241 132.762H589.757C591.832 132.762 593.5 131.09 593.5 129.012V101.979C593.5 99.4937 591.49 97.4795 589.01 97.4795H571.75C570.83 97.4795 569.989 96.9595 569.576 96.1362L569.012 95.0142C568.391 93.7793 567.13 93 565.75 93H558.241Z" fill="#438DE6"/>
<path d="M574.741 101C573.711 101 572.781 101.413 572.106 102.084C571.253 102.929 570.087 104 568.869 104H558.241C556.168 104 554.5 105.673 554.5 107.75V128.741C554.5 130.818 556.168 132.491 558.241 132.491H589.757C591.832 132.491 593.5 130.818 593.5 128.741V104.75C593.5 102.673 591.832 101 589.757 101H574.741Z" fill="#A4CAEE"/>
<path d="M230 280C212.458 280 198 294.458 198 312V408C198 425.542 212.458 440 230 440H294C311.542 440 326 425.542 326 408V328C326 325.167 324.875 322.458 322.875 320.458L285.542 283.125C283.542 281.125 280.833 280 278 280H230ZM230 301.333H272.667V317.333C272.667 328 278 333.333 288.667 333.333H304.667V386.458C293.75 385.542 288.875 381.708 284.167 377.417C281.458 374.917 278.917 372.083 275.5 369.667C272.042 367.208 267.458 365.333 262 365.333C256.542 365.333 251.958 367.208 248.5 369.667C245.083 372.083 242.542 374.917 239.833 377.417C235.125 381.708 230.25 385.542 219.333 386.458V312C219.333 305.917 223.917 301.333 230 301.333ZM246 322.667C237.208 322.667 230 329.875 230 338.667C230 347.458 237.208 354.667 246 354.667C254.792 354.667 262 347.458 262 338.667C262 329.875 254.792 322.667 246 322.667ZM246 333.333C249 333.333 251.333 335.667 251.333 338.667C251.333 341.667 249 344 246 344C243 344 240.667 341.667 240.667 338.667C240.667 335.667 243 333.333 246 333.333ZM262 376C265.292 376 267.125 376.791 269.292 378.333C271.458 379.917 273.833 382.417 276.958 385.25C282.5 390.375 290.792 395.958 304.667 397.125V408C304.667 414.083 300.083 418.667 294 418.667H230C223.917 418.667 219.333 414.083 219.333 408V397.125C233.208 395.958 241.5 390.375 247.042 385.25C250.167 382.417 252.542 379.917 254.708 378.333C256.875 376.792 258.708 376 262 376Z" fill="#428CE6"/>
<path d="M570.8 110C569.046 110 567.6 111.446 567.6 113.2V122.8C567.6 124.554 569.046 126 570.8 126H577.2C578.954 126 580.4 124.554 580.4 122.8V114.8C580.4 114.517 580.288 114.246 580.088 114.046L576.354 110.313C576.154 110.113 575.883 110 575.6 110H570.8ZM570.8 112.133H575.067V113.733C575.067 114.8 575.6 115.333 576.667 115.333H578.267V120.646C577.175 120.554 576.688 120.171 576.217 119.742C575.946 119.492 575.692 119.208 575.35 118.967C575.004 118.721 574.546 118.533 574 118.533C573.454 118.533 572.996 118.721 572.65 118.967C572.308 119.208 572.054 119.492 571.783 119.742C571.313 120.171 570.825 120.554 569.733 120.646V113.2C569.733 112.592 570.192 112.133 570.8 112.133ZM572.4 114.267C571.521 114.267 570.8 114.988 570.8 115.867C570.8 116.746 571.521 117.467 572.4 117.467C573.279 117.467 574 116.746 574 115.867C574 114.988 573.279 114.267 572.4 114.267ZM572.4 115.333C572.7 115.333 572.933 115.567 572.933 115.867C572.933 116.167 572.7 116.4 572.4 116.4C572.1 116.4 571.867 116.167 571.867 115.867C571.867 115.567 572.1 115.333 572.4 115.333ZM574 119.6C574.329 119.6 574.513 119.679 574.729 119.833C574.946 119.992 575.183 120.242 575.496 120.525C576.05 121.037 576.879 121.596 578.267 121.712V122.8C578.267 123.408 577.808 123.867 577.2 123.867H570.8C570.192 123.867 569.733 123.408 569.733 122.8V121.712C571.121 121.596 571.95 121.037 572.504 120.525C572.817 120.242 573.054 119.992 573.271 119.833C573.488 119.679 573.671 119.6 574 119.6Z" fill="#428CE6"/>
<defs>
<linearGradient id="paint0_linear_2_526" x1="53.9992" y1="504.998" x2="469.999" y2="504.998" gradientUnits="userSpaceOnUse">
<stop stop-color="#62A0EA"/>
<stop offset="0.0576991" stop-color="#AFD4FF"/>
<stop offset="0.122204" stop-color="#62A0EA"/>
<stop offset="0.873306" stop-color="#62A0EA"/>
<stop offset="0.955997" stop-color="#C0D5EA"/>
<stop offset="1" stop-color="#62A0EA"/>
</linearGradient>
</defs>
</svg>
