<svg width="600" height="600" viewBox="0 0 600 600" fill="none" xmlns="http://www.w3.org/2000/svg">
<path d="M93.9062 105C71.7969 105 54 122.844 54 145V489.125C54 511.297 71.7969 529.125 93.9062 529.125H430.078C452.203 529.125 470 511.297 470 489.125V200.781C470 174.266 448.562 152.781 422.109 152.781H238C228.188 152.781 219.219 147.234 214.812 138.453L208.797 126.484C202.172 113.312 188.719 105 174 105H93.9062Z" fill="#438DE6"/>
<path d="M269.906 201C258.922 201 249 205.406 241.797 212.562C232.703 221.578 220.266 233 207.266 233H93.9062C71.7969 233 54 250.844 54 273V489.125C54 511.297 71.7969 529.125 93.9062 529.125H430.078C452.203 529.125 470 511.297 470 489.125V241C470 218.844 452.203 201 430.078 201H269.906Z" fill="url(#paint0_linear_2_120)"/>
<path d="M269.906 185C258.922 185 249 189.406 241.797 196.562C232.703 205.578 220.266 217 207.266 217H93.9062C71.7969 217 54 234.844 54 257V480.906C54 503.063 71.7969 520.906 93.9062 520.906H430.078C452.203 520.906 470 503.063 470 480.906V225C470 202.844 452.203 185 430.078 185H269.906Z" fill="#A4CAEE"/>
<path d="M558.241 93C556.168 93 554.5 94.6729 554.5 96.75V129.012C554.5 131.09 556.168 132.762 558.241 132.762H589.757C591.832 132.762 593.5 131.09 593.5 129.012V101.979C593.5 99.4937 591.49 97.4795 589.01 97.4795H571.75C570.83 97.4795 569.989 96.9595 569.576 96.1362L569.012 95.0142C568.391 93.7793 567.13 93 565.75 93H558.241Z" fill="#438DE6"/>
<path d="M574.741 101C573.711 101 572.781 101.413 572.106 102.084C571.253 102.929 570.087 104 568.869 104H558.241C556.168 104 554.5 105.673 554.5 107.75V128.741C554.5 130.818 556.168 132.491 558.241 132.491H589.757C591.832 132.491 593.5 130.818 593.5 128.741V104.75C593.5 102.673 591.832 101 589.757 101H574.741Z" fill="#A4CAEE"/>
<path d="M262 280C241.023 280 220.906 288.242 205.945 302.93L233.133 350L273.055 280.859C269.383 280.312 265.711 280.039 262 280ZM283.367 283.008L256.219 330H336.102C326.766 306.992 307.313 289.609 283.367 283.008ZM198.992 310.859C188.015 324.883 182.039 342.188 182 360C182 366.758 182.898 373.477 184.617 380H238.914L198.992 310.859ZM285.086 340L325.008 409.141C335.985 395.117 341.961 377.813 342 360C342 353.242 341.102 346.524 339.383 340H285.086ZM290.867 370L250.945 439.141C254.617 439.688 258.289 439.961 262 440C282.977 440 303.094 431.758 318.055 417.031L290.867 370ZM187.898 390C197.234 413.008 216.687 430.391 240.633 436.993L267.781 390H187.898Z" fill="#428CE6"/>
<path d="M574 110C571.902 110 569.89 110.824 568.394 112.293L571.113 117L575.105 110.086C574.738 110.031 574.371 110.004 574 110ZM576.137 110.301L573.422 115H581.41C580.476 112.699 578.531 110.961 576.137 110.301ZM567.699 113.086C566.601 114.488 566.004 116.219 566 118C566 118.676 566.09 119.348 566.261 120H571.691L567.699 113.086ZM576.308 116L580.301 122.914C581.398 121.512 581.996 119.781 582 118C582 117.324 581.91 116.652 581.738 116H576.308ZM576.887 119L572.894 125.914C573.262 125.969 573.629 125.996 574 126C576.097 126 578.109 125.176 579.605 123.703L576.887 119ZM566.59 121C567.523 123.301 569.469 125.039 571.863 125.699L574.578 121H566.59Z" fill="#428CE6"/>
<defs>
<linearGradient id="paint0_linear_2_120" x1="53.9992" y1="504.998" x2="469.999" y2="504.998" gradientUnits="userSpaceOnUse">
<stop stop-color="#62A0EA"/>
<stop offset="0.0576991" stop-color="#AFD4FF"/>
<stop offset="0.122204" stop-color="#62A0EA"/>
<stop offset="0.873306" stop-color="#62A0EA"/>
<stop offset="0.955997" stop-color="#C0D5EA"/>
<stop offset="1" stop-color="#62A0EA"/>
</linearGradient>
</defs>
</svg>
