<svg width="512" height="512" viewBox="0 0 512 512" fill="none" xmlns="http://www.w3.org/2000/svg">
<path d="M87.9062 48C65.7969 48 48 65.8438 48 88V432.125C48 454.297 65.7969 472.125 87.9062 472.125H424.078C446.203 472.125 464 454.297 464 432.125V143.781C464 117.266 442.562 95.7812 416.109 95.7812H232C222.188 95.7812 213.219 90.2344 208.812 81.4531L202.797 69.4844C196.172 56.3125 182.719 48 168 48H87.9062Z" fill="#438DE6"/>
<path d="M263.906 144C252.922 144 243 148.406 235.797 155.562C226.703 164.578 214.266 176 201.266 176H87.9062C65.7969 176 48 193.844 48 216V432.125C48 454.297 65.7969 472.125 87.9062 472.125H424.078C446.203 472.125 464 454.297 464 432.125V184C464 161.844 446.203 144 424.078 144H263.906Z" fill="url(#paint0_linear_103_24)"/>
<path d="M263.906 128C252.922 128 243 132.406 235.797 139.562C226.703 148.578 214.266 160 201.266 160H87.9062C65.7969 160 48 177.844 48 200V423.906C48 446.062 65.7969 463.906 87.9062 463.906H424.078C446.203 463.906 464 446.062 464 423.906V168C464 145.844 446.203 128 424.078 128H263.906Z" fill="#A4CAEE"/>
<g clip-path="url(#clip0_103_24)">
<path d="M287.5 240.164C285.449 240.137 283.344 240.301 281.32 240.82C268.25 244.238 260.43 257.5 263.848 270.461C264.559 273.168 265.871 275.656 267.348 277.844C266.582 277.953 255.973 296 255.973 296L279.844 296.164L285.449 288.344C288.102 288.562 290.918 288.508 293.652 287.797C306.695 284.406 314.516 271.117 311.125 258.156C310.387 255.449 309.074 252.988 307.598 250.773L298.082 266.906C296.113 270.242 291.902 271.336 288.594 269.394L282.469 265.84C279.133 263.898 278.012 259.715 279.98 256.406L289.523 240.246C288.84 240.219 288.156 240.164 287.5 240.164ZM225.375 245.004C225.293 245.004 225.238 245.004 225.184 245.031C223.57 245.359 222.066 245.961 220.59 246.562C220.453 250.937 221.191 256.652 219.496 258.156C217.801 259.633 212.223 258.402 207.93 257.937C207 259.605 206.262 261.328 205.742 263.187C209.078 265.949 213.699 269.066 213.809 271.281C213.918 273.523 209.434 276.914 206.398 280.031C207.109 281.836 208.148 283.477 209.242 285.062C213.48 284.187 218.758 282.437 220.59 283.75C222.422 285.062 222.422 290.777 222.996 295.125C224.719 295.644 226.551 295.863 228.438 296C230.406 292.117 232.402 286.758 234.563 286.156C236.777 285.527 241.289 289.355 245.063 291.625C246.566 290.559 247.934 289.273 249.191 287.906C247.414 283.887 244.16 278.855 245.063 276.75C245.938 274.644 251.844 273.469 255.973 271.937C256 271.418 256.191 270.926 256.191 270.406C256.191 269.066 255.945 267.754 255.754 266.469C251.516 265.348 245.5 264.773 244.406 262.75C243.285 260.727 246.074 255.312 247.441 251.156C246.047 249.898 244.516 248.805 242.875 247.875C239.348 250.5 235.273 254.848 233.031 254.437C230.816 254.055 228.41 248.695 226.059 245.031C225.84 245.059 225.594 245.031 225.375 245.004ZM229.531 258.156C236.039 258.156 241.344 263.434 241.344 269.969C241.344 276.504 236.039 281.781 229.531 281.781C223.023 281.781 217.746 276.504 217.746 269.969C217.746 263.434 223.023 258.156 229.531 258.156ZM289.879 302.48C288.867 302.48 287.965 302.644 287.363 303H224.008C222.285 302.262 218.785 302.672 217.254 304.258L202.133 319.051C200.793 320.281 200.027 322.441 200 324C199.617 330.207 207 333.242 211.457 329.551L221 320.227L221.027 345C221.027 348.992 224.227 352 228 352H283.945C287.609 352 290.918 348.883 290.918 345.437L290.891 320.227L300.242 329.387C304.699 333.078 312.055 330.043 311.699 323.836C311.672 322.277 310.906 320.117 309.594 318.914L294.445 304.094C293.434 303.027 291.52 302.508 289.879 302.48Z" fill="#428CE6"/>
</g>
<defs>
<linearGradient id="paint0_linear_103_24" x1="47.9992" y1="447.998" x2="463.999" y2="447.998" gradientUnits="userSpaceOnUse">
<stop stop-color="#62A0EA"/>
<stop offset="0.0576991" stop-color="#AFD4FF"/>
<stop offset="0.122204" stop-color="#62A0EA"/>
<stop offset="0.873306" stop-color="#62A0EA"/>
<stop offset="0.955997" stop-color="#C0D5EA"/>
<stop offset="1" stop-color="#62A0EA"/>
</linearGradient>
<clipPath id="clip0_103_24">
<rect width="112" height="112" fill="white" transform="translate(200 240)"/>
</clipPath>
</defs>
</svg>
