<svg width="512" height="512" viewBox="0 0 512 512" fill="none" xmlns="http://www.w3.org/2000/svg">
<path d="M87.9062 48C65.7969 48 48 65.8438 48 88V432.125C48 454.297 65.7969 472.125 87.9062 472.125H424.078C446.203 472.125 464 454.297 464 432.125V143.781C464 117.266 442.562 95.7812 416.109 95.7812H232C222.188 95.7812 213.219 90.2344 208.812 81.4531L202.797 69.4844C196.172 56.3125 182.719 48 168 48H87.9062Z" fill="#438DE6"/>
<path d="M263.906 144C252.922 144 243 148.406 235.797 155.562C226.703 164.578 214.266 176 201.266 176H87.9062C65.7969 176 48 193.844 48 216V432.125C48 454.297 65.7969 472.125 87.9062 472.125H424.078C446.203 472.125 464 454.297 464 432.125V184C464 161.844 446.203 144 424.078 144H263.906Z" fill="url(#paint0_linear_5_6)"/>
<path d="M263.906 128C252.922 128 243 132.406 235.797 139.562C226.703 148.578 214.266 160 201.266 160H87.9062C65.7969 160 48 177.844 48 200V423.906C48 446.062 65.7969 463.906 87.9062 463.906H424.078C446.203 463.906 464 446.062 464 423.906V168C464 145.844 446.203 128 424.078 128H263.906Z" fill="#A4CAEE"/>
<path d="M256 223C211.938 223 176 258.938 176 303C176 347.062 211.938 383 256 383C300.062 383 336 347.062 336 303C336 258.938 300.062 223 256 223ZM266 253V313C266 318.508 261.508 323 256 323C250.492 323 246 318.508 246 313V253H266ZM256 333C261.508 333 266 337.492 266 343C266 348.508 261.508 353 256 353C250.492 353 246 348.508 246 343C246 337.492 250.492 333 256 333Z" fill="#428CE6"/>
<defs>
<linearGradient id="paint0_linear_5_6" x1="47.9992" y1="447.998" x2="463.999" y2="447.998" gradientUnits="userSpaceOnUse">
<stop stop-color="#62A0EA"/>
<stop offset="0.0576991" stop-color="#AFD4FF"/>
<stop offset="0.122204" stop-color="#62A0EA"/>
<stop offset="0.873306" stop-color="#62A0EA"/>
<stop offset="0.955997" stop-color="#C0D5EA"/>
<stop offset="1" stop-color="#62A0EA"/>
</linearGradient>
</defs>
</svg>
