<svg width="512" height="512" viewBox="0 0 512 512" fill="none" xmlns="http://www.w3.org/2000/svg">
<path d="M87.9062 48C65.7969 48 48 65.8438 48 88V432.125C48 454.297 65.7969 472.125 87.9062 472.125H424.078C446.203 472.125 464 454.297 464 432.125V143.781C464 117.266 442.562 95.7812 416.109 95.7812H232C222.188 95.7812 213.219 90.2344 208.812 81.4531L202.797 69.4844C196.172 56.3125 182.719 48 168 48H87.9062Z" fill="#438DE6"/>
<path d="M263.906 144C252.922 144 243 148.406 235.797 155.562C226.703 164.578 214.266 176 201.266 176H87.9062C65.7969 176 48 193.844 48 216V432.125C48 454.297 65.7969 472.125 87.9062 472.125H424.078C446.203 472.125 464 454.297 464 432.125V184C464 161.844 446.203 144 424.078 144H263.906Z" fill="url(#paint0_linear_5_6)"/>
<path d="M263.906 128C252.922 128 243 132.406 235.797 139.562C226.703 148.578 214.266 160 201.266 160H87.9062C65.7969 160 48 177.844 48 200V423.906C48 446.062 65.7969 463.906 87.9062 463.906H424.078C446.203 463.906 464 446.062 464 423.906V168C464 145.844 446.203 128 424.078 128H263.906Z" fill="#A4CAEE"/>
<path d="M256 240C225.156 240 200 265.156 200 296C200 326.844 225.156 352 256 352C286.844 352 312 326.844 312 296C312 265.156 286.844 240 256 240ZM263 261V303C263 306.855 259.855 310 256 310C252.145 310 249 306.855 249 303V261H263ZM256 317C259.855 317 263 320.145 263 324C263 327.855 259.855 331 256 331C252.145 331 249 327.855 249 324C249 320.145 252.145 317 256 317Z" fill="#428CE6"/>
<defs>
<linearGradient id="paint0_linear_5_6" x1="47.9992" y1="447.998" x2="463.999" y2="447.998" gradientUnits="userSpaceOnUse">
<stop stop-color="#62A0EA"/>
<stop offset="0.0576991" stop-color="#AFD4FF"/>
<stop offset="0.122204" stop-color="#62A0EA"/>
<stop offset="0.873306" stop-color="#62A0EA"/>
<stop offset="0.955997" stop-color="#C0D5EA"/>
<stop offset="1" stop-color="#62A0EA"/>
</linearGradient>
</defs>
</svg>
