<svg width="600" height="600" viewBox="0 0 600 600" fill="none" xmlns="http://www.w3.org/2000/svg">
<path d="M93.9062 105C71.7969 105 54 122.844 54 145V489.125C54 511.297 71.7969 529.125 93.9062 529.125H430.078C452.203 529.125 470 511.297 470 489.125V200.781C470 174.266 448.562 152.781 422.109 152.781H238C228.188 152.781 219.219 147.234 214.812 138.453L208.797 126.484C202.172 113.312 188.719 105 174 105H93.9062Z" fill="#438DE6"/>
<path d="M269.906 201C258.922 201 249 205.406 241.797 212.562C232.703 221.578 220.266 233 207.266 233H93.9062C71.7969 233 54 250.844 54 273V489.125C54 511.297 71.7969 529.125 93.9062 529.125H430.078C452.203 529.125 470 511.297 470 489.125V241C470 218.844 452.203 201 430.078 201H269.906Z" fill="url(#paint0_linear_2_444)"/>
<path d="M269.906 185C258.922 185 249 189.406 241.797 196.562C232.703 205.578 220.266 217 207.266 217H93.9062C71.7969 217 54 234.844 54 257V480.906C54 503.063 71.7969 520.906 93.9062 520.906H430.078C452.203 520.906 470 503.063 470 480.906V225C470 202.844 452.203 185 430.078 185H269.906Z" fill="#A4CAEE"/>
<path d="M558.241 93C556.168 93 554.5 94.6729 554.5 96.75V129.012C554.5 131.09 556.168 132.762 558.241 132.762H589.757C591.832 132.762 593.5 131.09 593.5 129.012V101.979C593.5 99.4937 591.49 97.4795 589.01 97.4795H571.75C570.83 97.4795 569.989 96.9595 569.576 96.1362L569.012 95.0142C568.391 93.7793 567.13 93 565.75 93H558.241Z" fill="#438DE6"/>
<path d="M574.741 101C573.711 101 572.781 101.413 572.106 102.084C571.253 102.929 570.087 104 568.869 104H558.241C556.168 104 554.5 105.673 554.5 107.75V128.741C554.5 130.818 556.168 132.491 558.241 132.491H589.757C591.832 132.491 593.5 130.818 593.5 128.741V104.75C593.5 102.673 591.832 101 589.757 101H574.741Z" fill="#A4CAEE"/>
<path d="M262 280C217.938 280 182 315.938 182 360C182 404.062 217.938 440 262 440C306.062 440 342 404.062 342 360C342 315.938 306.062 280 262 280ZM272 310V370C272 375.508 267.508 380 262 380C256.492 380 252 375.508 252 370V310H272ZM262 390C267.508 390 272 394.492 272 400C272 405.508 267.508 410 262 410C256.492 410 252 405.508 252 400C252 394.492 256.492 390 262 390Z" fill="#428CE6"/>
<path d="M574 110C569.594 110 566 113.594 566 118C566 122.406 569.594 126 574 126C578.406 126 582 122.406 582 118C582 113.594 578.406 110 574 110ZM575 113V119C575 119.551 574.551 120 574 120C573.449 120 573 119.551 573 119V113H575ZM574 121C574.551 121 575 121.449 575 122C575 122.551 574.551 123 574 123C573.449 123 573 122.551 573 122C573 121.449 573.449 121 574 121Z" fill="#428CE6"/>
<defs>
<linearGradient id="paint0_linear_2_444" x1="53.9992" y1="504.998" x2="469.999" y2="504.998" gradientUnits="userSpaceOnUse">
<stop stop-color="#62A0EA"/>
<stop offset="0.0576991" stop-color="#AFD4FF"/>
<stop offset="0.122204" stop-color="#62A0EA"/>
<stop offset="0.873306" stop-color="#62A0EA"/>
<stop offset="0.955997" stop-color="#C0D5EA"/>
<stop offset="1" stop-color="#62A0EA"/>
</linearGradient>
</defs>
</svg>
