<svg width="512" height="513" viewBox="0 0 512 513" fill="none" xmlns="http://www.w3.org/2000/svg">
<path d="M87.9062 49C65.7969 49 48 66.8438 48 89V433.125C48 455.297 65.7969 473.125 87.9062 473.125H424.078C446.203 473.125 464 455.297 464 433.125V144.781C464 118.266 442.562 96.7812 416.109 96.7812H232C222.188 96.7812 213.219 91.2344 208.812 82.4531L202.797 70.4844C196.172 57.3125 182.719 49 168 49H87.9062Z" fill="#438DE6"/>
<path d="M263.906 145C252.922 145 243 149.406 235.797 156.562C226.703 165.578 214.266 177 201.266 177H87.9062C65.7969 177 48 194.844 48 217V433.125C48 455.297 65.7969 473.125 87.9062 473.125H424.078C446.203 473.125 464 455.297 464 433.125V185C464 162.844 446.203 145 424.078 145H263.906Z" fill="url(#paint0_linear_5_12)"/>
<path d="M263.906 129C252.922 129 243 133.406 235.797 140.562C226.703 149.578 214.266 161 201.266 161H87.9062C65.7969 161 48 178.844 48 201V424.906C48 447.062 65.7969 464.906 87.9062 464.906H424.078C446.203 464.906 464 447.062 464 424.906V169C464 146.844 446.203 129 424.078 129H263.906Z" fill="#A4CAEE"/>
<path d="M254.438 224.012C251.358 224.058 248.322 224.324 245.286 224.726C221.18 227.985 199.307 242.181 186.718 264.01C183.548 269.456 185.423 276.465 190.914 279.59C196.36 282.759 203.369 280.884 206.494 275.438C218.547 254.591 242.251 243.565 265.91 247.716C285.106 251.109 300.864 263.876 308.364 281.152H290.284C283.99 281.152 278.856 286.286 278.856 292.58C278.856 298.874 283.99 304.008 290.284 304.008H335.996C342.291 304.008 347.424 298.874 347.424 292.58V246.868C347.424 240.574 342.291 235.44 335.996 235.44C329.702 235.44 324.568 240.574 324.568 246.868V262.85C312.872 243.386 293.141 229.324 269.883 225.217C264.705 224.325 259.527 223.923 254.438 224.012ZM176.004 304.008C169.71 304.008 164.576 309.142 164.576 315.436V361.148C164.576 367.443 169.71 372.576 176.004 372.576C182.298 372.576 187.432 367.443 187.432 361.148V345.212C200.467 366.862 223.234 381.415 249.036 383.692C279.972 386.415 309.747 370.924 325.282 344.006C328.452 338.56 326.577 331.551 321.086 328.427C318.497 326.864 315.372 326.462 312.426 327.266C309.48 328.025 306.98 329.944 305.462 332.578C294.347 351.818 273.187 362.845 251 360.925C230.064 359.095 211.985 345.97 203.637 326.864H221.716C228.01 326.864 233.144 321.73 233.144 315.436C233.144 309.142 228.01 304.008 221.716 304.008H176.004Z" fill="#428CE6"/>
<defs>
<linearGradient id="paint0_linear_5_12" x1="47.9992" y1="448.998" x2="463.999" y2="448.998" gradientUnits="userSpaceOnUse">
<stop stop-color="#62A0EA"/>
<stop offset="0.0576991" stop-color="#AFD4FF"/>
<stop offset="0.122204" stop-color="#62A0EA"/>
<stop offset="0.873306" stop-color="#62A0EA"/>
<stop offset="0.955997" stop-color="#C0D5EA"/>
<stop offset="1" stop-color="#62A0EA"/>
</linearGradient>
</defs>
</svg>
