<svg width="512" height="513" viewBox="0 0 512 513" fill="none" xmlns="http://www.w3.org/2000/svg">
<path d="M87.9062 49C65.7969 49 48 66.8438 48 89V433.125C48 455.297 65.7969 473.125 87.9062 473.125H424.078C446.203 473.125 464 455.297 464 433.125V144.781C464 118.266 442.562 96.7812 416.109 96.7812H232C222.188 96.7812 213.219 91.2344 208.812 82.4531L202.797 70.4844C196.172 57.3125 182.719 49 168 49H87.9062Z" fill="#438DE6"/>
<path d="M263.906 145C252.922 145 243 149.406 235.797 156.562C226.703 165.578 214.266 177 201.266 177H87.9062C65.7969 177 48 194.844 48 217V433.125C48 455.297 65.7969 473.125 87.9062 473.125H424.078C446.203 473.125 464 455.297 464 433.125V185C464 162.844 446.203 145 424.078 145H263.906Z" fill="url(#paint0_linear_5_12)"/>
<path d="M263.906 129C252.922 129 243 133.406 235.797 140.562C226.703 149.578 214.266 161 201.266 161H87.9062C65.7969 161 48 178.844 48 201V424.906C48 447.062 65.7969 464.906 87.9062 464.906H424.078C446.203 464.906 464 447.062 464 424.906V169C464 146.844 446.203 129 424.078 129H263.906Z" fill="#A4CAEE"/>
<path d="M254.903 241.009C252.747 241.04 250.622 241.227 248.497 241.508C231.623 243.79 216.311 253.727 207.499 269.007C205.281 272.819 206.593 277.725 210.437 279.913C214.249 282.132 219.155 280.819 221.342 277.007C229.779 262.414 246.372 254.695 262.934 257.601C276.371 259.976 287.401 268.913 292.651 281.007H279.996C275.59 281.007 271.996 284.6 271.996 289.006C271.996 293.412 275.59 297.006 279.996 297.006H311.994C316.4 297.006 319.994 293.412 319.994 289.006V257.008C319.994 252.602 316.4 249.008 311.994 249.008C307.588 249.008 303.994 252.602 303.994 257.008V268.195C295.807 254.57 281.996 244.727 265.715 241.852C262.09 241.227 258.465 240.946 254.903 241.009ZM200 297.006C195.594 297.006 192 300.599 192 305.005V337.004C192 341.41 195.594 345.003 200 345.003C204.406 345.003 207.999 341.41 207.999 337.004V325.848C217.124 341.004 233.06 351.191 251.122 352.784C272.777 354.69 293.62 343.847 304.494 325.004C306.713 321.192 305.401 316.286 301.557 314.099C299.745 313.005 297.557 312.724 295.495 313.286C293.432 313.817 291.683 315.161 290.62 317.005C282.839 330.473 268.027 338.191 252.497 336.848C237.841 335.566 225.186 326.379 219.342 313.005H231.998C236.404 313.005 239.998 309.411 239.998 305.005C239.998 300.599 236.404 297.006 231.998 297.006H200Z" fill="#428CE6"/>
<defs>
<linearGradient id="paint0_linear_5_12" x1="47.9992" y1="448.998" x2="463.999" y2="448.998" gradientUnits="userSpaceOnUse">
<stop stop-color="#62A0EA"/>
<stop offset="0.0576991" stop-color="#AFD4FF"/>
<stop offset="0.122204" stop-color="#62A0EA"/>
<stop offset="0.873306" stop-color="#62A0EA"/>
<stop offset="0.955997" stop-color="#C0D5EA"/>
<stop offset="1" stop-color="#62A0EA"/>
</linearGradient>
</defs>
</svg>
