<svg width="512" height="513" viewBox="0 0 512 513" fill="none" xmlns="http://www.w3.org/2000/svg">
<path d="M87.9062 49C65.7969 49 48 66.8438 48 89V433.125C48 455.297 65.7969 473.125 87.9062 473.125H424.078C446.203 473.125 464 455.297 464 433.125V144.781C464 118.266 442.562 96.7812 416.109 96.7812H232C222.188 96.7812 213.219 91.2344 208.812 82.4531L202.797 70.4844C196.172 57.3125 182.719 49 168 49H87.9062Z" fill="#438DE6"/>
<path d="M263.906 145C252.922 145 243 149.406 235.797 156.562C226.703 165.578 214.266 177 201.266 177H87.9062C65.7969 177 48 194.844 48 217V433.125C48 455.297 65.7969 473.125 87.9062 473.125H424.078C446.203 473.125 464 455.297 464 433.125V185C464 162.844 446.203 145 424.078 145H263.906Z" fill="url(#paint0_linear_5_13)"/>
<path d="M263.906 129C252.922 129 243 133.406 235.797 140.562C226.703 149.578 214.266 161 201.266 161H87.9062C65.7969 161 48 178.844 48 201V424.906C48 447.063 65.7969 464.906 87.9062 464.906H424.078C446.203 464.906 464 447.063 464 424.906V169C464 146.844 446.203 129 424.078 129H263.906Z" fill="#A4CAEE"/>
<path d="M194.125 224C181.25 224 170.667 234.75 170.667 247.542V360.458C170.667 373.25 181.25 384 194.125 384H317.875C330.75 384 341.334 373.25 341.334 360.458V247.542C341.334 234.75 330.75 224 317.875 224H194.125ZM194.125 245.333H317.875C319.167 245.333 320 246.083 320 247.542V360.458C320 361.917 319.167 362.667 317.875 362.667H194.125C192.834 362.667 192 361.917 192 360.458V247.542C192 246.083 192.834 245.333 194.125 245.333Z" fill="#428CE6"/>
<path d="M218.834 286.917C217.084 286.875 215.375 287.583 214.125 288.792C211.667 291.292 211.667 295.375 214.125 297.875L230.959 314.667L214.125 331.458C211.667 333.958 211.667 338.042 214.125 340.542C216.625 343 220.709 343 223.209 340.542L244.542 319.208C247 316.708 247 312.625 244.542 310.125L223.209 288.792C222.042 287.667 220.459 287 218.834 286.917ZM256 330.667V341.333H288V330.667H256Z" fill="#428CE6"/>
<defs>
<linearGradient id="paint0_linear_5_13" x1="47.9992" y1="448.998" x2="463.999" y2="448.998" gradientUnits="userSpaceOnUse">
<stop stop-color="#62A0EA"/>
<stop offset="0.0576991" stop-color="#AFD4FF"/>
<stop offset="0.122204" stop-color="#62A0EA"/>
<stop offset="0.873306" stop-color="#62A0EA"/>
<stop offset="0.955997" stop-color="#C0D5EA"/>
<stop offset="1" stop-color="#62A0EA"/>
</linearGradient>
</defs>
</svg>
