<svg width="600" height="600" viewBox="0 0 600 600" fill="none" xmlns="http://www.w3.org/2000/svg">
<path d="M93.9062 105C71.7969 105 54 122.844 54 145V489.125C54 511.297 71.7969 529.125 93.9062 529.125H430.078C452.203 529.125 470 511.297 470 489.125V200.781C470 174.266 448.562 152.781 422.109 152.781H238C228.188 152.781 219.219 147.234 214.812 138.453L208.797 126.484C202.172 113.312 188.719 105 174 105H93.9062Z" fill="#438DE6"/>
<path d="M269.906 201C258.922 201 249 205.406 241.797 212.562C232.703 221.578 220.266 233 207.266 233H93.9062C71.7969 233 54 250.844 54 273V489.125C54 511.297 71.7969 529.125 93.9062 529.125H430.078C452.203 529.125 470 511.297 470 489.125V241C470 218.844 452.203 201 430.078 201H269.906Z" fill="url(#paint0_linear_2_642)"/>
<path d="M269.906 185C258.922 185 249 189.406 241.797 196.562C232.703 205.578 220.266 217 207.266 217H93.9062C71.7969 217 54 234.844 54 257V480.906C54 503.063 71.7969 520.906 93.9062 520.906H430.078C452.203 520.906 470 503.063 470 480.906V225C470 202.844 452.203 185 430.078 185H269.906Z" fill="#A4CAEE"/>
<path d="M558.241 93C556.168 93 554.5 94.6729 554.5 96.75V129.012C554.5 131.09 556.168 132.762 558.241 132.762H589.757C591.832 132.762 593.5 131.09 593.5 129.012V101.979C593.5 99.4937 591.49 97.4795 589.01 97.4795H571.75C570.83 97.4795 569.989 96.9595 569.576 96.1362L569.012 95.0142C568.391 93.7793 567.13 93 565.75 93H558.241Z" fill="#438DE6"/>
<path d="M574.741 101C573.711 101 572.781 101.413 572.106 102.084C571.253 102.929 570.087 104 568.869 104H558.241C556.168 104 554.5 105.673 554.5 107.75V128.741C554.5 130.818 556.168 132.491 558.241 132.491H589.757C591.832 132.491 593.5 130.818 593.5 128.741V104.75C593.5 102.673 591.832 101 589.757 101H574.741Z" fill="#A4CAEE"/>
<path d="M200.125 280C187.25 280 176.667 290.75 176.667 303.542V416.458C176.667 429.25 187.25 440 200.125 440H323.875C336.75 440 347.334 429.25 347.334 416.458V303.542C347.334 290.75 336.75 280 323.875 280H200.125ZM200.125 301.333H323.875C325.167 301.333 326 302.083 326 303.542V416.458C326 417.917 325.167 418.667 323.875 418.667H200.125C198.834 418.667 198 417.917 198 416.458V303.542C198 302.083 198.834 301.333 200.125 301.333Z" fill="#428CE6"/>
<path d="M224.834 342.917C223.084 342.875 221.375 343.583 220.125 344.792C217.667 347.292 217.667 351.375 220.125 353.875L236.959 370.667L220.125 387.458C217.667 389.958 217.667 394.042 220.125 396.542C222.625 399 226.709 399 229.209 396.542L250.542 375.208C253 372.708 253 368.625 250.542 366.125L229.209 344.792C228.042 343.667 226.459 343 224.834 342.917ZM262 386.667V397.333H294V386.667H262Z" fill="#428CE6"/>
<path d="M567.813 110C566.525 110 565.467 111.075 565.467 112.354V123.646C565.467 124.925 566.525 126 567.813 126H580.188C581.475 126 582.533 124.925 582.533 123.646V112.354C582.533 111.075 581.475 110 580.188 110H567.813ZM567.813 112.133H580.188C580.317 112.133 580.4 112.208 580.4 112.354V123.646C580.4 123.792 580.317 123.867 580.188 123.867H567.813C567.683 123.867 567.6 123.792 567.6 123.646V112.354C567.6 112.208 567.683 112.133 567.813 112.133Z" fill="#428CE6"/>
<path d="M570.284 116.292C570.109 116.288 569.938 116.358 569.813 116.479C569.567 116.729 569.567 117.138 569.813 117.388L571.496 119.067L569.813 120.746C569.567 120.996 569.567 121.404 569.813 121.654C570.063 121.9 570.471 121.9 570.721 121.654L572.854 119.521C573.1 119.271 573.1 118.863 572.854 118.613L570.721 116.479C570.604 116.367 570.446 116.3 570.284 116.292ZM574 120.667V121.733H577.2V120.667H574Z" fill="#428CE6"/>
<defs>
<linearGradient id="paint0_linear_2_642" x1="53.9992" y1="504.998" x2="469.999" y2="504.998" gradientUnits="userSpaceOnUse">
<stop stop-color="#62A0EA"/>
<stop offset="0.0576991" stop-color="#AFD4FF"/>
<stop offset="0.122204" stop-color="#62A0EA"/>
<stop offset="0.873306" stop-color="#62A0EA"/>
<stop offset="0.955997" stop-color="#C0D5EA"/>
<stop offset="1" stop-color="#62A0EA"/>
</linearGradient>
</defs>
</svg>
