<svg width="512" height="513" viewBox="0 0 512 513" fill="none" xmlns="http://www.w3.org/2000/svg">
<path d="M87.9062 49C65.7969 49 48 66.8438 48 89V433.125C48 455.297 65.7969 473.125 87.9062 473.125H424.078C446.203 473.125 464 455.297 464 433.125V144.781C464 118.266 442.562 96.7812 416.109 96.7812H232C222.188 96.7812 213.219 91.2344 208.812 82.4531L202.797 70.4844C196.172 57.3125 182.719 49 168 49H87.9062Z" fill="#438DE6"/>
<path d="M263.906 145C252.922 145 243 149.406 235.797 156.562C226.703 165.578 214.266 177 201.266 177H87.9062C65.7969 177 48 194.844 48 217V433.125C48 455.297 65.7969 473.125 87.9062 473.125H424.078C446.203 473.125 464 455.297 464 433.125V185C464 162.844 446.203 145 424.078 145H263.906Z" fill="url(#paint0_linear_5_13)"/>
<path d="M263.906 129C252.922 129 243 133.406 235.797 140.562C226.703 149.578 214.266 161 201.266 161H87.9062C65.7969 161 48 178.844 48 201V424.906C48 447.062 65.7969 464.906 87.9062 464.906H424.078C446.203 464.906 464 447.062 464 424.906V169C464 146.844 446.203 129 424.078 129H263.906Z" fill="#A4CAEE"/>
<path d="M212.421 241C203.408 241 196 248.525 196 257.479V336.521C196 345.475 203.408 353 212.421 353H299.046C308.058 353 315.467 345.475 315.467 336.521V257.479C315.467 248.525 308.058 241 299.046 241H212.421ZM212.421 255.933H299.046C299.95 255.933 300.533 256.458 300.533 257.479V336.521C300.533 337.542 299.95 338.067 299.046 338.067H212.421C211.517 338.067 210.933 337.542 210.933 336.521V257.479C210.933 256.458 211.517 255.933 212.421 255.933Z" fill="#428CE6"/>
<path d="M229.717 285.042C228.492 285.012 227.296 285.508 226.421 286.354C224.7 288.104 224.7 290.962 226.421 292.712L238.204 304.467L226.421 316.221C224.7 317.971 224.7 320.829 226.421 322.579C228.171 324.3 231.029 324.3 232.779 322.579L247.713 307.646C249.433 305.896 249.433 303.037 247.713 301.287L232.779 286.354C231.963 285.567 230.854 285.1 229.717 285.042ZM255.733 315.667V323.133H278.133V315.667H255.733Z" fill="#428CE6"/>
<defs>
<linearGradient id="paint0_linear_5_13" x1="47.9992" y1="448.998" x2="463.999" y2="448.998" gradientUnits="userSpaceOnUse">
<stop stop-color="#62A0EA"/>
<stop offset="0.0576991" stop-color="#AFD4FF"/>
<stop offset="0.122204" stop-color="#62A0EA"/>
<stop offset="0.873306" stop-color="#62A0EA"/>
<stop offset="0.955997" stop-color="#C0D5EA"/>
<stop offset="1" stop-color="#62A0EA"/>
</linearGradient>
</defs>
</svg>
