<svg width="600" height="600" viewBox="0 0 600 600" fill="none" xmlns="http://www.w3.org/2000/svg">
<path d="M93.9061 105C71.7968 105 53.9999 122.844 53.9999 145V489.125C53.9999 511.297 71.7968 529.125 93.9061 529.125H430.078C452.203 529.125 470 511.297 470 489.125V200.781C470 174.266 448.562 152.781 422.109 152.781H238C228.187 152.781 219.219 147.234 214.812 138.453L208.797 126.484C202.172 113.312 188.719 105 174 105H93.9061Z" fill="#438DE6"/>
<path d="M269.906 201C258.922 201 249 205.406 241.797 212.562C232.703 221.578 220.266 233 207.266 233H93.9061C71.7968 233 53.9999 250.844 53.9999 273V489.125C53.9999 511.297 71.7968 529.125 93.9061 529.125H430.078C452.203 529.125 470 511.297 470 489.125V241C470 218.844 452.203 201 430.078 201H269.906Z" fill="url(#paint0_linear_2_507)"/>
<path d="M269.906 185C258.922 185 249 189.406 241.797 196.562C232.703 205.578 220.266 217 207.266 217H93.9061C71.7968 217 53.9999 234.844 53.9999 257V480.906C53.9999 503.063 71.7968 520.906 93.9061 520.906H430.078C452.203 520.906 470 503.063 470 480.906V225C470 202.844 452.203 185 430.078 185H269.906Z" fill="#A4CAEE"/>
<path d="M558.241 93C556.168 93 554.5 94.6729 554.5 96.75V129.012C554.5 131.09 556.168 132.762 558.241 132.762H589.757C591.832 132.762 593.5 131.09 593.5 129.012V101.979C593.5 99.4937 591.49 97.4795 589.01 97.4795H571.75C570.83 97.4795 569.989 96.9595 569.576 96.1362L569.012 95.0142C568.391 93.7793 567.13 93 565.75 93H558.241Z" fill="#438DE6"/>
<path d="M574.741 101C573.711 101 572.781 101.413 572.106 102.084C571.253 102.929 570.087 104 568.869 104H558.241C556.168 104 554.5 105.673 554.5 107.75V128.741C554.5 130.818 556.168 132.491 558.241 132.491H589.757C591.832 132.491 593.5 130.818 593.5 128.741V104.75C593.5 102.673 591.832 101 589.757 101H574.741Z" fill="#A4CAEE"/>
<path d="M230 280C212.458 280 198 294.458 198 312V408C198 425.542 212.458 440 230 440H294C311.542 440 326 425.542 326 408V328C326 325.167 324.875 322.458 322.875 320.458L285.542 283.125C283.542 281.125 280.833 280 278 280H230ZM230 301.333H272.667V317.333C272.667 328 278 333.333 288.667 333.333H304.667V408C304.667 414.083 300.083 418.667 294 418.667H230C223.917 418.667 219.333 414.083 219.333 408V312C219.333 305.917 223.917 301.333 230 301.333ZM246 322.667C237.208 322.667 230 329.875 230 338.667C230 347.458 237.208 354.667 246 354.667C254.792 354.667 262 347.458 262 338.667C262 329.875 254.792 322.667 246 322.667ZM246 333.333C249 333.333 251.333 335.667 251.333 338.667C251.333 341.667 249 344 246 344C243 344 240.667 341.667 240.667 338.667C240.667 335.667 243 333.333 246 333.333ZM272.5 354.542V365.208L294 365.333V354.666L272.5 354.542ZM230 376V386.667H294V376H230ZM230 397.333V408H294V397.333H230Z" fill="#428CE6"/>
<path d="M570.8 110C569.046 110 567.6 111.446 567.6 113.2V122.8C567.6 124.554 569.046 126 570.8 126H577.2C578.954 126 580.4 124.554 580.4 122.8V114.8C580.4 114.517 580.287 114.246 580.087 114.046L576.354 110.312C576.154 110.112 575.883 110 575.6 110H570.8ZM570.8 112.133H575.067V113.733C575.067 114.8 575.6 115.333 576.667 115.333H578.267V122.8C578.267 123.408 577.808 123.867 577.2 123.867H570.8C570.192 123.867 569.733 123.408 569.733 122.8V113.2C569.733 112.592 570.192 112.133 570.8 112.133ZM572.4 114.267C571.521 114.267 570.8 114.987 570.8 115.867C570.8 116.746 571.521 117.467 572.4 117.467C573.279 117.467 574 116.746 574 115.867C574 114.987 573.279 114.267 572.4 114.267ZM572.4 115.333C572.7 115.333 572.933 115.567 572.933 115.867C572.933 116.167 572.7 116.4 572.4 116.4C572.1 116.4 571.867 116.167 571.867 115.867C571.867 115.567 572.1 115.333 572.4 115.333ZM575.05 117.454V118.521L577.2 118.533V117.467L575.05 117.454ZM570.8 119.6V120.667H577.2V119.6H570.8ZM570.8 121.733V122.8H577.2V121.733H570.8Z" fill="#428CE6"/>
<defs>
<linearGradient id="paint0_linear_2_507" x1="53.999" y1="504.998" x2="469.999" y2="504.998" gradientUnits="userSpaceOnUse">
<stop stop-color="#62A0EA"/>
<stop offset="0.0576991" stop-color="#AFD4FF"/>
<stop offset="0.122204" stop-color="#62A0EA"/>
<stop offset="0.873306" stop-color="#62A0EA"/>
<stop offset="0.955997" stop-color="#C0D5EA"/>
<stop offset="1" stop-color="#62A0EA"/>
</linearGradient>
</defs>
</svg>
