<svg width="512" height="513" viewBox="0 0 512 513" fill="none" xmlns="http://www.w3.org/2000/svg">
<path d="M87.9062 49C65.7969 49 48 66.8438 48 89V433.125C48 455.297 65.7969 473.125 87.9062 473.125H424.078C446.203 473.125 464 455.297 464 433.125V144.781C464 118.266 442.562 96.7812 416.109 96.7812H232C222.188 96.7812 213.219 91.2344 208.812 82.4531L202.797 70.4844C196.172 57.3125 182.719 49 168 49H87.9062Z" fill="#438DE6"/>
<path d="M263.906 145C252.922 145 243 149.406 235.797 156.562C226.703 165.578 214.266 177 201.266 177H87.9062C65.7969 177 48 194.844 48 217V433.125C48 455.297 65.7969 473.125 87.9062 473.125H424.078C446.203 473.125 464 455.297 464 433.125V185C464 162.844 446.203 145 424.078 145H263.906Z" fill="url(#paint0_linear_5_24)"/>
<path d="M263.906 129C252.922 129 243 133.406 235.797 140.562C226.703 149.578 214.266 161 201.266 161H87.9062C65.7969 161 48 178.844 48 201V424.906C48 447.062 65.7969 464.906 87.9062 464.906H424.078C446.203 464.906 464 447.062 464 424.906V169C464 146.844 446.203 129 424.078 129H263.906Z" fill="#A4CAEE"/>
<path d="M228 239C212.651 239 200 251.651 200 267V351C200 366.349 212.651 379 228 379H284C299.349 379 312 366.349 312 351V281C312 278.521 311.016 276.151 309.266 274.401L276.599 241.734C274.849 239.984 272.479 239 270 239H228ZM228 257.667H265.333V271.667C265.333 281 270 285.667 279.333 285.667H293.333V332.151C283.781 331.349 279.516 327.995 275.396 324.24C273.026 322.052 270.802 319.573 267.812 317.458C264.786 315.307 260.776 313.667 256 313.667C251.224 313.667 247.214 315.307 244.187 317.458C241.198 319.573 238.974 322.052 236.604 324.24C232.484 327.995 228.219 331.349 218.667 332.151V267C218.667 261.677 222.677 257.667 228 257.667ZM242 276.333C234.307 276.333 228 282.641 228 290.333C228 298.026 234.307 304.333 242 304.333C249.693 304.333 256 298.026 256 290.333C256 282.641 249.693 276.333 242 276.333ZM242 285.667C244.625 285.667 246.667 287.708 246.667 290.333C246.667 292.958 244.625 295 242 295C239.375 295 237.333 292.958 237.333 290.333C237.333 287.708 239.375 285.667 242 285.667ZM256 323C258.88 323 260.484 323.693 262.38 325.042C264.276 326.427 266.354 328.615 269.089 331.094C273.937 335.578 281.193 340.463 293.333 341.484V351C293.333 356.323 289.323 360.333 284 360.333H228C222.677 360.333 218.667 356.323 218.667 351V341.484C230.807 340.463 238.062 335.578 242.911 331.094C245.646 328.615 247.724 326.427 249.62 325.042C251.516 323.693 253.12 323 256 323Z" fill="#428CE6"/>
<defs>
<linearGradient id="paint0_linear_5_24" x1="47.9992" y1="448.998" x2="463.999" y2="448.998" gradientUnits="userSpaceOnUse">
<stop stop-color="#62A0EA"/>
<stop offset="0.0576991" stop-color="#AFD4FF"/>
<stop offset="0.122204" stop-color="#62A0EA"/>
<stop offset="0.873306" stop-color="#62A0EA"/>
<stop offset="0.955997" stop-color="#C0D5EA"/>
<stop offset="1" stop-color="#62A0EA"/>
</linearGradient>
</defs>
</svg>
