<svg width="512" height="513" viewBox="0 0 512 513" fill="none" xmlns="http://www.w3.org/2000/svg">
<path d="M87.9062 49C65.7969 49 48 66.8438 48 89V433.125C48 455.297 65.7969 473.125 87.9062 473.125H424.078C446.203 473.125 464 455.297 464 433.125V144.781C464 118.266 442.562 96.7812 416.109 96.7812H232C222.188 96.7812 213.219 91.2344 208.812 82.4531L202.797 70.4844C196.172 57.3125 182.719 49 168 49H87.9062Z" fill="#438DE6"/>
<path d="M263.906 145C252.922 145 243 149.406 235.797 156.562C226.703 165.578 214.266 177 201.266 177H87.9062C65.7969 177 48 194.844 48 217V433.125C48 455.297 65.7969 473.125 87.9062 473.125H424.078C446.203 473.125 464 455.297 464 433.125V185C464 162.844 446.203 145 424.078 145H263.906Z" fill="url(#paint0_linear_5_24)"/>
<path d="M263.906 129C252.922 129 243 133.406 235.797 140.562C226.703 149.578 214.266 161 201.266 161H87.9062C65.7969 161 48 178.844 48 201V424.906C48 447.062 65.7969 464.906 87.9062 464.906H424.078C446.203 464.906 464 447.062 464 424.906V169C464 146.844 446.203 129 424.078 129H263.906Z" fill="#A4CAEE"/>
<path d="M224 224C206.458 224 192 238.458 192 256V352C192 369.542 206.458 384 224 384H288C305.542 384 320 369.542 320 352V272C320 269.167 318.875 266.458 316.875 264.458L279.542 227.125C277.542 225.125 274.833 224 272 224H224ZM224 245.333H266.667V261.333C266.667 272 272 277.333 282.667 277.333H298.667V330.458C287.75 329.542 282.875 325.708 278.167 321.417C275.458 318.917 272.917 316.083 269.5 313.667C266.042 311.208 261.458 309.333 256 309.333C250.542 309.333 245.958 311.208 242.5 313.667C239.083 316.083 236.542 318.917 233.833 321.417C229.125 325.708 224.25 329.542 213.333 330.458V256C213.333 249.917 217.917 245.333 224 245.333ZM240 266.667C231.208 266.667 224 273.875 224 282.667C224 291.458 231.208 298.667 240 298.667C248.792 298.667 256 291.458 256 282.667C256 273.875 248.792 266.667 240 266.667ZM240 277.333C243 277.333 245.333 279.667 245.333 282.667C245.333 285.667 243 288 240 288C237 288 234.667 285.667 234.667 282.667C234.667 279.667 237 277.333 240 277.333ZM256 320C259.292 320 261.125 320.791 263.292 322.333C265.458 323.917 267.833 326.417 270.958 329.25C276.5 334.375 284.792 339.958 298.667 341.125V352C298.667 358.083 294.083 362.667 288 362.667H224C217.917 362.667 213.333 358.083 213.333 352V341.125C227.208 339.958 235.5 334.375 241.042 329.25C244.167 326.417 246.542 323.917 248.708 322.333C250.875 320.792 252.708 320 256 320Z" fill="#428CE6"/>
<defs>
<linearGradient id="paint0_linear_5_24" x1="47.9992" y1="448.998" x2="463.999" y2="448.998" gradientUnits="userSpaceOnUse">
<stop stop-color="#62A0EA"/>
<stop offset="0.0576991" stop-color="#AFD4FF"/>
<stop offset="0.122204" stop-color="#62A0EA"/>
<stop offset="0.873306" stop-color="#62A0EA"/>
<stop offset="0.955997" stop-color="#C0D5EA"/>
<stop offset="1" stop-color="#62A0EA"/>
</linearGradient>
</defs>
</svg>
