<svg width="512" height="513" viewBox="0 0 512 513" fill="none" xmlns="http://www.w3.org/2000/svg">
<path d="M87.9062 49C65.7969 49 48 66.8438 48 89V433.125C48 455.297 65.7969 473.125 87.9062 473.125H424.078C446.203 473.125 464 455.297 464 433.125V144.781C464 118.266 442.562 96.7812 416.109 96.7812H232C222.188 96.7812 213.219 91.2344 208.812 82.4531L202.797 70.4844C196.172 57.3125 182.719 49 168 49H87.9062Z" fill="#438DE6"/>
<path d="M263.906 145C252.922 145 243 149.406 235.797 156.562C226.703 165.578 214.266 177 201.266 177H87.9062C65.7969 177 48 194.844 48 217V433.125C48 455.297 65.7969 473.125 87.9062 473.125H424.078C446.203 473.125 464 455.297 464 433.125V185C464 162.844 446.203 145 424.078 145H263.906Z" fill="url(#paint0_linear_5_24)"/>
<path d="M263.906 129C252.922 129 243 133.406 235.797 140.562C226.703 149.578 214.266 161 201.266 161H87.9062C65.7969 161 48 178.844 48 201V424.906C48 447.063 65.7969 464.906 87.9062 464.906H424.078C446.203 464.906 464 447.063 464 424.906V169C464 146.844 446.203 129 424.078 129H263.906Z" fill="#A4CAEE"/>
<path d="M228 227C212.651 227 200 239.651 200 255V339C200 354.349 212.651 367 228 367H284C299.349 367 312 354.349 312 339V269C312 266.521 311.016 264.151 309.266 262.401L276.599 229.734C274.849 227.984 272.479 227 270 227H228ZM228 245.667H265.333V259.667C265.333 269 270 273.667 279.333 273.667H293.333V320.151C283.781 319.349 279.516 315.995 275.396 312.24C273.026 310.052 270.802 307.573 267.812 305.458C264.786 303.307 260.776 301.667 256 301.667C251.224 301.667 247.214 303.307 244.187 305.458C241.198 307.573 238.974 310.052 236.604 312.24C232.484 315.995 228.219 319.349 218.667 320.151V255C218.667 249.677 222.677 245.667 228 245.667ZM242 264.333C234.307 264.333 228 270.641 228 278.333C228 286.026 234.307 292.333 242 292.333C249.693 292.333 256 286.026 256 278.333C256 270.641 249.693 264.333 242 264.333ZM242 273.667C244.625 273.667 246.667 275.708 246.667 278.333C246.667 280.958 244.625 283 242 283C239.375 283 237.333 280.958 237.333 278.333C237.333 275.708 239.375 273.667 242 273.667ZM256 311C258.88 311 260.484 311.693 262.38 313.042C264.276 314.427 266.354 316.615 269.089 319.094C273.937 323.578 281.193 328.463 293.333 329.484V339C293.333 344.323 289.323 348.333 284 348.333H228C222.677 348.333 218.667 344.323 218.667 339V329.484C230.807 328.463 238.062 323.578 242.911 319.094C245.646 316.615 247.724 314.427 249.62 313.042C251.516 311.693 253.12 311 256 311Z" fill="#428CE6"/>
<defs>
<linearGradient id="paint0_linear_5_24" x1="47.9992" y1="448.998" x2="463.999" y2="448.998" gradientUnits="userSpaceOnUse">
<stop stop-color="#62A0EA"/>
<stop offset="0.0576991" stop-color="#AFD4FF"/>
<stop offset="0.122204" stop-color="#62A0EA"/>
<stop offset="0.873306" stop-color="#62A0EA"/>
<stop offset="0.955997" stop-color="#C0D5EA"/>
<stop offset="1" stop-color="#62A0EA"/>
</linearGradient>
</defs>
</svg>
