<svg width="512" height="513" viewBox="0 0 512 513" fill="none" xmlns="http://www.w3.org/2000/svg">
<path d="M87.9062 49C65.7969 49 48 66.8438 48 89V433.125C48 455.297 65.7969 473.125 87.9062 473.125H424.078C446.203 473.125 464 455.297 464 433.125V144.781C464 118.266 442.562 96.7812 416.109 96.7812H232C222.188 96.7812 213.219 91.2344 208.812 82.4531L202.797 70.4844C196.172 57.3125 182.719 49 168 49H87.9062Z" fill="#438DE6"/>
<path d="M263.906 145C252.922 145 243 149.406 235.797 156.562C226.703 165.578 214.266 177 201.266 177H87.9062C65.7969 177 48 194.844 48 217V433.125C48 455.297 65.7969 473.125 87.9062 473.125H424.078C446.203 473.125 464 455.297 464 433.125V185C464 162.844 446.203 145 424.078 145H263.906Z" fill="url(#paint0_linear_5_26)"/>
<path d="M263.906 129C252.922 129 243 133.406 235.797 140.562C226.703 149.578 214.266 161 201.266 161H87.9062C65.7969 161 48 178.844 48 201V424.906C48 447.063 65.7969 464.906 87.9062 464.906H424.078C446.203 464.906 464 447.063 464 424.906V169C464 146.844 446.203 129 424.078 129H263.906Z" fill="#A4CAEE"/>
<path d="M205.965 253C201.547 253 198 256.547 198 260.965C198.031 265.01 201.142 268.401 205.218 268.806L205.312 332.744H253.102L253.009 346.621L238.634 357.604C236.861 358.942 236.55 361.431 237.888 363.204C239.225 364.947 241.715 365.258 243.488 363.92L256.929 353.621L270.432 364.168C272.175 365.506 274.695 365.195 276.064 363.484C277.402 361.742 277.091 359.222 275.348 357.884L260.974 346.621L261.067 332.744H308.858L308.764 268.588C312.156 267.592 314.52 264.481 314.52 260.965C314.52 256.547 310.942 253 306.555 253L205.965 253ZM260.974 268.93C269.748 268.93 276.904 276.055 276.904 284.86H260.974V268.93ZM253.009 276.895V292.825H268.939C268.939 301.599 261.783 308.756 253.009 308.756C244.204 308.756 237.079 301.599 237.079 292.825C237.079 284.02 244.204 276.895 253.009 276.895Z" fill="#428CE6"/>
<defs>
<linearGradient id="paint0_linear_5_26" x1="47.9992" y1="448.998" x2="463.999" y2="448.998" gradientUnits="userSpaceOnUse">
<stop stop-color="#62A0EA"/>
<stop offset="0.0576991" stop-color="#AFD4FF"/>
<stop offset="0.122204" stop-color="#62A0EA"/>
<stop offset="0.873306" stop-color="#62A0EA"/>
<stop offset="0.955997" stop-color="#C0D5EA"/>
<stop offset="1" stop-color="#62A0EA"/>
</linearGradient>
</defs>
</svg>
