<svg width="512" height="513" viewBox="0 0 512 513" fill="none" xmlns="http://www.w3.org/2000/svg">
<path d="M87.9062 49C65.7969 49 48 66.8438 48 89V433.125C48 455.297 65.7969 473.125 87.9062 473.125H424.078C446.203 473.125 464 455.297 464 433.125V144.781C464 118.266 442.562 96.7812 416.109 96.7812H232C222.188 96.7812 213.219 91.2344 208.812 82.4531L202.797 70.4844C196.172 57.3125 182.719 49 168 49H87.9062Z" fill="#438DE6"/>
<path d="M263.906 145C252.922 145 243 149.406 235.797 156.562C226.703 165.578 214.266 177 201.266 177H87.9062C65.7969 177 48 194.844 48 217V433.125C48 455.297 65.7969 473.125 87.9062 473.125H424.078C446.203 473.125 464 455.297 464 433.125V185C464 162.844 446.203 145 424.078 145H263.906Z" fill="url(#paint0_linear_5_26)"/>
<path d="M263.906 129C252.922 129 243 133.406 235.797 140.562C226.703 149.578 214.266 161 201.266 161H87.9062C65.7969 161 48 178.844 48 201V424.906C48 447.062 65.7969 464.906 87.9062 464.906H424.078C446.203 464.906 464 447.062 464 424.906V169C464 146.844 446.203 129 424.078 129H263.906Z" fill="#A4CAEE"/>
<path d="M205.965 241C201.547 241 198 244.547 198 248.965C198.031 253.01 201.142 256.401 205.218 256.806L205.312 320.744H253.102L253.009 334.621L238.634 345.604C236.861 346.942 236.55 349.431 237.888 351.204C239.225 352.947 241.715 353.258 243.488 351.92L256.929 341.621L270.432 352.168C272.175 353.506 274.695 353.195 276.064 351.484C277.402 349.742 277.091 347.222 275.348 345.884L260.974 334.621L261.067 320.744H308.858L308.764 256.588C312.156 255.592 314.52 252.481 314.52 248.965C314.52 244.547 310.942 241 306.555 241L205.965 241ZM260.974 256.93C269.748 256.93 276.904 264.055 276.904 272.86H260.974V256.93ZM253.009 264.895V280.825H268.939C268.939 289.599 261.783 296.756 253.009 296.756C244.204 296.756 237.079 289.599 237.079 280.825C237.079 272.02 244.204 264.895 253.009 264.895Z" fill="#428CE6"/>
<defs>
<linearGradient id="paint0_linear_5_26" x1="47.9992" y1="448.998" x2="463.999" y2="448.998" gradientUnits="userSpaceOnUse">
<stop stop-color="#62A0EA"/>
<stop offset="0.0576991" stop-color="#AFD4FF"/>
<stop offset="0.122204" stop-color="#62A0EA"/>
<stop offset="0.873306" stop-color="#62A0EA"/>
<stop offset="0.955997" stop-color="#C0D5EA"/>
<stop offset="1" stop-color="#62A0EA"/>
</linearGradient>
</defs>
</svg>
