<svg width="512" height="513" viewBox="0 0 512 513" fill="none" xmlns="http://www.w3.org/2000/svg">
<path d="M87.9062 49C65.7969 49 48 66.8438 48 89V433.125C48 455.297 65.7969 473.125 87.9062 473.125H424.078C446.203 473.125 464 455.297 464 433.125V144.781C464 118.266 442.562 96.7812 416.109 96.7812H232C222.188 96.7812 213.219 91.2344 208.812 82.4531L202.797 70.4844C196.172 57.3125 182.719 49 168 49H87.9062Z" fill="#438DE6"/>
<path d="M263.906 145C252.922 145 243 149.406 235.797 156.562C226.703 165.578 214.266 177 201.266 177H87.9062C65.7969 177 48 194.844 48 217V433.125C48 455.297 65.7969 473.125 87.9062 473.125H424.078C446.203 473.125 464 455.297 464 433.125V185C464 162.844 446.203 145 424.078 145H263.906Z" fill="url(#paint0_linear_5_26)"/>
<path d="M263.906 129C252.922 129 243 133.406 235.797 140.562C226.703 149.578 214.266 161 201.266 161H87.9062C65.7969 161 48 178.844 48 201V424.906C48 447.062 65.7969 464.906 87.9062 464.906H424.078C446.203 464.906 464 447.062 464 424.906V169C464 146.844 446.203 129 424.078 129H263.906Z" fill="#A4CAEE"/>
<path d="M184.15 224C177.838 224 172.771 229.067 172.771 235.379C172.816 241.157 177.26 246.002 183.083 246.58L183.217 337.92H251.489L251.355 357.744L230.82 373.434C228.287 375.345 227.842 378.901 229.753 381.435C231.665 383.924 235.221 384.368 237.754 382.456L256.956 367.744L276.246 382.812C278.735 384.723 282.335 384.279 284.291 381.835C286.202 379.346 285.758 375.745 283.269 373.834L262.734 357.744L262.867 337.92H331.139L331.006 246.268C335.851 244.846 339.229 240.401 339.229 235.379C339.229 229.067 334.117 224 327.85 224L184.15 224ZM262.734 246.757C275.268 246.757 285.491 256.936 285.491 269.515H262.734V246.757ZM251.355 258.136V280.893H274.113C274.113 293.428 263.889 303.651 251.355 303.651C238.776 303.651 228.598 293.428 228.598 280.893C228.598 268.315 238.776 258.136 251.355 258.136Z" fill="#428CE6"/>
<defs>
<linearGradient id="paint0_linear_5_26" x1="47.9992" y1="448.998" x2="463.999" y2="448.998" gradientUnits="userSpaceOnUse">
<stop stop-color="#62A0EA"/>
<stop offset="0.0576991" stop-color="#AFD4FF"/>
<stop offset="0.122204" stop-color="#62A0EA"/>
<stop offset="0.873306" stop-color="#62A0EA"/>
<stop offset="0.955997" stop-color="#C0D5EA"/>
<stop offset="1" stop-color="#62A0EA"/>
</linearGradient>
</defs>
</svg>
