<svg width="600" height="600" viewBox="0 0 600 600" fill="none" xmlns="http://www.w3.org/2000/svg">
<path d="M93.9062 105C71.7969 105 54 122.844 54 145V489.125C54 511.297 71.7969 529.125 93.9062 529.125H430.078C452.203 529.125 470 511.297 470 489.125V200.781C470 174.266 448.562 152.781 422.109 152.781H238C228.188 152.781 219.219 147.234 214.812 138.453L208.797 126.484C202.172 113.312 188.719 105 174 105H93.9062Z" fill="#438DE6"/>
<path d="M269.906 201C258.922 201 249 205.406 241.797 212.562C232.703 221.578 220.266 233 207.266 233H93.9062C71.7969 233 54 250.844 54 273V489.125C54 511.297 71.7969 529.125 93.9062 529.125H430.078C452.203 529.125 470 511.297 470 489.125V241C470 218.844 452.203 201 430.078 201H269.906Z" fill="url(#paint0_linear_2_545)"/>
<path d="M269.906 185C258.922 185 249 189.406 241.797 196.562C232.703 205.578 220.266 217 207.266 217H93.9062C71.7969 217 54 234.844 54 257V480.906C54 503.063 71.7969 520.906 93.9062 520.906H430.078C452.203 520.906 470 503.063 470 480.906V225C470 202.844 452.203 185 430.078 185H269.906Z" fill="#A4CAEE"/>
<path d="M558.241 93C556.168 93 554.5 94.6729 554.5 96.75V129.012C554.5 131.09 556.168 132.762 558.241 132.762H589.757C591.832 132.762 593.5 131.09 593.5 129.012V101.979C593.5 99.4937 591.49 97.4795 589.01 97.4795H571.75C570.83 97.4795 569.989 96.9595 569.576 96.1362L569.012 95.0142C568.391 93.7793 567.13 93 565.75 93H558.241Z" fill="#438DE6"/>
<path d="M574.741 101C573.711 101 572.781 101.413 572.106 102.084C571.253 102.929 570.087 104 568.869 104H558.241C556.168 104 554.5 105.673 554.5 107.75V128.741C554.5 130.818 556.168 132.491 558.241 132.491H589.757C591.832 132.491 593.5 130.818 593.5 128.741V104.75C593.5 102.673 591.832 101 589.757 101H574.741Z" fill="#A4CAEE"/>
<path d="M190.15 280C183.838 280 178.771 285.067 178.771 291.379C178.816 297.157 183.26 302.002 189.083 302.58L189.217 393.92H257.489L257.355 413.744L236.82 429.434C234.287 431.345 233.842 434.901 235.753 437.435C237.665 439.924 241.221 440.368 243.754 438.456L262.956 423.744L282.246 438.812C284.735 440.723 288.335 440.279 290.291 437.835C292.202 435.346 291.758 431.745 289.269 429.834L268.734 413.744L268.867 393.92H337.139L337.006 302.268C341.851 300.846 345.229 296.401 345.229 291.379C345.229 285.067 340.117 280 333.85 280L190.15 280ZM268.734 302.757C281.268 302.757 291.491 312.936 291.491 325.515H268.734V302.757ZM257.355 314.136V336.893H280.113C280.113 349.428 269.889 359.651 257.355 359.651C244.776 359.651 234.598 349.428 234.598 336.893C234.598 324.315 244.776 314.136 257.355 314.136Z" fill="#428CE6"/>
<path d="M566.815 110C566.184 110 565.677 110.507 565.677 111.138C565.681 111.716 566.126 112.2 566.708 112.258L566.722 121.392H573.549L573.536 123.374L571.482 124.943C571.229 125.135 571.184 125.49 571.376 125.743C571.567 125.992 571.922 126.037 572.176 125.846L574.096 124.374L576.025 125.881C576.274 126.072 576.634 126.028 576.829 125.783C577.02 125.535 576.976 125.175 576.727 124.983L574.674 123.374L574.687 121.392H581.514L581.501 112.227C581.985 112.085 582.323 111.64 582.323 111.138C582.323 110.507 581.812 110 581.185 110L566.815 110ZM574.673 112.276C575.927 112.276 576.949 113.294 576.949 114.551H574.673V112.276ZM573.536 113.414V115.689H575.811C575.811 116.943 574.789 117.965 573.536 117.965C572.278 117.965 571.26 116.943 571.26 115.689C571.26 114.431 572.278 113.414 573.536 113.414Z" fill="#428CE6"/>
<defs>
<linearGradient id="paint0_linear_2_545" x1="53.9992" y1="504.998" x2="469.999" y2="504.998" gradientUnits="userSpaceOnUse">
<stop stop-color="#62A0EA"/>
<stop offset="0.0576991" stop-color="#AFD4FF"/>
<stop offset="0.122204" stop-color="#62A0EA"/>
<stop offset="0.873306" stop-color="#62A0EA"/>
<stop offset="0.955997" stop-color="#C0D5EA"/>
<stop offset="1" stop-color="#62A0EA"/>
</linearGradient>
</defs>
</svg>
