<svg width="512" height="513" viewBox="0 0 512 513" fill="none" xmlns="http://www.w3.org/2000/svg">
<path d="M87.9062 49C65.7969 49 48 66.8438 48 89V433.125C48 455.297 65.7969 473.125 87.9062 473.125H424.078C446.203 473.125 464 455.297 464 433.125V144.781C464 118.266 442.562 96.7812 416.109 96.7812H232C222.188 96.7812 213.219 91.2344 208.812 82.4531L202.797 70.4844C196.172 57.3125 182.719 49 168 49H87.9062Z" fill="#438DE6"/>
<path d="M263.906 145C252.922 145 243 149.406 235.797 156.562C226.703 165.578 214.266 177 201.266 177H87.9062C65.7969 177 48 194.844 48 217V433.125C48 455.297 65.7969 473.125 87.9062 473.125H424.078C446.203 473.125 464 455.297 464 433.125V185C464 162.844 446.203 145 424.078 145H263.906Z" fill="url(#paint0_linear_5_25)"/>
<path d="M263.906 129C252.922 129 243 133.406 235.797 140.562C226.703 149.578 214.266 161 201.266 161H87.9062C65.7969 161 48 178.844 48 201V424.906C48 447.062 65.7969 464.906 87.9062 464.906H424.078C446.203 464.906 464 447.062 464 424.906V169C464 146.844 446.203 129 424.078 129H263.906Z" fill="#A4CAEE"/>
<path d="M228 227C212.651 227 200 239.651 200 255V339C200 354.349 212.651 367 228 367H284C299.385 367 312 354.349 312 339V269C312 266.521 311.052 264.151 309.266 262.401L276.599 229.734C274.849 227.984 272.479 227 270 227H228ZM228 245.667H265.333V259.667C265.333 269 270 273.667 279.333 273.667H293.333V339C293.333 344.323 289.359 348.333 284 348.333H228C222.677 348.333 218.667 344.323 218.667 339V255C218.667 249.677 222.677 245.667 228 245.667ZM228 255V264.333H237.333V255H228ZM246.667 255V264.333H256V255H246.667ZM228 273.667V283H237.333V273.667H228ZM246.667 273.667V283H256V273.667H246.667ZM270.292 287.193L256 306.297L242.292 296.38L228 311V320.443H284V311L270.292 287.193ZM228 329.667V339H237.333V329.667H228ZM246.667 329.667V339H256V329.667H246.667ZM265.333 329.667V339H274.667V329.667H265.333Z" fill="#428CE6"/>
<defs>
<linearGradient id="paint0_linear_5_25" x1="47.9992" y1="448.998" x2="463.999" y2="448.998" gradientUnits="userSpaceOnUse">
<stop stop-color="#62A0EA"/>
<stop offset="0.0576991" stop-color="#AFD4FF"/>
<stop offset="0.122204" stop-color="#62A0EA"/>
<stop offset="0.873306" stop-color="#62A0EA"/>
<stop offset="0.955997" stop-color="#C0D5EA"/>
<stop offset="1" stop-color="#62A0EA"/>
</linearGradient>
</defs>
</svg>
