<svg width="512" height="513" viewBox="0 0 512 513" fill="none" xmlns="http://www.w3.org/2000/svg">
<path d="M87.9062 49C65.7969 49 48 66.8438 48 89V433.125C48 455.297 65.7969 473.125 87.9062 473.125H424.078C446.203 473.125 464 455.297 464 433.125V144.781C464 118.266 442.562 96.7812 416.109 96.7812H232C222.188 96.7812 213.219 91.2344 208.812 82.4531L202.797 70.4844C196.172 57.3125 182.719 49 168 49H87.9062Z" fill="#438DE6"/>
<path d="M263.906 145C252.922 145 243 149.406 235.797 156.562C226.703 165.578 214.266 177 201.266 177H87.9062C65.7969 177 48 194.844 48 217V433.125C48 455.297 65.7969 473.125 87.9062 473.125H424.078C446.203 473.125 464 455.297 464 433.125V185C464 162.844 446.203 145 424.078 145H263.906Z" fill="url(#paint0_linear_5_25)"/>
<path d="M263.906 129C252.922 129 243 133.406 235.797 140.562C226.703 149.578 214.266 161 201.266 161H87.9062C65.7969 161 48 178.844 48 201V424.906C48 447.062 65.7969 464.906 87.9062 464.906H424.078C446.203 464.906 464 447.062 464 424.906V169C464 146.844 446.203 129 424.078 129H263.906Z" fill="#A4CAEE"/>
<path d="M224 224C206.458 224 192 238.458 192 256V352C192 369.542 206.458 384 224 384H288C305.583 384 320 369.542 320 352V272C320 269.167 318.917 266.458 316.875 264.458L279.542 227.125C277.542 225.125 274.833 224 272 224H224ZM224 245.333H266.667V261.333C266.667 272 272 277.333 282.667 277.333H298.667V352C298.667 358.083 294.125 362.667 288 362.667H224C217.917 362.667 213.333 358.083 213.333 352V256C213.333 249.917 217.917 245.333 224 245.333ZM224 256V266.667H234.667V256H224ZM245.333 256V266.667H256V256H245.333ZM224 277.333V288H234.667V277.333H224ZM245.333 277.333V288H256V277.333H245.333ZM272.333 292.792L256 314.625L240.333 303.292L224 320V330.792H288V320L272.333 292.792ZM224 341.333V352H234.667V341.333H224ZM245.333 341.333V352H256V341.333H245.333ZM266.667 341.333V352H277.333V341.333H266.667Z" fill="#428CE6"/>
<defs>
<linearGradient id="paint0_linear_5_25" x1="47.9992" y1="448.998" x2="463.999" y2="448.998" gradientUnits="userSpaceOnUse">
<stop stop-color="#62A0EA"/>
<stop offset="0.0576991" stop-color="#AFD4FF"/>
<stop offset="0.122204" stop-color="#62A0EA"/>
<stop offset="0.873306" stop-color="#62A0EA"/>
<stop offset="0.955997" stop-color="#C0D5EA"/>
<stop offset="1" stop-color="#62A0EA"/>
</linearGradient>
</defs>
</svg>
