<svg width="600" height="600" viewBox="0 0 600 600" fill="none" xmlns="http://www.w3.org/2000/svg">
<path d="M93.9062 105C71.7969 105 54 122.844 54 145V489.125C54 511.297 71.7969 529.125 93.9062 529.125H430.078C452.203 529.125 470 511.297 470 489.125V200.781C470 174.266 448.562 152.781 422.109 152.781H238C228.188 152.781 219.219 147.234 214.812 138.453L208.797 126.484C202.172 113.312 188.719 105 174 105H93.9062Z" fill="#438DE6"/>
<path d="M269.906 201C258.922 201 249 205.406 241.797 212.562C232.703 221.578 220.266 233 207.266 233H93.9062C71.7969 233 54 250.844 54 273V489.125C54 511.297 71.7969 529.125 93.9062 529.125H430.078C452.203 529.125 470 511.297 470 489.125V241C470 218.844 452.203 201 430.078 201H269.906Z" fill="url(#paint0_linear_2_372)"/>
<path d="M269.906 185C258.922 185 249 189.406 241.797 196.562C232.703 205.578 220.266 217 207.266 217H93.9062C71.7969 217 54 234.844 54 257V480.906C54 503.063 71.7969 520.906 93.9062 520.906H430.078C452.203 520.906 470 503.063 470 480.906V225C470 202.844 452.203 185 430.078 185H269.906Z" fill="#A4CAEE"/>
<path d="M558.241 93C556.168 93 554.5 94.6729 554.5 96.75V129.012C554.5 131.09 556.168 132.762 558.241 132.762H589.757C591.832 132.762 593.5 131.09 593.5 129.012V101.979C593.5 99.4937 591.49 97.4795 589.01 97.4795H571.75C570.83 97.4795 569.989 96.9595 569.576 96.1362L569.012 95.0142C568.391 93.7793 567.13 93 565.75 93H558.241Z" fill="#438DE6"/>
<path d="M574.741 101C573.711 101 572.781 101.413 572.106 102.084C571.253 102.929 570.087 104 568.869 104H558.241C556.168 104 554.5 105.673 554.5 107.75V128.741C554.5 130.818 556.168 132.491 558.241 132.491H589.757C591.832 132.491 593.5 130.818 593.5 128.741V104.75C593.5 102.673 591.832 101 589.757 101H574.741Z" fill="#A4CAEE"/>
<path d="M260.826 280.032C238.332 280.365 208.09 288.571 208.59 314.981C209.132 342.598 239.749 332.726 242.248 343.973C242.623 343.514 243.164 343.098 243.539 342.64C245.664 340.391 247.746 338.516 249.871 336.308C253.203 332.559 256.661 329.102 260.16 325.311C271.99 312.773 272.49 311.982 300.69 290.654C289.652 284.073 276.572 280.407 265.492 280.032C264.075 279.989 262.367 279.989 260.826 280.032ZM326.35 280.032C307.189 293.862 281.529 315.231 261.16 336.892C259.327 338.849 257.535 340.765 255.786 342.723C254.703 343.89 253.537 344.806 252.454 346.014C251.745 346.847 251.079 347.722 250.412 348.555C236.541 363.884 222.878 381.921 211.506 398.5C208.215 396.834 204.05 396.667 199.593 399.583C191.553 404.873 193.22 423.951 176.682 423.951C178.265 430.366 195.177 430.283 206.633 427.409C217.421 424.701 220.754 415.245 218.713 407.289C218.38 406.164 217.88 405.04 217.171 403.873C238.332 386.378 253.287 371.84 263.492 360.968C266.075 358.344 269.157 354.928 272.573 351.096C285.445 336.892 303.773 314.481 326.35 280.032ZM240.582 296.319C249.371 296.319 256.494 303.484 256.494 312.315C256.494 321.188 249.371 328.311 240.582 328.311C231.751 328.311 224.586 321.188 224.586 312.315C224.586 303.484 231.751 296.319 240.582 296.319ZM318.061 303.401C302.94 327.227 292.818 341.307 282.154 352.304C275.322 359.344 269.74 366.3 264.825 371.299C255.911 380.796 244.164 392.002 231.251 404.29C231.917 419.952 239.874 433.574 265.825 438.614C307.397 446.695 351.427 419.161 347.011 363.301C345.095 339.349 332.015 317.647 318.061 303.401ZM321.726 343.973C327.558 343.973 332.349 348.763 332.349 354.637C332.349 360.552 327.558 365.3 321.726 365.3C315.895 365.3 311.104 360.552 311.104 354.637C311.104 348.763 315.895 343.973 321.726 343.973ZM315.061 375.964C320.893 375.964 325.684 380.755 325.684 386.628C325.684 392.543 320.893 397.292 315.061 397.292C309.23 397.292 304.439 392.543 304.439 386.628C304.439 380.755 309.23 375.964 315.061 375.964ZM261.826 397.292C267.699 397.292 272.49 402.082 272.49 407.956C272.49 413.829 267.699 418.619 261.826 418.619C255.994 418.619 251.204 413.829 251.204 407.956C251.204 402.082 255.994 397.292 261.826 397.292ZM293.776 397.292C299.607 397.292 304.439 402.082 304.439 407.956C304.439 413.829 299.607 418.619 293.776 418.619C287.944 418.619 283.154 413.829 283.154 407.956C283.154 402.082 287.944 397.292 293.776 397.292Z" fill="#428CE6"/>
<path d="M573.883 110.003C571.633 110.037 568.609 110.857 568.659 113.498C568.713 116.26 571.775 115.273 572.025 116.397C572.062 116.352 572.116 116.31 572.154 116.264C572.366 116.039 572.575 115.852 572.787 115.631C573.12 115.256 573.466 114.91 573.816 114.531C574.999 113.277 575.049 113.198 577.869 111.065C576.765 110.407 575.457 110.041 574.349 110.003C574.208 110 574.037 110 573.883 110.003ZM580.435 110.003C578.519 111.386 575.953 113.523 573.916 115.689C573.733 115.885 573.554 116.076 573.379 116.272C573.27 116.389 573.154 116.481 573.045 116.601C572.975 116.685 572.908 116.772 572.841 116.855C571.454 118.388 570.088 120.192 568.951 121.85C568.622 121.683 568.205 121.667 567.759 121.958C566.955 122.487 567.122 124.395 565.468 124.395C565.627 125.037 567.318 125.028 568.463 124.741C569.542 124.47 569.875 123.525 569.671 122.729C569.638 122.616 569.588 122.504 569.517 122.387C571.633 120.638 573.129 119.184 574.149 118.097C574.407 117.834 574.716 117.493 575.057 117.11C576.345 115.689 578.177 113.448 580.435 110.003ZM571.858 111.632C572.737 111.632 573.449 112.348 573.449 113.231C573.449 114.119 572.737 114.831 571.858 114.831C570.975 114.831 570.259 114.119 570.259 113.231C570.259 112.348 570.975 111.632 571.858 111.632ZM579.606 112.34C578.094 114.723 577.082 116.131 576.015 117.23C575.332 117.934 574.774 118.63 574.283 119.13C573.391 120.08 572.216 121.2 570.925 122.429C570.992 123.995 571.787 125.357 574.383 125.861C578.54 126.67 582.943 123.916 582.501 118.33C582.31 115.935 581.002 113.765 579.606 112.34ZM579.973 116.397C580.556 116.397 581.035 116.876 581.035 117.464C581.035 118.055 580.556 118.53 579.973 118.53C579.39 118.53 578.91 118.055 578.91 117.464C578.91 116.876 579.39 116.397 579.973 116.397ZM579.306 119.596C579.889 119.596 580.368 120.075 580.368 120.663C580.368 121.254 579.889 121.729 579.306 121.729C578.723 121.729 578.244 121.254 578.244 120.663C578.244 120.075 578.723 119.596 579.306 119.596ZM573.983 121.729C574.57 121.729 575.049 122.208 575.049 122.796C575.049 123.383 574.57 123.862 573.983 123.862C573.399 123.862 572.92 123.383 572.92 122.796C572.92 122.208 573.399 121.729 573.983 121.729ZM577.178 121.729C577.761 121.729 578.244 122.208 578.244 122.796C578.244 123.383 577.761 123.862 577.178 123.862C576.594 123.862 576.115 123.383 576.115 122.796C576.115 122.208 576.594 121.729 577.178 121.729Z" fill="#428CE6"/>
<defs>
<linearGradient id="paint0_linear_2_372" x1="53.9992" y1="504.998" x2="469.999" y2="504.998" gradientUnits="userSpaceOnUse">
<stop stop-color="#62A0EA"/>
<stop offset="0.0576991" stop-color="#AFD4FF"/>
<stop offset="0.122204" stop-color="#62A0EA"/>
<stop offset="0.873306" stop-color="#62A0EA"/>
<stop offset="0.955997" stop-color="#C0D5EA"/>
<stop offset="1" stop-color="#62A0EA"/>
</linearGradient>
</defs>
</svg>
