<svg width="512" height="513" viewBox="0 0 512 513" fill="none" xmlns="http://www.w3.org/2000/svg">
<path d="M87.9062 49C65.7969 49 48 66.8438 48 89V433.125C48 455.297 65.7969 473.125 87.9062 473.125H424.078C446.203 473.125 464 455.297 464 433.125V144.781C464 118.266 442.562 96.7812 416.109 96.7812H232C222.188 96.7812 213.219 91.2344 208.812 82.4531L202.797 70.4844C196.172 57.3125 182.719 49 168 49H87.9062Z" fill="#438DE6"/>
<path d="M263.906 145C252.922 145 243 149.406 235.797 156.562C226.703 165.578 214.266 177 201.266 177H87.9062C65.7969 177 48 194.844 48 217V433.125C48 455.297 65.7969 473.125 87.9062 473.125H424.078C446.203 473.125 464 455.297 464 433.125V185C464 162.844 446.203 145 424.078 145H263.906Z" fill="url(#paint0_linear_5_19)"/>
<path d="M263.906 129C252.922 129 243 133.406 235.797 140.562C226.703 149.578 214.266 161 201.266 161H87.9062C65.7969 161 48 178.844 48 201V424.906C48 447.062 65.7969 464.906 87.9062 464.906H424.078C446.203 464.906 464 447.062 464 424.906V169C464 146.844 446.203 129 424.078 129H263.906Z" fill="#A4CAEE"/>
<path d="M256 241C254.195 241 252.418 241.684 251.051 243.051L239.949 254.152L276.617 290.793C277.848 290.274 279.16 290 280.5 290C286.297 290 291 294.703 291 300.5C291 306.297 286.297 311 280.5 311C274.703 311 270 306.297 270 300.5C270 299.215 270.246 297.957 270.711 296.781L256.355 282.426V311.738C260.375 313.324 263 317.18 263 321.5C263 327.297 258.297 332 252.5 332C246.703 332 242 327.297 242 321.5C242 316.906 244.98 312.859 249.355 311.492V275.426L234.016 260.086L202.051 292.051C199.316 294.785 199.316 299.215 202.051 301.949L251.051 350.949C253.785 353.684 258.215 353.684 260.949 350.949L309.949 301.949C312.656 299.215 312.656 294.785 309.949 292.051L260.949 243.051C259.582 241.684 257.805 241 256 241Z" fill="#428CE6"/>
<defs>
<linearGradient id="paint0_linear_5_19" x1="47.9992" y1="448.998" x2="463.999" y2="448.998" gradientUnits="userSpaceOnUse">
<stop stop-color="#62A0EA"/>
<stop offset="0.0576991" stop-color="#AFD4FF"/>
<stop offset="0.122204" stop-color="#62A0EA"/>
<stop offset="0.873306" stop-color="#62A0EA"/>
<stop offset="0.955997" stop-color="#C0D5EA"/>
<stop offset="1" stop-color="#62A0EA"/>
</linearGradient>
</defs>
</svg>
