<svg width="512" height="513" viewBox="0 0 512 513" fill="none" xmlns="http://www.w3.org/2000/svg">
<path d="M87.9062 49C65.7969 49 48 66.8438 48 89V433.125C48 455.297 65.7969 473.125 87.9062 473.125H424.078C446.203 473.125 464 455.297 464 433.125V144.781C464 118.266 442.562 96.7812 416.109 96.7812H232C222.188 96.7812 213.219 91.2344 208.812 82.4531L202.797 70.4844C196.172 57.3125 182.719 49 168 49H87.9062Z" fill="#438DE6"/>
<path d="M263.906 145C252.922 145 243 149.406 235.797 156.562C226.703 165.578 214.266 177 201.266 177H87.9062C65.7969 177 48 194.844 48 217V433.125C48 455.297 65.7969 473.125 87.9062 473.125H424.078C446.203 473.125 464 455.297 464 433.125V185C464 162.844 446.203 145 424.078 145H263.906Z" fill="url(#paint0_linear_5_19)"/>
<path d="M263.906 129C252.922 129 243 133.406 235.797 140.562C226.703 149.578 214.266 161 201.266 161H87.9062C65.7969 161 48 178.844 48 201V424.906C48 447.062 65.7969 464.906 87.9062 464.906H424.078C446.203 464.906 464 447.062 464 424.906V169C464 146.844 446.203 129 424.078 129H263.906Z" fill="#A4CAEE"/>
<path d="M256.015 224C253.436 224 250.897 224.977 248.944 226.93L233.085 242.789L285.468 295.133C287.226 294.391 289.101 294 291.015 294C299.296 294 306.015 300.719 306.015 309C306.015 317.281 299.296 324 291.015 324C282.733 324 276.015 317.281 276.015 309C276.015 307.164 276.367 305.367 277.03 303.687L256.522 283.18V325.055C262.265 327.32 266.015 332.828 266.015 339C266.015 347.281 259.296 354 251.015 354C242.733 354 236.015 347.281 236.015 339C236.015 332.437 240.272 326.656 246.522 324.703V273.18L224.608 251.266L178.944 296.93C175.038 300.836 175.038 307.164 178.944 311.07L248.944 381.07C252.851 384.977 259.179 384.977 263.085 381.07L333.085 311.07C336.952 307.164 336.952 300.836 333.085 296.93L263.085 226.93C261.132 224.977 258.593 224 256.015 224Z" fill="#428CE6"/>
<defs>
<linearGradient id="paint0_linear_5_19" x1="47.9992" y1="448.998" x2="463.999" y2="448.998" gradientUnits="userSpaceOnUse">
<stop stop-color="#62A0EA"/>
<stop offset="0.0576991" stop-color="#AFD4FF"/>
<stop offset="0.122204" stop-color="#62A0EA"/>
<stop offset="0.873306" stop-color="#62A0EA"/>
<stop offset="0.955997" stop-color="#C0D5EA"/>
<stop offset="1" stop-color="#62A0EA"/>
</linearGradient>
</defs>
</svg>
