<svg width="600" height="600" viewBox="0 0 600 600" fill="none" xmlns="http://www.w3.org/2000/svg">
<path d="M93.9062 105C71.7969 105 54 122.844 54 145V489.125C54 511.297 71.7969 529.125 93.9062 529.125H430.078C452.203 529.125 470 511.297 470 489.125V200.781C470 174.266 448.562 152.781 422.109 152.781H238C228.188 152.781 219.219 147.234 214.812 138.453L208.797 126.484C202.172 113.312 188.719 105 174 105H93.9062Z" fill="#438DE6"/>
<path d="M269.906 201C258.922 201 249 205.406 241.797 212.562C232.703 221.578 220.266 233 207.266 233H93.9062C71.7969 233 54 250.844 54 273V489.125C54 511.297 71.7969 529.125 93.9062 529.125H430.078C452.203 529.125 470 511.297 470 489.125V241C470 218.844 452.203 201 430.078 201H269.906Z" fill="url(#paint0_linear_2_665)"/>
<path d="M269.906 185C258.922 185 249 189.406 241.797 196.562C232.703 205.578 220.266 217 207.266 217H93.9062C71.7969 217 54 234.844 54 257V480.906C54 503.063 71.7969 520.906 93.9062 520.906H430.078C452.203 520.906 470 503.063 470 480.906V225C470 202.844 452.203 185 430.078 185H269.906Z" fill="#A4CAEE"/>
<path d="M558.241 93C556.168 93 554.5 94.6729 554.5 96.75V129.012C554.5 131.09 556.168 132.762 558.241 132.762H589.757C591.832 132.762 593.5 131.09 593.5 129.012V101.979C593.5 99.4937 591.49 97.4795 589.01 97.4795H571.75C570.83 97.4795 569.989 96.9595 569.576 96.1362L569.012 95.0142C568.391 93.7793 567.13 93 565.75 93H558.241Z" fill="#438DE6"/>
<path d="M574.741 101C573.711 101 572.781 101.413 572.106 102.084C571.253 102.929 570.087 104 568.869 104H558.241C556.168 104 554.5 105.673 554.5 107.75V128.741C554.5 130.818 556.168 132.491 558.241 132.491H589.757C591.832 132.491 593.5 130.818 593.5 128.741V104.75C593.5 102.673 591.832 101 589.757 101H574.741Z" fill="#A4CAEE"/>
<path d="M260.438 280.012C257.358 280.058 254.322 280.324 251.286 280.726C227.18 283.985 205.307 298.181 192.718 320.01C189.548 325.456 191.423 332.465 196.914 335.59C202.36 338.759 209.369 336.884 212.494 331.438C224.547 310.591 248.251 299.565 271.91 303.716C291.106 307.109 306.864 319.876 314.364 337.152H296.284C289.99 337.152 284.856 342.286 284.856 348.58C284.856 354.874 289.99 360.008 296.284 360.008H341.996C348.291 360.008 353.424 354.874 353.424 348.58V302.868C353.424 296.574 348.291 291.44 341.996 291.44C335.702 291.44 330.568 296.574 330.568 302.868V318.85C318.872 299.386 299.141 285.324 275.883 281.217C270.705 280.325 265.527 279.923 260.438 280.012ZM182.004 360.008C175.71 360.008 170.576 365.142 170.576 371.436V417.148C170.576 423.443 175.71 428.576 182.004 428.576C188.298 428.576 193.432 423.443 193.432 417.148V401.212C206.467 422.862 229.234 437.415 255.036 439.692C285.972 442.415 315.747 426.925 331.282 400.006C334.452 394.56 332.577 387.551 327.086 384.427C324.497 382.864 321.372 382.462 318.426 383.266C315.48 384.025 312.98 385.944 311.462 388.578C300.347 407.818 279.187 418.845 257 416.925C236.064 415.095 217.985 401.97 209.637 382.864H227.716C234.01 382.864 239.144 377.731 239.144 371.436C239.144 365.142 234.01 360.008 227.716 360.008H182.004Z" fill="#428CE6"/>
<path d="M573.844 110.001C573.536 110.007 573.232 110.032 572.929 110.073C570.518 110.399 568.331 111.818 567.072 114.001C566.755 114.546 566.942 115.247 567.491 115.559C568.036 115.876 568.737 115.688 569.049 115.144C570.255 113.059 572.625 111.956 574.991 112.372C576.911 112.711 578.486 113.988 579.236 115.715H577.428C576.799 115.715 576.286 116.229 576.286 116.858C576.286 117.487 576.799 118.001 577.428 118.001H582C582.629 118.001 583.142 117.487 583.142 116.858V112.287C583.142 111.657 582.629 111.144 582 111.144C581.37 111.144 580.857 111.657 580.857 112.287V113.885C579.687 111.939 577.714 110.532 575.388 110.122C574.871 110.032 574.353 109.992 573.844 110.001ZM566 118.001C565.371 118.001 564.858 118.514 564.858 119.144V123.715C564.858 124.344 565.371 124.858 566 124.858C566.63 124.858 567.143 124.344 567.143 123.715V122.121C568.447 124.286 570.723 125.742 573.304 125.969C576.397 126.242 579.375 124.693 580.928 122.001C581.245 121.456 581.058 120.755 580.509 120.443C580.25 120.286 579.937 120.246 579.643 120.327C579.348 120.403 579.098 120.594 578.946 120.858C577.835 122.782 575.719 123.885 573.5 123.693C571.406 123.51 569.598 122.197 568.764 120.286H570.572C571.201 120.286 571.714 119.773 571.714 119.144C571.714 118.514 571.201 118.001 570.572 118.001H566Z" fill="#428CE6"/>
<defs>
<linearGradient id="paint0_linear_2_665" x1="53.9992" y1="504.998" x2="469.999" y2="504.998" gradientUnits="userSpaceOnUse">
<stop stop-color="#62A0EA"/>
<stop offset="0.0576991" stop-color="#AFD4FF"/>
<stop offset="0.122204" stop-color="#62A0EA"/>
<stop offset="0.873306" stop-color="#62A0EA"/>
<stop offset="0.955997" stop-color="#C0D5EA"/>
<stop offset="1" stop-color="#62A0EA"/>
</linearGradient>
</defs>
</svg>
