<svg width="600" height="600" viewBox="0 0 600 600" fill="none" xmlns="http://www.w3.org/2000/svg">
<path d="M93.9062 105C71.7969 105 54 122.844 54 145V489.125C54 511.297 71.7969 529.125 93.9062 529.125H430.078C452.203 529.125 470 511.297 470 489.125V200.781C470 174.266 448.562 152.781 422.109 152.781H238C228.188 152.781 219.219 147.234 214.812 138.453L208.797 126.484C202.172 113.312 188.719 105 174 105H93.9062Z" fill="#438DE6"/>
<path d="M269.906 201C258.922 201 249 205.406 241.797 212.562C232.703 221.578 220.266 233 207.266 233H93.9062C71.7969 233 54 250.844 54 273V489.125C54 511.297 71.7969 529.125 93.9062 529.125H430.078C452.203 529.125 470 511.297 470 489.125V241C470 218.844 452.203 201 430.078 201H269.906Z" fill="url(#paint0_linear_2_482)"/>
<path d="M269.906 185C258.922 185 249 189.406 241.797 196.562C232.703 205.578 220.266 217 207.266 217H93.9062C71.7969 217 54 234.844 54 257V480.906C54 503.063 71.7969 520.906 93.9062 520.906H430.078C452.203 520.906 470 503.063 470 480.906V225C470 202.844 452.203 185 430.078 185H269.906Z" fill="#A4CAEE"/>
<path d="M558.241 93C556.168 93 554.5 94.6729 554.5 96.75V129.012C554.5 131.09 556.168 132.762 558.241 132.762H589.757C591.832 132.762 593.5 131.09 593.5 129.012V101.979C593.5 99.4937 591.49 97.4795 589.01 97.4795H571.75C570.83 97.4795 569.989 96.9595 569.576 96.1362L569.012 95.0142C568.391 93.7793 567.13 93 565.75 93H558.241Z" fill="#438DE6"/>
<path d="M574.741 101C573.711 101 572.781 101.413 572.106 102.084C571.253 102.929 570.087 104 568.869 104H558.241C556.168 104 554.5 105.673 554.5 107.75V128.741C554.5 130.818 556.168 132.491 558.241 132.491H589.757C591.832 132.491 593.5 130.818 593.5 128.741V104.75C593.5 102.673 591.832 101 589.757 101H574.741Z" fill="#A4CAEE"/>
<path fill-rule="evenodd" clip-rule="evenodd" d="M196.241 314.335L201.984 308.532L230.261 350.672V439.781L196.241 405.806V314.335Z" fill="#428CE6"/>
<path fill-rule="evenodd" clip-rule="evenodd" d="M327.696 314.659L293.251 280V368.735L322.068 412.126L327.929 405.755L327.696 314.659Z" fill="#428CE6"/>
<path fill-rule="evenodd" clip-rule="evenodd" d="M230.258 280.219L318.711 415.241L293.959 440L205.459 305.278L230.258 280.219Z" fill="#428CE6"/>
<path fill-rule="evenodd" clip-rule="evenodd" d="M567.416 113.433L567.99 112.853L570.817 117.067V125.978L567.416 122.581V113.433Z" fill="#428CE6"/>
<path fill-rule="evenodd" clip-rule="evenodd" d="M580.561 113.466L577.116 110V118.873L579.998 123.213L580.584 122.576L580.561 113.466Z" fill="#428CE6"/>
<path fill-rule="evenodd" clip-rule="evenodd" d="M570.817 110.022L579.663 123.524L577.187 126L568.337 112.528L570.817 110.022Z" fill="#428CE6"/>
<defs>
<linearGradient id="paint0_linear_2_482" x1="53.9992" y1="504.998" x2="469.999" y2="504.998" gradientUnits="userSpaceOnUse">
<stop stop-color="#62A0EA"/>
<stop offset="0.0576991" stop-color="#AFD4FF"/>
<stop offset="0.122204" stop-color="#62A0EA"/>
<stop offset="0.873306" stop-color="#62A0EA"/>
<stop offset="0.955997" stop-color="#C0D5EA"/>
<stop offset="1" stop-color="#62A0EA"/>
</linearGradient>
</defs>
</svg>
