<svg width="600" height="600" viewBox="0 0 600 600" fill="none" xmlns="http://www.w3.org/2000/svg">
<path d="M93.9061 105C71.7968 105 53.9999 122.844 53.9999 145V489.125C53.9999 511.297 71.7968 529.125 93.9061 529.125H430.078C452.203 529.125 470 511.297 470 489.125V200.781C470 174.266 448.562 152.781 422.109 152.781H238C228.187 152.781 219.219 147.234 214.812 138.453L208.797 126.484C202.172 113.312 188.719 105 174 105H93.9061Z" fill="#438DE6"/>
<path d="M269.906 201C258.922 201 249 205.406 241.797 212.562C232.703 221.578 220.266 233 207.266 233H93.9061C71.7968 233 53.9999 250.844 53.9999 273V489.125C53.9999 511.297 71.7968 529.125 93.9061 529.125H430.078C452.203 529.125 470 511.297 470 489.125V241C470 218.844 452.203 201 430.078 201H269.906Z" fill="url(#paint0_linear_2_391)"/>
<path d="M269.906 185C258.922 185 249 189.406 241.797 196.562C232.703 205.578 220.266 217 207.266 217H93.9061C71.7968 217 53.9999 234.844 53.9999 257V480.906C53.9999 503.063 71.7968 520.906 93.9061 520.906H430.078C452.203 520.906 470 503.063 470 480.906V225C470 202.844 452.203 185 430.078 185H269.906Z" fill="#A4CAEE"/>
<path d="M558.241 93C556.168 93 554.5 94.6729 554.5 96.75V129.012C554.5 131.09 556.168 132.762 558.241 132.762H589.757C591.832 132.762 593.5 131.09 593.5 129.012V101.979C593.5 99.4937 591.49 97.4795 589.01 97.4795H571.75C570.83 97.4795 569.989 96.9595 569.576 96.1362L569.012 95.0142C568.391 93.7793 567.13 93 565.75 93H558.241Z" fill="#438DE6"/>
<path d="M574.741 101C573.711 101 572.781 101.413 572.106 102.084C571.253 102.929 570.087 104 568.869 104H558.241C556.168 104 554.5 105.673 554.5 107.75V128.741C554.5 130.818 556.168 132.491 558.241 132.491H589.757C591.832 132.491 593.5 130.818 593.5 128.741V104.75C593.5 102.673 591.832 101 589.757 101H574.741Z" fill="#A4CAEE"/>
<path d="M193.824 280C192.351 280 191.253 281.201 191.384 282.668L203.804 421.98C203.935 423.447 205.203 424.97 206.623 425.364L259.328 439.998C260.747 440.392 263.07 440.392 264.49 439.999L317.355 425.341C318.775 424.948 320.044 423.425 320.175 421.958L332.615 282.668C332.747 281.201 331.649 280 330.175 280H193.824ZM306.165 311.951C306.048 313.26 305.845 315.532 305.714 316.999L305.387 320.654C305.255 322.121 305.068 324.219 304.969 325.315C304.87 326.412 304.776 327.31 304.759 327.31C304.743 327.31 303.523 327.31 302.05 327.31H264.678C263.205 327.31 261.987 327.31 261.971 327.31C261.955 327.31 260.737 327.31 259.263 327.31H239.581C238.108 327.31 237.01 328.51 237.141 329.978L238.289 342.811C238.42 344.278 239.733 345.479 241.206 345.479H259.264C260.737 345.479 261.956 345.479 261.972 345.479C261.988 345.479 263.206 345.479 264.679 345.479H295.718C297.191 345.479 299.471 345.479 300.784 345.479C302.096 345.479 303.073 346.55 302.954 347.858C302.835 349.167 302.631 351.44 302.5 352.906L298.808 394.279C298.677 395.746 298.51 397.621 298.438 398.445C298.365 399.268 297.144 400.264 295.724 400.658L264.581 409.293C263.162 409.686 261.982 410.012 261.96 410.017C261.938 410.021 260.759 409.703 259.339 409.309L228.163 400.658C226.743 400.264 225.475 398.741 225.344 397.274L223.337 374.75C223.206 373.282 224.305 372.082 225.778 372.082H228.624C230.097 372.082 232.507 372.082 233.981 372.082H238.224C239.697 372.082 241.009 373.282 241.141 374.75L241.928 383.567C242.058 385.034 243.328 386.549 244.751 386.933L259.334 390.871C260.756 391.255 261.925 391.57 261.931 391.57C261.938 391.57 263.106 391.255 264.528 390.871L279.137 386.923C280.559 386.539 281.83 385.024 281.962 383.557L283.546 365.891C283.678 364.424 282.58 363.223 281.107 363.223H264.679C263.206 363.223 261.988 363.223 261.972 363.223C261.956 363.223 260.737 363.223 259.264 363.223H224.984C223.511 363.223 222.199 362.022 222.068 360.555L218.181 316.998C218.05 315.531 217.847 313.26 217.73 311.95C217.613 310.641 218.723 309.571 220.196 309.571H259.264C260.737 309.571 261.956 309.571 261.972 309.571C261.988 309.571 263.206 309.571 264.679 309.571H303.7C305.172 309.571 306.282 310.641 306.165 311.951Z" fill="#428CE6"/>
<path d="M567.17 109.97C567.022 109.97 566.912 110.091 566.925 110.238L568.17 124.195C568.183 124.342 568.31 124.494 568.452 124.534L573.732 126C573.874 126.039 574.107 126.039 574.249 126L579.546 124.532C579.688 124.492 579.815 124.339 579.828 124.193L581.075 110.238C581.088 110.091 580.978 109.97 580.83 109.97H567.17ZM578.425 113.171C578.413 113.303 578.393 113.53 578.379 113.677L578.347 114.043C578.333 114.19 578.315 114.401 578.305 114.51C578.295 114.62 578.285 114.71 578.284 114.71C578.282 114.71 578.16 114.71 578.012 114.71H574.268C574.121 114.71 573.999 114.71 573.997 114.71C573.995 114.71 573.873 114.71 573.726 114.71H571.754C571.606 114.71 571.496 114.83 571.509 114.977L571.624 116.263C571.638 116.41 571.769 116.53 571.917 116.53H573.726C573.873 116.53 573.995 116.53 573.997 116.53C573.999 116.53 574.121 116.53 574.268 116.53H577.378C577.526 116.53 577.754 116.53 577.886 116.53C578.017 116.53 578.115 116.638 578.103 116.769C578.091 116.9 578.071 117.128 578.057 117.275L577.688 121.419C577.674 121.567 577.658 121.754 577.65 121.837C577.643 121.919 577.521 122.019 577.379 122.059L574.259 122.924C574.116 122.963 573.998 122.996 573.996 122.996C573.994 122.997 573.876 122.965 573.733 122.925L570.61 122.059C570.468 122.019 570.341 121.867 570.328 121.72L570.126 119.463C570.113 119.316 570.223 119.196 570.371 119.196H570.656C570.804 119.196 571.045 119.196 571.193 119.196H571.618C571.765 119.196 571.897 119.316 571.91 119.463L571.989 120.346C572.002 120.493 572.129 120.645 572.272 120.684L573.733 121.078C573.875 121.117 573.992 121.148 573.993 121.148C573.994 121.148 574.111 121.117 574.253 121.078L575.717 120.683C575.859 120.644 575.987 120.492 576 120.345L576.159 118.575C576.172 118.428 576.062 118.308 575.914 118.308H574.268C574.121 118.308 573.999 118.308 573.997 118.308C573.995 118.308 573.873 118.308 573.726 118.308H570.291C570.144 118.308 570.012 118.188 569.999 118.041L569.61 113.677C569.597 113.53 569.576 113.303 569.565 113.171C569.553 113.04 569.664 112.933 569.812 112.933H573.726C573.873 112.933 573.995 112.933 573.997 112.933C573.999 112.933 574.121 112.933 574.268 112.933H578.178C578.325 112.933 578.436 113.04 578.425 113.171Z" fill="#428CE6"/>
<defs>
<linearGradient id="paint0_linear_2_391" x1="53.999" y1="504.998" x2="469.999" y2="504.998" gradientUnits="userSpaceOnUse">
<stop stop-color="#62A0EA"/>
<stop offset="0.0576991" stop-color="#AFD4FF"/>
<stop offset="0.122204" stop-color="#62A0EA"/>
<stop offset="0.873306" stop-color="#62A0EA"/>
<stop offset="0.955997" stop-color="#C0D5EA"/>
<stop offset="1" stop-color="#62A0EA"/>
</linearGradient>
</defs>
</svg>
